<svg xmlns="http://www.w3.org/2000/svg" viewBox="0 0 146.4 164.11"><defs><style>.cls-1{fill:#fff;}</style></defs><title>contact_icon</title><g id="圖層_2" data-name="圖層 2"><g id="contact_iocn"><g id="border"><g id="border-2" data-name="border"><path class="cls-1" d="M73.1,164.11h0a19.94,19.94,0,0,1-11.1-3.2l-51.1-29.6A19.61,19.61,0,0,1,.2,111V53.11a19.46,19.46,0,0,1,10.7-20.3L62,3.21A19.94,19.94,0,0,1,73.1,0a23.43,23.43,0,0,1,10.4,2.5l50.8,29.2c.6.4,12,8.6,12,19V82l.1,31.3c0,10.4-11.4,18.6-11.9,19l-50.9,29.2A24.3,24.3,0,0,1,73.1,164.11ZM73.1,2a17.16,17.16,0,0,0-10,2.9L63,5,11.9,34.61a17.39,17.39,0,0,0-9.7,18.2v58.4c-.1.5-2.3,12,9.6,18.2L63,159.11A18.77,18.77,0,0,0,73,162a21.54,21.54,0,0,0,9.6-2.3l50.7-29.2s11-7.9,11-17.3V82l.1-31.3c0-9.4-11-17.2-11.1-17.3L82.6,4.21A22.07,22.07,0,0,0,73.1,2Z"/><path class="cls-1" d="M53,150a4,4,0,0,1,1.5,5.5h0a4,4,0,0,1-5.4,1.5h0l-28.6-16.5A4,4,0,0,1,19,135h0a4,4,0,0,1,5.5-1.5Z"/><path class="cls-1" d="M126.5,23.21a4,4,0,0,1,1.5,5.5h0a4,4,0,0,1-5.5,1.5h0L93.9,13.61a4,4,0,0,1-1.5-5.5h0a4,4,0,0,1,5.5-1.5Z"/><path class="cls-1" d="M73.2,152.31h0a16.6,16.6,0,0,1-9.4-2.7l-43.9-25.5A16.1,16.1,0,0,1,11.2,107V57.11A16,16,0,0,1,20,40l43.8-25.5a16.38,16.38,0,0,1,9.4-2.7,19.74,19.74,0,0,1,8.9,2.1L125.7,39c.4.3,10.2,7.3,10.2,16.1l-.1,27,.1,27c0,8.8-9.7,15.7-10.1,16L82,150.31A20.27,20.27,0,0,1,73.2,152.31Zm0-139.6a16.08,16.08,0,0,0-8.8,2.5L20.5,40.81c-10.6,5.5-8.4,15.7-8.3,16.2v50.2c-.1.4-2.3,10.6,8.2,16.1l43.9,25.5a16.17,16.17,0,0,0,8.8,2.6,18.88,18.88,0,0,0,8.4-2l43.7-25.1c.1,0,9.6-6.9,9.6-15.2l-.1-27,.1-27c0-8.3-9.6-15.2-9.7-15.2L81.5,14.71a20.25,20.25,0,0,0-8.3-2Z"/></g></g><g id="body"><g id="_917938784" data-name=" 917938784"><path class="cls-1" d="M42,91.68c3.52,0,6.22-2.17,8.65-4.19l3.11-3c2.71-2.7,2.57-2.43,2.57-5.27,0-2-3.51-5.81-5-6.22a7.32,7.32,0,0,1,1.08-3.65,20.33,20.33,0,0,1,4.73-4.86,12.49,12.49,0,0,0,1.35-1.08,50.8,50.8,0,0,1,10.82-6.09c4.46-1.48,4.32-.67,6.89-.4A11.19,11.19,0,0,0,78,62.35a4.33,4.33,0,0,0,1.75,1.75c2.71,1.62,3.79,1,7.17-.4a29.34,29.34,0,0,0,7.84-4.19c1.21-1.08,2.57-2.3,2.57-3.92s-1.76-4.33-2.57-5.27a20.92,20.92,0,0,0-6.62-5.14c-1.36-.68-.82-.68-3.11-.54-8.25.67-16.63,3.92-23.93,7.57-.94.4-1.76.94-2.57,1.35-2.56,1.35-8,5.81-10,7.7a7.09,7.09,0,0,0-1,1l-3.91,3.92c-.41.41-.55.68-1,1.08-2.57,2.57-4.6,6.22-6.49,9.19-.4.68-.54.54-.27,1.49.68,3.92-.13,4.73,2.3,9.6.54,1.08,2.57,3.92,4.05,3.92Z"/><path class="cls-1" d="M64,108.57c-2.57,0-2.57-2.29-2.57-3.92a3.7,3.7,0,0,1,3.65-3.92c2,0,2.29-.4,1.89,2.17-.14.94-.14,1.62-.27,2.56-.27,1.49-.95,3-2.7,3Zm-12.3-3c0,11.08,10.27,13.52,17.84,11.08.54-.13,1.08-.4,1.62-.54V113a3.34,3.34,0,0,0-1.49.54c-3.65,1.22-8.92,1.49-11.76-1.21a7.92,7.92,0,0,1-1.75-2.44c-1.09-2.43-1.09-6.75.13-9a9,9,0,0,1,3.24-4.19,10.92,10.92,0,0,1,9.6-1,6.79,6.79,0,0,1,2.57,1.76l1.35,1.89c1,2.16,1.22,6.35-.13,8.38-.81,1.22-2,1.08-2.3-.4-.14-.81.27-6.63.27-8.52a2.45,2.45,0,0,1-1.08-.27c-.41-.13-.68-.13-1.22-.27-3.78-.68-8.24-.27-10.14,3.51-.81,1.63-.67,2.57-.67,4.33,0,5,6.08,7,9.46,4.46.54-.41.4-.54,1-.68.81,2.84,9,3,9-6.48,0-16.22-25.68-15-25.68,2.29Z"/><path class="cls-1" d="M58.09,91.14c.94-.27,1.76-1,3-1a21.29,21.29,0,0,1,.81-2.7l1.62-5.55.82-2.83,3.37-11.36a9.66,9.66,0,0,0,2.3.68c6.9,1.89,13.93,4.19,20.68,6.08a46.69,46.69,0,0,1,4.6,1.35l9.33,2.71c-.14.81-1.63,5.67-2,7l-6.08,20.82-12.57-3.65a42.08,42.08,0,0,0-4.33-1.22v2.57l15,4.46c2.44.68,3.65.68,4.46-2.43A26.35,26.35,0,0,1,100,103c.68-2.3,7-23.52,7-24.46,0-1.9-1.49-2.3-2.7-2.71s-2.84-.81-4.33-1.21L78.5,68.29c-1.35-.4-2.84-.81-4.33-1.21s-2.7-.81-4.19-1.22-3-1.08-4.19,0a2.81,2.81,0,0,0-.94,1.76c-.27.67-.41,1.35-.68,2.16L59.17,87A38.9,38.9,0,0,0,58,91.27Z"/><path class="cls-1" d="M81.47,91.14l9.46-4.33a12.35,12.35,0,0,1,1.36-.67,5.48,5.48,0,0,1,1.35-.55l6.76-3.1c1.08-.55,3.1-1.36,1.89-2.71-1-1.08-1.76-.13-3.11.54-3.52,1.49-8.65,4.19-11.76,5.54-.81.41-1.49.68-2.3,1.09A19.86,19.86,0,0,1,82.69,88L74.85,76.81c-.27-.41-.41-.68-.68-1.08l-3.65-5c-.94-.81-3,0-1.48,2.16a31.64,31.64,0,0,1,1.75,2.7l1.9,2.71a4.53,4.53,0,0,1,.81,1.35l8.24,11.89Z"/><path class="cls-1" d="M88,92c0,.67,4.87,10,5.68,11.62,1.21,2.43,2.84.81,2.7-.13,0-.41-4-8-4.73-9.47-.27-.67-.68-1.21-1-1.89-1.35-2.7-2.84-.67-2.84-.13Z"/><path class="cls-1" d="M67.68,89.51v.27a9.55,9.55,0,0,1,2.84.55c1,.4,1.9-.55,3.38-1.36A3.14,3.14,0,0,0,75,88.16c.54-.94-.4-2.57-2-1.62l-5.41,3Z"/></g></g></g></g></svg>