<svg xmlns="http://www.w3.org/2000/svg" viewBox="0 0 146.4 167.11"><defs><style>.cls-1{fill:#fff;}.cls-2{fill:none;}</style></defs><title>login_icon</title><g id="圖層_2" data-name="圖層 2"><g id="contact_iocn"><g id="border"><g id="border-2" data-name="border"><path class="cls-1" d="M73.1,164.11h0a19.94,19.94,0,0,1-11.1-3.2l-51.1-29.6A19.61,19.61,0,0,1,.2,111V53.11a19.46,19.46,0,0,1,10.7-20.3L62,3.21A19.94,19.94,0,0,1,73.1,0a23.43,23.43,0,0,1,10.4,2.5l50.8,29.2c.6.4,12,8.6,12,19V82l.1,31.3c0,10.4-11.4,18.6-11.9,19l-50.9,29.2A24.3,24.3,0,0,1,73.1,164.11ZM73.1,2a17.16,17.16,0,0,0-10,2.9L63,5,11.9,34.61a17.39,17.39,0,0,0-9.7,18.2v58.4c-.1.5-2.3,12,9.6,18.2L63,159.11A18.77,18.77,0,0,0,73,162a21.54,21.54,0,0,0,9.6-2.3l50.7-29.2s11-7.9,11-17.3V82l.1-31.3c0-9.4-11-17.2-11.1-17.3L82.6,4.21A22.07,22.07,0,0,0,73.1,2Z"/><path class="cls-1" d="M53,150a4,4,0,0,1,1.5,5.5h0a4,4,0,0,1-5.4,1.5h0l-28.6-16.5A4,4,0,0,1,19,135h0a4,4,0,0,1,5.5-1.5Z"/><path class="cls-1" d="M126.5,23.21a4,4,0,0,1,1.5,5.5h0a4,4,0,0,1-5.5,1.5h0L93.9,13.61a4,4,0,0,1-1.5-5.5h0a4,4,0,0,1,5.5-1.5Z"/><path class="cls-1" d="M73.2,152.31h0a16.6,16.6,0,0,1-9.4-2.7l-43.9-25.5A16.1,16.1,0,0,1,11.2,107V57.11A16,16,0,0,1,20,40l43.8-25.5a16.38,16.38,0,0,1,9.4-2.7,19.74,19.74,0,0,1,8.9,2.1L125.7,39c.4.3,10.2,7.3,10.2,16.1l-.1,27,.1,27c0,8.8-9.7,15.7-10.1,16L82,150.31A20.27,20.27,0,0,1,73.2,152.31Zm0-139.6a16.08,16.08,0,0,0-8.8,2.5L20.5,40.81c-10.6,5.5-8.4,15.7-8.3,16.2v50.2c-.1.4-2.3,10.6,8.2,16.1l43.9,25.5a16.17,16.17,0,0,0,8.8,2.6,18.88,18.88,0,0,0,8.4-2l43.7-25.1c.1,0,9.6-6.9,9.6-15.2l-.1-27,.1-27c0-8.3-9.6-15.2-9.7-15.2L81.5,14.71a20.25,20.25,0,0,0-8.3-2Z"/></g></g><circle class="cls-1" cx="72.81" cy="63.7" r="21.12"/><path class="cls-2" d="M73.43,153,33.89,130.18a39.64,39.64,0,0,0,79.09,0Z"/><path class="cls-1" d="M113,130.18c.06-.89.1-1.8.1-2.71a39.65,39.65,0,1,0-79.29,0c0,.91,0,1.82.1,2.71L73.43,153Z"/></g></g></svg>