<svg xmlns="http://www.w3.org/2000/svg" viewBox="0 0 146.38 164.08"><defs><style>.cls-1{fill:#fff;}</style></defs><title>timetable_icon</title><g id="圖層_2" data-name="圖層 2"><g id="timetable_icon"><g id="border"><g id="border-2" data-name="border"><path class="cls-1" d="M73.06,164.08h0a19.81,19.81,0,0,1-11.13-3.23L10.86,131.24A19.39,19.39,0,0,1,.21,111V53.13A19.41,19.41,0,0,1,10.9,32.82L62,3.23A19.81,19.81,0,0,1,73.09,0,24.38,24.38,0,0,1,83.54,2.47L134.38,31.7c.56.39,12,8.61,12,19L146.29,82l.09,31.33c0,10.4-11.45,18.62-11.93,19L83.59,161.58A24.47,24.47,0,0,1,73.06,164.08ZM73.09,2a18,18,0,0,0-10,2.87l-.1.06L11.87,34.57A17.42,17.42,0,0,0,2.19,52.84v58.4c-.1.49-2.28,12,9.64,18.24l51.25,29.73a18,18,0,0,0,10,2.87,22.49,22.49,0,0,0,9.6-2.27l50.71-29.16s11-7.92,11-17.28L144.29,82l.09-31.34c0-9.37-11-17.24-11.08-17.32L82.61,4.24A22.44,22.44,0,0,0,73.09,2Z"/><path class="cls-1" d="M53,150a4,4,0,0,1,1.48,5.46h0A4,4,0,0,1,49,157l0,0-28.6-16.54A4,4,0,0,1,19,135h0a4,4,0,0,1,5.46-1.46Z"/><path class="cls-1" d="M126.47,23.17a4,4,0,0,1,1.47,5.46h0a4,4,0,0,1-5.46,1.48h0L93.89,13.6a4,4,0,0,1-1.46-5.46h0a4,4,0,0,1,5.46-1.47Z"/><path class="cls-1" d="M73.17,152.34h0a16.36,16.36,0,0,1-9.37-2.74L20,124.1A16,16,0,0,1,11.21,107V57.11A16,16,0,0,1,20,40L63.76,14.45a16.47,16.47,0,0,1,9.36-2.71A20.58,20.58,0,0,1,82,13.83L125.73,39c.45.32,10.16,7.29,10.16,16.06l-.08,27,.08,27c0,8.77-9.69,15.74-10.1,16L82,150.23A20.67,20.67,0,0,1,73.17,152.34Zm0-139.6a15.74,15.74,0,0,0-8.81,2.54L20.46,40.84C9.92,46.35,12.1,56.52,12.2,57v50.18c-.1.43-2.28,10.6,8.23,16.1l43.92,25.54a15.7,15.7,0,0,0,8.82,2.57,19.76,19.76,0,0,0,8.41-2l43.67-25.13s9.64-6.94,9.64-15.19l-.08-27,.08-27c0-8.26-9.6-15.15-9.7-15.22L81.5,14.71a19.75,19.75,0,0,0-8.38-2Z"/></g></g><g id="body"><path class="cls-1" d="M46.22,55.69V45.15a2.5,2.5,0,1,1,5,0V55.69a2.5,2.5,0,1,1-5,0Zm42.46,2.64a2.57,2.57,0,0,0,2.5-2.64V45.15a2.5,2.5,0,1,0-5,0V55.69A2.57,2.57,0,0,0,88.68,58.33Zm27.48,47.47c0,11.65-9,21.1-20,21.1s-20-9.45-20-21.1,9-21.1,20-21.1S116.16,94.15,116.16,105.8Zm-5,0c0-8.72-6.72-15.82-15-15.82s-15,7.1-15,15.82,6.72,15.82,15,15.82S111.16,114.53,111.16,105.8ZM56.21,74.15h-10V84.7h10Zm-10,26.38h10V90h-10Zm15-15.83h10V74.15h-10Zm0,15.83h10V90h-10Zm-20,4.75V68.88h55V79.43h5V58.86a5.61,5.61,0,0,0-5.41-5.8H93.68v2.63a5,5,0,1,1-10,0V53.06h-30v2.63a5,5,0,1,1-10,0V53.06H41.64a5.62,5.62,0,0,0-5.42,5.8v46.42a5.63,5.63,0,0,0,5.42,5.8H71.2V105.8H41.64A.49.49,0,0,1,41.22,105.28Zm45-20.58V74.15h-10V84.7Zm17.49,21.1H96.18V97.89a2.5,2.5,0,1,0-5,0v10.55a2.57,2.57,0,0,0,2.5,2.64h10a2.64,2.64,0,0,0,0-5.28Z"/></g></g></g></svg>