<svg xmlns="http://www.w3.org/2000/svg" viewBox="0 0 134.97 79.7"><defs><style>.cls-1{fill:#34a5e9;}.cls-2{isolation:isolate;}.cls-3{fill:#9dc4e3;}</style></defs><title>資產 1</title><g id="圖層_2" data-name="圖層 2"><g id="圖層_1-2" data-name="圖層 1"><g id="購物車"><g id="購物車_確認購物車_" data-name="購物車(確認購物車)"><g id="logo"><path id="Combined-Shape" class="cls-1" d="M71.61,52.87l8,2.19L69.91,79.7,57.84,49.12l11.16,3,1.33,15.62Zm2.24-26.23,19.06-5.19L101.38,0H38.45L51.38,32.76,67,28.51,64.88,3.94H75.79Z" transform="translate(-0.72)"/><g id="GAMERS-PARADISE"><g id="text-1" class="cls-2"><g class="cls-2"><path class="cls-3" d="M4.42,41.75c0-.29.18-.44.54-.44s.53.14.53.42v1.83A1.25,1.25,0,0,1,5,44.65a1.87,1.87,0,0,1-.48.26A1.18,1.18,0,0,1,4,45H2.17a1.18,1.18,0,0,1-.48-.1,1.87,1.87,0,0,1-.48-.26,1.13,1.13,0,0,1-.36-.45,1.38,1.38,0,0,1-.13-.64V39.29a1.41,1.41,0,0,1,.13-.64,1.2,1.2,0,0,1,.36-.44h0A2.49,2.49,0,0,1,1.68,38a1.48,1.48,0,0,1,.49-.1H4a1.48,1.48,0,0,1,.49.1,2.49,2.49,0,0,1,.48.26h0a1.24,1.24,0,0,1,.48,1.08v.62c0,.28-.18.43-.53.43s-.53-.15-.53-.43v-.54A.73.73,0,0,0,4.19,39a.54.54,0,0,0-.46-.19H2.4a.55.55,0,0,0-.47.19.73.73,0,0,0-.14.42v4.12a.78.78,0,0,0,0,.22.49.49,0,0,0,.11.2.59.59,0,0,0,.19.14.74.74,0,0,0,.28.05H3.82a.51.51,0,0,0,.46-.19.71.71,0,0,0,.14-.42ZM4,41.65a.77.77,0,0,1-.22.53.78.78,0,0,1-.24.16.73.73,0,0,1-.3.06.75.75,0,0,1-.74-.75.69.69,0,0,1,.22-.52A.74.74,0,0,1,3.54,41a.78.78,0,0,1,.24.16.94.94,0,0,1,.16.23A.72.72,0,0,1,4,41.65Z" transform="translate(-0.72)"/><path class="cls-3" d="M12.89,38.74l-2,6h0a.71.71,0,0,1-.15.22.36.36,0,0,1-.23.08H10.4l-.14,0h0c-.34-.11-.47-.3-.38-.58l2-6.24A.63.63,0,0,1,12.1,38a.51.51,0,0,1,.27-.12l.29,0h.45l.3,0a.53.53,0,0,1,.25.14,1.12,1.12,0,0,1,.18.23l1,3.12q.53,1.57,1,3.12c.09.28,0,.47-.37.58l-.13,0h-.13A.36.36,0,0,1,15,45a.48.48,0,0,1-.15-.22h0Zm.67,4.1a.68.68,0,0,1-.69.69.66.66,0,0,1-.49-.2.73.73,0,0,1,0-1,.66.66,0,0,1,.49-.2.68.68,0,0,1,.69.69Z" transform="translate(-0.72)"/><path class="cls-3" d="M25.86,37.81a1.73,1.73,0,0,1,.63.13.48.48,0,0,1,.31.48v6.2c0,.29-.18.43-.53.43s-.53-.14-.53-.43V40l-.26,0-.36,1.17L24,44.74a.45.45,0,0,1-.49.31.66.66,0,0,1-.29-.09.43.43,0,0,1-.18-.24l-.64-2.1c-.14-.41-.27-.83-.4-1.26s-.28-.9-.43-1.43l-.26,0v4.65c0,.29-.18.43-.53.43s-.53-.14-.53-.43v-6.2a.48.48,0,0,1,.31-.48,1.51,1.51,0,0,1,.64-.12l.28,0a1.53,1.53,0,0,1,.27.11.72.72,0,0,1,.22.17.78.78,0,0,1,.16.24l1.41,4.81c.1-.35.21-.74.32-1.15s.23-.83.35-1.26.24-.85.36-1.26l.33-1.17a.66.66,0,0,1,.15-.22.76.76,0,0,1,.23-.17,1.19,1.19,0,0,1,.26-.11Z" transform="translate(-0.72)"/><path class="cls-3" d="M32.29,45a.53.53,0,0,1-.45-.17.66.66,0,0,1-.12-.38V38.39a.63.63,0,0,1,.12-.37.53.53,0,0,1,.45-.17h3.13c.23,0,.34.15.35.45s-.1.46-.35.46H32.79V44.1h2.8c.22,0,.33.15.34.44s-.1.47-.34.47Zm2.8-3.73a.69.69,0,0,1-.22.53.73.73,0,0,1-.54.22.7.7,0,0,1-.52-.22.72.72,0,0,1-.21-.53.72.72,0,0,1,.73-.74.76.76,0,0,1,.54.21A.71.71,0,0,1,35.09,41.28Z" transform="translate(-0.72)"/><path class="cls-3" d="M43.09,42H42.4a.29.29,0,0,1-.24-.12.54.54,0,0,1-.09-.33c0-.31.13-.46.38-.46h1.06a.51.51,0,0,0,.46-.19.68.68,0,0,0,.14-.41V39.37A.73.73,0,0,0,44,39a.54.54,0,0,0-.46-.19h-1.9v5.87c0,.29-.18.43-.53.43s-.54-.14-.54-.43V38.39a.48.48,0,0,1,.17-.43.75.75,0,0,1,.4-.11h2.62a1.48,1.48,0,0,1,.49.1,2.49,2.49,0,0,1,.48.26h0a1,1,0,0,1,.36.44,1.44,1.44,0,0,1,.13.64V40.6a1.25,1.25,0,0,1-.49,1.09,1.07,1.07,0,0,1-.21.13,1.71,1.71,0,0,1-.23.13l1.44,2.38a.54.54,0,0,1,.06.11.74.74,0,0,1,0,.12c0,.14-.1.28-.3.41h0a.69.69,0,0,1-.35.13.39.39,0,0,1-.34-.21h0Z" transform="translate(-0.72)"/><path class="cls-3" d="M53.67,40.89a1.25,1.25,0,0,1,.48.1,2.11,2.11,0,0,1,.49.26h0a1,1,0,0,1,.36.44,1.59,1.59,0,0,1,.13.64v1.23a1.28,1.28,0,0,1-.49,1.09,2.27,2.27,0,0,1-.48.26,1.25,1.25,0,0,1-.48.1h-2a1.25,1.25,0,0,1-.48-.1,2.27,2.27,0,0,1-.48-.26,1.27,1.27,0,0,1-.48-1.09V43c0-.29.17-.43.53-.43s.54.14.54.43v.52a.7.7,0,0,0,.13.42.53.53,0,0,0,.47.19h1.51a.53.53,0,0,0,.47-.19.7.7,0,0,0,.13-.42V42.4a.72.72,0,0,0-.13-.42.53.53,0,0,0-.47-.19H51.7a1.75,1.75,0,0,1-1-.34,1.32,1.32,0,0,1-.48-1.09V39.29a1.59,1.59,0,0,1,.12-.64,1.2,1.2,0,0,1,.36-.44h0a2.57,2.57,0,0,1,.49-.26,1.47,1.47,0,0,1,.48-.1h2a1.47,1.47,0,0,1,.48.1,2.57,2.57,0,0,1,.49.26h0a1,1,0,0,1,.36.44,1.59,1.59,0,0,1,.13.64v.53q0,.42-.54.42T54,39.82v-.45a.72.72,0,0,0-.13-.42.56.56,0,0,0-.47-.19H51.93a.56.56,0,0,0-.47.19.72.72,0,0,0-.13.42v.91a.68.68,0,0,0,.13.42.53.53,0,0,0,.47.19Z" transform="translate(-0.72)"/><path class="cls-3" d="M68.47,42.35a.29.29,0,0,1-.24-.12.62.62,0,0,1-.08-.33c0-.3.12-.45.38-.45h1a.56.56,0,0,0,.47-.19.73.73,0,0,0,.14-.42V39.37A.73.73,0,0,0,70,39a.56.56,0,0,0-.47-.19H67.59v5.88c0,.29-.18.43-.54.43s-.52-.14-.52-.43V38.39a.48.48,0,0,1,.16-.43.72.72,0,0,1,.4-.11h2.62a1.47,1.47,0,0,1,.48.1,2.57,2.57,0,0,1,.49.26h0a1.2,1.2,0,0,1,.36.44,1.59,1.59,0,0,1,.12.64v1.62A1.27,1.27,0,0,1,70.67,42a1.89,1.89,0,0,1-.48.26,1.36,1.36,0,0,1-.48.09Z" transform="translate(-0.72)"/><path class="cls-3" d="M78.53,38.74l-2,6h0a.48.48,0,0,1-.15.22.36.36,0,0,1-.23.08H76l-.13,0h0c-.34-.11-.46-.3-.37-.58l2-6.24a.54.54,0,0,1,.16-.24.48.48,0,0,1,.26-.12l.3,0h.45l.29,0a.49.49,0,0,1,.25.14,1.21,1.21,0,0,1,.19.23q.49,1.56,1,3.12t1,3.12c.08.28,0,.47-.38.58l-.13,0h-.13a.4.4,0,0,1-.23-.08.48.48,0,0,1-.15-.22h0Zm.68,4.1a.68.68,0,0,1-.2.49.66.66,0,0,1-.5.2.62.62,0,0,1-.48-.2.7.7,0,0,1,0-1,.62.62,0,0,1,.48-.2.66.66,0,0,1,.5.2A.68.68,0,0,1,79.21,42.84Z" transform="translate(-0.72)"/><path class="cls-3" d="M88.53,42h-.69a.29.29,0,0,1-.24-.12.54.54,0,0,1-.09-.33c0-.31.13-.46.38-.46H89a.51.51,0,0,0,.46-.19.68.68,0,0,0,.14-.41V39.37a.73.73,0,0,0-.14-.42.54.54,0,0,0-.46-.19h-1.9v5.87c0,.29-.18.43-.53.43s-.53-.14-.53-.43V38.39a.48.48,0,0,1,.16-.43.75.75,0,0,1,.4-.11h2.62a1.48,1.48,0,0,1,.49.1,2.23,2.23,0,0,1,.48.26h0a1,1,0,0,1,.36.44,1.44,1.44,0,0,1,.13.64V40.6a1.25,1.25,0,0,1-.49,1.09,1.07,1.07,0,0,1-.21.13,1.71,1.71,0,0,1-.23.13l1.44,2.38a.54.54,0,0,1,.06.11.3.3,0,0,1,0,.12c0,.14-.1.28-.3.41h0a.69.69,0,0,1-.35.13.39.39,0,0,1-.34-.21h0Z" transform="translate(-0.72)"/><path class="cls-3" d="M98.06,38.74l-2,6h0a.48.48,0,0,1-.15.22.36.36,0,0,1-.23.08h-.14l-.14,0h0c-.34-.11-.46-.3-.37-.58l2.05-6.24a.54.54,0,0,1,.16-.24.48.48,0,0,1,.26-.12l.3,0h.45l.29,0a.49.49,0,0,1,.25.14,1.77,1.77,0,0,1,.19.23q.49,1.56,1,3.12t1,3.12c.08.28,0,.47-.38.58l-.13,0h-.13a.4.4,0,0,1-.23-.08.48.48,0,0,1-.15-.22h0Zm.68,4.1a.68.68,0,0,1-.2.49.66.66,0,0,1-.5.2.62.62,0,0,1-.48-.2.7.7,0,0,1,0-1,.62.62,0,0,1,.48-.2.66.66,0,0,1,.5.2A.68.68,0,0,1,98.74,42.84Z" transform="translate(-0.72)"/><path class="cls-3" d="M108.69,44.1a.53.53,0,0,0,.47-.19.7.7,0,0,0,.13-.42V39.37a.72.72,0,0,0-.13-.42.56.56,0,0,0-.47-.19h-2.1v5.87a.38.38,0,0,1-.16.32.62.62,0,0,1-.37.11c-.36,0-.54-.14-.54-.43V38.39a.48.48,0,0,1,.17-.43.75.75,0,0,1,.4-.11h2.84a1.47,1.47,0,0,1,.48.1,2.57,2.57,0,0,1,.49.26h0a1,1,0,0,1,.36.44,1.59,1.59,0,0,1,.13.64v4.27a1.28,1.28,0,0,1-.49,1.09,2.27,2.27,0,0,1-.48.26,1.25,1.25,0,0,1-.48.1H107.4a.25.25,0,0,1-.23-.13.54.54,0,0,1-.09-.33q0-.45.39-.45Z" transform="translate(-0.72)"/><path class="cls-3" d="M116.48,44.62c0,.29-.18.43-.54.43s-.53-.14-.53-.43V38.24c0-.29.17-.43.53-.43s.54.14.54.43Z" transform="translate(-0.72)"/><path class="cls-3" d="M125,40.89a1.26,1.26,0,0,1,.49.1,1.87,1.87,0,0,1,.48.26h0a1.13,1.13,0,0,1,.36.44,1.59,1.59,0,0,1,.12.64v1.23a1.27,1.27,0,0,1-.48,1.09,2.11,2.11,0,0,1-.49.26,1.18,1.18,0,0,1-.48.1h-2a1.18,1.18,0,0,1-.48-.1,1.87,1.87,0,0,1-.48-.26,1.25,1.25,0,0,1-.49-1.09V43c0-.29.18-.43.53-.43s.54.14.54.43v.52a.71.71,0,0,0,.14.42.52.52,0,0,0,.47.19h1.51a.53.53,0,0,0,.47-.19.7.7,0,0,0,.13-.42V42.4a.72.72,0,0,0-.13-.42.53.53,0,0,0-.47-.19H123a1.75,1.75,0,0,1-1-.34,1.3,1.3,0,0,1-.49-1.09V39.29a1.44,1.44,0,0,1,.13-.64,1,1,0,0,1,.36-.44h0a2.49,2.49,0,0,1,.48-.26,1.48,1.48,0,0,1,.49-.1h2a1.48,1.48,0,0,1,.49.1,2.23,2.23,0,0,1,.48.26h0a1.2,1.2,0,0,1,.36.44,1.59,1.59,0,0,1,.12.64v.53q0,.42-.54.42c-.35,0-.53-.14-.53-.42v-.45a.72.72,0,0,0-.13-.42.56.56,0,0,0-.47-.19h-1.51a.55.55,0,0,0-.47.19.73.73,0,0,0-.14.42v.91a.68.68,0,0,0,.14.42.52.52,0,0,0,.47.19Z" transform="translate(-0.72)"/><path class="cls-3" d="M132.06,45a.5.5,0,0,1-.45-.17.66.66,0,0,1-.12-.38V38.39a.63.63,0,0,1,.12-.37.5.5,0,0,1,.45-.17h3.13c.22,0,.34.15.35.45s-.11.46-.35.46h-2.64V44.1h2.8c.22,0,.34.15.34.44s-.1.47-.34.47Zm2.79-3.73a.75.75,0,0,1-.75.75.67.67,0,0,1-.52-.22.69.69,0,0,1-.22-.53.71.71,0,0,1,.22-.53.7.7,0,0,1,.52-.21.72.72,0,0,1,.53.21A.71.71,0,0,1,134.85,41.28Z" transform="translate(-0.72)"/></g></g><g id="text-1-2" data-name="text-1" class="cls-2"><g class="cls-2"><path class="cls-3" d="M4.42,41.75c0-.29.18-.44.54-.44s.53.14.53.42v1.83A1.25,1.25,0,0,1,5,44.65a1.87,1.87,0,0,1-.48.26A1.18,1.18,0,0,1,4,45H2.17a1.18,1.18,0,0,1-.48-.1,1.87,1.87,0,0,1-.48-.26,1.13,1.13,0,0,1-.36-.45,1.38,1.38,0,0,1-.13-.64V39.29a1.41,1.41,0,0,1,.13-.64,1.2,1.2,0,0,1,.36-.44h0A2.49,2.49,0,0,1,1.68,38a1.48,1.48,0,0,1,.49-.1H4a1.48,1.48,0,0,1,.49.1,2.49,2.49,0,0,1,.48.26h0a1.24,1.24,0,0,1,.48,1.08v.62c0,.28-.18.43-.53.43s-.53-.15-.53-.43v-.54A.73.73,0,0,0,4.19,39a.54.54,0,0,0-.46-.19H2.4a.55.55,0,0,0-.47.19.73.73,0,0,0-.14.42v4.12a.78.78,0,0,0,0,.22.49.49,0,0,0,.11.2.59.59,0,0,0,.19.14.74.74,0,0,0,.28.05H3.82a.51.51,0,0,0,.46-.19.71.71,0,0,0,.14-.42ZM4,41.65a.77.77,0,0,1-.22.53.78.78,0,0,1-.24.16.73.73,0,0,1-.3.06.75.75,0,0,1-.74-.75.69.69,0,0,1,.22-.52A.74.74,0,0,1,3.54,41a.78.78,0,0,1,.24.16.94.94,0,0,1,.16.23A.72.72,0,0,1,4,41.65Z" transform="translate(-0.72)"/><path class="cls-3" d="M12.89,38.74l-2,6h0a.71.71,0,0,1-.15.22.36.36,0,0,1-.23.08H10.4l-.14,0h0c-.34-.11-.47-.3-.38-.58l2-6.24A.63.63,0,0,1,12.1,38a.51.51,0,0,1,.27-.12l.29,0h.45l.3,0a.53.53,0,0,1,.25.14,1.12,1.12,0,0,1,.18.23l1,3.12q.53,1.57,1,3.12c.09.28,0,.47-.37.58l-.13,0h-.13A.36.36,0,0,1,15,45a.48.48,0,0,1-.15-.22h0Zm.67,4.1a.68.68,0,0,1-.69.69.66.66,0,0,1-.49-.2.73.73,0,0,1,0-1,.66.66,0,0,1,.49-.2.68.68,0,0,1,.69.69Z" transform="translate(-0.72)"/><path class="cls-3" d="M25.86,37.81a1.73,1.73,0,0,1,.63.13.48.48,0,0,1,.31.48v6.2c0,.29-.18.43-.53.43s-.53-.14-.53-.43V40l-.26,0-.36,1.17L24,44.74a.45.45,0,0,1-.49.31.66.66,0,0,1-.29-.09.43.43,0,0,1-.18-.24l-.64-2.1c-.14-.41-.27-.83-.4-1.26s-.28-.9-.43-1.43l-.26,0v4.65c0,.29-.18.43-.53.43s-.53-.14-.53-.43v-6.2a.48.48,0,0,1,.31-.48,1.51,1.51,0,0,1,.64-.12l.28,0a1.53,1.53,0,0,1,.27.11.72.72,0,0,1,.22.17.78.78,0,0,1,.16.24l1.41,4.81c.1-.35.21-.74.32-1.15s.23-.83.35-1.26.24-.85.36-1.26l.33-1.17a.66.66,0,0,1,.15-.22.76.76,0,0,1,.23-.17,1.19,1.19,0,0,1,.26-.11Z" transform="translate(-0.72)"/><path class="cls-3" d="M32.29,45a.53.53,0,0,1-.45-.17.66.66,0,0,1-.12-.38V38.39a.63.63,0,0,1,.12-.37.53.53,0,0,1,.45-.17h3.13c.23,0,.34.15.35.45s-.1.46-.35.46H32.79V44.1h2.8c.22,0,.33.15.34.44s-.1.47-.34.47Zm2.8-3.73a.69.69,0,0,1-.22.53.73.73,0,0,1-.54.22.7.7,0,0,1-.52-.22.72.72,0,0,1-.21-.53.72.72,0,0,1,.73-.74.76.76,0,0,1,.54.21A.71.71,0,0,1,35.09,41.28Z" transform="translate(-0.72)"/><path class="cls-3" d="M43.09,42H42.4a.29.29,0,0,1-.24-.12.54.54,0,0,1-.09-.33c0-.31.13-.46.38-.46h1.06a.51.51,0,0,0,.46-.19.68.68,0,0,0,.14-.41V39.37A.73.73,0,0,0,44,39a.54.54,0,0,0-.46-.19h-1.9v5.87c0,.29-.18.43-.53.43s-.54-.14-.54-.43V38.39a.48.48,0,0,1,.17-.43.75.75,0,0,1,.4-.11h2.62a1.48,1.48,0,0,1,.49.1,2.49,2.49,0,0,1,.48.26h0a1,1,0,0,1,.36.44,1.44,1.44,0,0,1,.13.64V40.6a1.25,1.25,0,0,1-.49,1.09,1.07,1.07,0,0,1-.21.13,1.71,1.71,0,0,1-.23.13l1.44,2.38a.54.54,0,0,1,.06.11.74.74,0,0,1,0,.12c0,.14-.1.28-.3.41h0a.69.69,0,0,1-.35.13.39.39,0,0,1-.34-.21h0Z" transform="translate(-0.72)"/><path class="cls-3" d="M53.67,40.89a1.25,1.25,0,0,1,.48.1,2.11,2.11,0,0,1,.49.26h0a1,1,0,0,1,.36.44,1.59,1.59,0,0,1,.13.64v1.23a1.28,1.28,0,0,1-.49,1.09,2.27,2.27,0,0,1-.48.26,1.25,1.25,0,0,1-.48.1h-2a1.25,1.25,0,0,1-.48-.1,2.27,2.27,0,0,1-.48-.26,1.27,1.27,0,0,1-.48-1.09V43c0-.29.17-.43.53-.43s.54.14.54.43v.52a.7.7,0,0,0,.13.42.53.53,0,0,0,.47.19h1.51a.53.53,0,0,0,.47-.19.7.7,0,0,0,.13-.42V42.4a.72.72,0,0,0-.13-.42.53.53,0,0,0-.47-.19H51.7a1.75,1.75,0,0,1-1-.34,1.32,1.32,0,0,1-.48-1.09V39.29a1.59,1.59,0,0,1,.12-.64,1.2,1.2,0,0,1,.36-.44h0a2.57,2.57,0,0,1,.49-.26,1.47,1.47,0,0,1,.48-.1h2a1.47,1.47,0,0,1,.48.1,2.57,2.57,0,0,1,.49.26h0a1,1,0,0,1,.36.44,1.59,1.59,0,0,1,.13.64v.53q0,.42-.54.42T54,39.82v-.45a.72.72,0,0,0-.13-.42.56.56,0,0,0-.47-.19H51.93a.56.56,0,0,0-.47.19.72.72,0,0,0-.13.42v.91a.68.68,0,0,0,.13.42.53.53,0,0,0,.47.19Z" transform="translate(-0.72)"/><path class="cls-3" d="M68.47,42.35a.29.29,0,0,1-.24-.12.62.62,0,0,1-.08-.33c0-.3.12-.45.38-.45h1a.56.56,0,0,0,.47-.19.73.73,0,0,0,.14-.42V39.37A.73.73,0,0,0,70,39a.56.56,0,0,0-.47-.19H67.59v5.88c0,.29-.18.43-.54.43s-.52-.14-.52-.43V38.39a.48.48,0,0,1,.16-.43.72.72,0,0,1,.4-.11h2.62a1.47,1.47,0,0,1,.48.1,2.57,2.57,0,0,1,.49.26h0a1.2,1.2,0,0,1,.36.44,1.59,1.59,0,0,1,.12.64v1.62A1.27,1.27,0,0,1,70.67,42a1.89,1.89,0,0,1-.48.26,1.36,1.36,0,0,1-.48.09Z" transform="translate(-0.72)"/><path class="cls-3" d="M78.53,38.74l-2,6h0a.48.48,0,0,1-.15.22.36.36,0,0,1-.23.08H76l-.13,0h0c-.34-.11-.46-.3-.37-.58l2-6.24a.54.54,0,0,1,.16-.24.48.48,0,0,1,.26-.12l.3,0h.45l.29,0a.49.49,0,0,1,.25.14,1.21,1.21,0,0,1,.19.23q.49,1.56,1,3.12t1,3.12c.08.28,0,.47-.38.58l-.13,0h-.13a.4.4,0,0,1-.23-.08.48.48,0,0,1-.15-.22h0Zm.68,4.1a.68.68,0,0,1-.2.49.66.66,0,0,1-.5.2.62.62,0,0,1-.48-.2.7.7,0,0,1,0-1,.62.62,0,0,1,.48-.2.66.66,0,0,1,.5.2A.68.68,0,0,1,79.21,42.84Z" transform="translate(-0.72)"/><path class="cls-3" d="M88.53,42h-.69a.29.29,0,0,1-.24-.12.54.54,0,0,1-.09-.33c0-.31.13-.46.38-.46H89a.51.51,0,0,0,.46-.19.68.68,0,0,0,.14-.41V39.37a.73.73,0,0,0-.14-.42.54.54,0,0,0-.46-.19h-1.9v5.87c0,.29-.18.43-.53.43s-.53-.14-.53-.43V38.39a.48.48,0,0,1,.16-.43.75.75,0,0,1,.4-.11h2.62a1.48,1.48,0,0,1,.49.1,2.23,2.23,0,0,1,.48.26h0a1,1,0,0,1,.36.44,1.44,1.44,0,0,1,.13.64V40.6a1.25,1.25,0,0,1-.49,1.09,1.07,1.07,0,0,1-.21.13,1.71,1.71,0,0,1-.23.13l1.44,2.38a.54.54,0,0,1,.06.11.3.3,0,0,1,0,.12c0,.14-.1.28-.3.41h0a.69.69,0,0,1-.35.13.39.39,0,0,1-.34-.21h0Z" transform="translate(-0.72)"/><path class="cls-3" d="M98.06,38.74l-2,6h0a.48.48,0,0,1-.15.22.36.36,0,0,1-.23.08h-.14l-.14,0h0c-.34-.11-.46-.3-.37-.58l2.05-6.24a.54.54,0,0,1,.16-.24.48.48,0,0,1,.26-.12l.3,0h.45l.29,0a.49.49,0,0,1,.25.14,1.77,1.77,0,0,1,.19.23q.49,1.56,1,3.12t1,3.12c.08.28,0,.47-.38.58l-.13,0h-.13a.4.4,0,0,1-.23-.08.48.48,0,0,1-.15-.22h0Zm.68,4.1a.68.68,0,0,1-.2.49.66.66,0,0,1-.5.2.62.62,0,0,1-.48-.2.7.7,0,0,1,0-1,.62.62,0,0,1,.48-.2.66.66,0,0,1,.5.2A.68.68,0,0,1,98.74,42.84Z" transform="translate(-0.72)"/><path class="cls-3" d="M108.69,44.1a.53.53,0,0,0,.47-.19.7.7,0,0,0,.13-.42V39.37a.72.72,0,0,0-.13-.42.56.56,0,0,0-.47-.19h-2.1v5.87a.38.38,0,0,1-.16.32.62.62,0,0,1-.37.11c-.36,0-.54-.14-.54-.43V38.39a.48.48,0,0,1,.17-.43.75.75,0,0,1,.4-.11h2.84a1.47,1.47,0,0,1,.48.1,2.57,2.57,0,0,1,.49.26h0a1,1,0,0,1,.36.44,1.59,1.59,0,0,1,.13.64v4.27a1.28,1.28,0,0,1-.49,1.09,2.27,2.27,0,0,1-.48.26,1.25,1.25,0,0,1-.48.1H107.4a.25.25,0,0,1-.23-.13.54.54,0,0,1-.09-.33q0-.45.39-.45Z" transform="translate(-0.72)"/><path class="cls-3" d="M116.48,44.62c0,.29-.18.43-.54.43s-.53-.14-.53-.43V38.24c0-.29.17-.43.53-.43s.54.14.54.43Z" transform="translate(-0.72)"/><path class="cls-3" d="M125,40.89a1.26,1.26,0,0,1,.49.1,1.87,1.87,0,0,1,.48.26h0a1.13,1.13,0,0,1,.36.44,1.59,1.59,0,0,1,.12.64v1.23a1.27,1.27,0,0,1-.48,1.09,2.11,2.11,0,0,1-.49.26,1.18,1.18,0,0,1-.48.1h-2a1.18,1.18,0,0,1-.48-.1,1.87,1.87,0,0,1-.48-.26,1.25,1.25,0,0,1-.49-1.09V43c0-.29.18-.43.53-.43s.54.14.54.43v.52a.71.71,0,0,0,.14.42.52.52,0,0,0,.47.19h1.51a.53.53,0,0,0,.47-.19.7.7,0,0,0,.13-.42V42.4a.72.72,0,0,0-.13-.42.53.53,0,0,0-.47-.19H123a1.75,1.75,0,0,1-1-.34,1.3,1.3,0,0,1-.49-1.09V39.29a1.44,1.44,0,0,1,.13-.64,1,1,0,0,1,.36-.44h0a2.49,2.49,0,0,1,.48-.26,1.48,1.48,0,0,1,.49-.1h2a1.48,1.48,0,0,1,.49.1,2.23,2.23,0,0,1,.48.26h0a1.2,1.2,0,0,1,.36.44,1.59,1.59,0,0,1,.12.64v.53q0,.42-.54.42c-.35,0-.53-.14-.53-.42v-.45a.72.72,0,0,0-.13-.42.56.56,0,0,0-.47-.19h-1.51a.55.55,0,0,0-.47.19.73.73,0,0,0-.14.42v.91a.68.68,0,0,0,.14.42.52.52,0,0,0,.47.19Z" transform="translate(-0.72)"/><path class="cls-3" d="M132.06,45a.5.5,0,0,1-.45-.17.66.66,0,0,1-.12-.38V38.39a.63.63,0,0,1,.12-.37.5.5,0,0,1,.45-.17h3.13c.22,0,.34.15.35.45s-.11.46-.35.46h-2.64V44.1h2.8c.22,0,.34.15.34.44s-.1.47-.34.47Zm2.79-3.73a.75.75,0,0,1-.75.75.67.67,0,0,1-.52-.22.69.69,0,0,1-.22-.53.71.71,0,0,1,.22-.53.7.7,0,0,1,.52-.21.72.72,0,0,1,.53.21A.71.71,0,0,1,134.85,41.28Z" transform="translate(-0.72)"/></g></g></g></g></g></g></g></g></svg>