<svg xmlns="http://www.w3.org/2000/svg" viewBox="0 0 360.9 137.44"><defs><style>.cls-1,.cls-5{fill:none;}.cls-1{stroke:#9ac300;stroke-width:2px;}.cls-2{fill:#faff00;}.cls-3{fill:#ffff21;}.cls-4{fill:#c6ce01;}.cls-5{stroke:#d9ff00;}.cls-6,.cls-9{fill:#81fdff;}.cls-7{fill:#b19b21;}.cls-8{fill:#e51268;}.cls-9{opacity:0.14;isolation:isolate;}</style></defs><title>2-2tag03</title><g id="圖層_2" data-name="圖層 2"><g id="圖層_1-2" data-name="圖層 1"><g id="冒險館"><g id="主頁內頁_熱門影片_" data-name="主頁內頁（熱門影片）"><g id="坐上遊戲標籤"><polygon id="Polygon" class="cls-1" points="62.5 5.72 119 38.36 119 103.64 62.5 136.28 6 103.64 6 38.36 62.5 5.72"/><path id="Path-9" class="cls-2" d="M2,79H3.61a2,2,0,0,0,2-2V37.65L63,4.94V0L0,35.18V77H0A2,2,0,0,0,2,79Z"/><path id="Path-9-Copy-2" class="cls-2" d="M123,79h-1.61a2,2,0,0,1-2-2V37.65L62,4.94V0l63,35.18V77h0A2,2,0,0,1,123,79Z"/><rect id="Rectangle-13-Copy-2" class="cls-3" x="317" y="35" width="28" height="30"/><polygon id="Rectangle-13" class="cls-4" points="125 35 328 35 328 65 314.92 77 125 77 125 35"/><polygon id="Path-10" class="cls-5" points="121 104 348.22 104 360 85 293.24 85 288.75 91.74 204.03 91.74 197.86 97.26 121 97.26 121 104"/><g id="一堆方塊"><polygon id="Rectangle-8" class="cls-6" points="204.49 93.39 289.05 93.39 289.05 102 200.67 102 200.67 97.08 204.49 93.39"/><rect id="Rectangle-9" class="cls-7" x="121" y="98.31" width="77.18" height="3.69"/><polygon id="Rectangle-11" class="cls-8" points="302.74 86 307.1 86 297.76 101.51 292.78 101.51 302.74 86"/><polygon id="Rectangle-11-Copy-7" class="cls-8" points="296.52 86 300.87 86 291.54 101.51 291.54 93.76 296.52 86"/><polygon id="Rectangle-11-Copy" class="cls-8" points="310.21 86 314.56 86 305.23 101.51 300.25 101.51 310.21 86"/><polygon id="Rectangle-11-Copy-2" class="cls-8" points="317.68 86 322.03 86 312.08 101.51 307.72 101.51 317.68 86"/><polygon id="Rectangle-11-Copy-9" class="cls-8" points="323.9 86 328.26 86 318.3 101.51 313.94 101.51 323.9 86"/><polygon id="Rectangle-11-Copy-3" class="cls-9" points="330.13 86 334.48 86 325.15 101.51 320.17 101.51 330.13 86"/><polygon id="Rectangle-11-Copy-4" class="cls-9" points="336.35 86 340.71 86 331.37 101.51 326.39 101.51 336.35 86"/><polygon id="Rectangle-11-Copy-5" class="cls-9" points="348.8 86 353.15 86 343.19 101.51 338.84 101.51 348.8 86"/><polygon id="Rectangle-11-Copy-8" class="cls-9" points="342.57 86 346.93 86 336.97 101.51 332.62 101.51 342.57 86"/><polygon id="Rectangle-11-Copy-6" class="cls-9" points="355.02 86 359.38 86 348.8 101.51 345.06 101.51 355.02 86"/></g></g></g></g></g></g></svg>