<svg xmlns="http://www.w3.org/2000/svg" viewBox="0 0 400 580"><defs><style>.cls-1,.cls-20,.cls-21,.cls-23,.cls-25,.cls-4,.cls-7,.cls-8{fill:none;}.cls-2{opacity:0.45;}.cls-3{fill:#0064ff;}.cls-4{stroke:#fff;}.cls-5{opacity:0.77;}.cls-6{fill:#08486c;}.cls-7{stroke:#2061de;}.cls-7,.cls-8{stroke-width:3px;}.cls-8{stroke:#39aad2;}.cls-9{opacity:0.3;}.cls-10,.cls-12{fill:#01aae5;}.cls-11{fill:#58c7ee;}.cls-12{opacity:0.59;}.cls-12,.cls-15,.cls-16,.cls-17,.cls-18{isolation:isolate;}.cls-13{opacity:0.1;}.cls-14{opacity:0.1;}.cls-15,.cls-16,.cls-17,.cls-18,.cls-19{fill:#005b76;}.cls-15{opacity:0.1;}.cls-16{opacity:0.3;}.cls-17{opacity:0.5;}.cls-18{opacity:0.8;}.cls-20,.cls-21,.cls-23,.cls-25{stroke:#4dd1ff;}.cls-20{stroke-width:2.37px;}.cls-21{stroke-width:3.21px;}.cls-22{opacity:0.19;}.cls-23{stroke-width:2px;}.cls-24{fill:#4dd1ff;}.cls-25{stroke-width:1.1px;}.cls-26{opacity:0.45;}</style></defs><title>資產 1</title><g id="圖層_2" data-name="圖層 2"><g id="圖層_1-2" data-name="圖層 1"><g id="商品頁"><g id="Artboard-2"><g id="_1-4" data-name="1-4"><rect id="Rectangle-4" class="cls-1" width="400" height="580"/><g id="box-"><g id="Group-9"><g id="Rectangle-5" class="cls-2"><polygon id="path-1" class="cls-3" points="63 514 142 514 152 531 75.76 531 63 514"/><path class="cls-4" d="M64,514.5l12,16h75.12l-9.41-16Z"/></g><g id="Rectangle-4-2" data-name="Rectangle-4" class="cls-5"><polygon id="path-2" class="cls-6" points="373 83.69 373 288.86 353.16 309.55 353.16 322.05 353.16 352.65 373 363 373 508.26 344.11 538 156.08 538 140.13 515.11 59.48 515.11 28 491.45 28 68.17 59.48 38 253.11 38 276.83 62.57 342.81 62.57 373 83.69"/><path class="cls-7" d="M371.5,84.47l-29.16-20.4H276.19L252.48,39.5H60.08L29.5,68.81V490.7L60,513.61h80.93l16,22.89H343.47l28-28.85V363.91l-19.84-10.35V309l19.84-20.69Z"/></g><rect id="inner_box" data-name="inner box" class="cls-8" x="61.5" y="72.5" width="278" height="348"/><g id="科技外框04" class="cls-9"><rect id="Rectangle-path" class="cls-10" x="348.93" y="109.08" width="29.28" height="1" transform="translate(53 328.07) rotate(-51.9)"/><polygon id="Shape" class="cls-10" points="357.93 107.37 361.81 110.98 361.35 111.69 357.5 108.07 357.93 107.37"/><polygon id="Shape-2" data-name="Shape" class="cls-10" points="360.94 111.21 351.79 103.05 351.47 103.52 360.63 111.69 360.94 111.21"/><path id="Shape-3" data-name="Shape" class="cls-11" d="M363.93,265V131.4l2.93-4.19v96.62l6.14-8.74v-4.15l-4.07,5.81V131.18l4.07-5.81V114.14l-12.92,18.23v-6.28L373,108v-7.58l-15.5,22.09V158.3l3.23-4.55h0v9.89l-3.23,4.66v5.78l3.23-4.55h0v9.89L357.5,184V190l3.23-4.55h0v9.9l-3.23,4.62v5.81l3.23-4.55h0v10.07l-3.23,4.66v5.82l3.23-4.59h0v46.94l-3.23,4.62v5.38h0Zm-6.11,3.61,3.23-4.66v-47l-.45-.39-2.81,4v-4.62L361,211.3V201.08l-.45-.36-2.81,4v-4.62l3.23-4.66V185.27l-.45-.36-2.81,4v-4.62l3.23-4.62V169.45l-.46-.39-2.81,4v-4.62l3.23-4.62V153.5l-.45-.37-2.65,4V122.66l14.86-21.16v6.25l-12.92,18v7.48l12.92-18.06v10L368.61,131v86.65l4.07-5.78v3l-5.49,7.83V126.05l-3.62,5.13V264.77l-5.75,8.31Z"/><polygon id="Shape-4" data-name="Shape" class="cls-11" points="371.28 127.23 368.69 131.43 368.69 217.07 371.28 212.88 371.28 127.23"/><polygon id="Shape-5" data-name="Shape" class="cls-12" points="357.5 268.87 360.71 264.26 360.71 217.25 360.27 216.86 357.5 220.85 357.5 216.25 360.71 211.64 360.71 201.45 360.27 201.09 357.5 205.09 357.5 200.48 360.71 195.88 360.71 185.69 360.27 185.33 357.5 189.29 357.5 184.68 360.71 180.07 360.71 169.92 360.27 169.53 357.5 173.52 357.5 168.91 360.71 164.31 360.71 154.12 360.27 153.76 357.5 157.76 357.5 123.28 372.14 102.18 372.14 108.41 359.54 126.55 359.54 134 372.14 115.86 372.14 125.83 368.13 131.63 368.13 218.12 372.14 212.32 372.14 215.28 366.73 223.09 366.73 126.66 363.17 131.77 363.17 265.06 357.5 273.23 357.5 268.87"/><rect id="Rectangle-path-2" data-name="Rectangle-path" class="cls-11" x="371.26" y="99.57" width="1" height="1.73" transform="translate(63.3 330.96) rotate(-51.89)"/><rect id="Rectangle-path-3" data-name="Rectangle-path" class="cls-11" x="370.45" y="100.4" width="1" height="1" transform="translate(62.62 330.5) rotate(-51.89)"/><rect id="Rectangle-path-4" data-name="Rectangle-path" class="cls-11" x="370.44" y="101.26" width="1" height="1" transform="translate(61.42 330.12) rotate(-51.76)"/><rect id="Rectangle-path-5" data-name="Rectangle-path" class="cls-11" x="369.59" y="102.13" width="1" height="1" transform="translate(61.01 330.59) rotate(-51.91)"/><polygon id="Shape-6" data-name="Shape" class="cls-11" points="369.56 103.74 370.07 103.05 370.28 103.22 369.76 103.91 369.56 103.74"/><polygon id="Shape-7" data-name="Shape" class="cls-11" points="368.69 104.52 369.21 103.91 369.56 104.17 369.04 104.78 368.69 104.52"/><polygon id="Shape-8" data-name="Shape" class="cls-11" points="367.83 105.3 368.25 104.78 368.69 105.11 368.28 105.64 367.83 105.3"/><rect id="Rectangle-path-6" data-name="Rectangle-path" class="cls-11" x="367" y="105.56" width="1" height="1" transform="translate(58.02 330.84) rotate(-52.09)"/><rect id="Rectangle-path-7" data-name="Rectangle-path" class="cls-11" x="366.14" y="106.44" width="1" height="1" transform="translate(56.21 329.42) rotate(-51.89)"/><polygon id="Shape-9" data-name="Shape" class="cls-11" points="366.11 108.02 366.66 107.37 366.87 107.5 366.35 108.19 366.11 108.02"/><rect id="Rectangle-path-8" data-name="Rectangle-path" class="cls-11" x="365.23" y="106.47" width="1" height="1.73" transform="translate(55.56 328.86) rotate(-51.89)"/><polygon id="Shape-10" data-name="Shape" class="cls-11" points="364.39 108.74 364.79 108.23 365.25 108.55 364.85 109.09 364.39 108.74"/><rect id="Rectangle-path-9" data-name="Rectangle-path" class="cls-11" x="364.42" y="109.9" width="1" height="1" transform="translate(52.83 329.39) rotate(-51.89)"/><rect id="Rectangle-path-10" data-name="Rectangle-path" class="cls-11" x="363.56" y="110.77" width="1" height="1" transform="matrix(0.62, -0.79, 0.79, 0.62, 52.01, 329.32)"/><rect id="Rectangle-path-11" data-name="Rectangle-path" class="cls-11" x="362.65" y="110.79" width="1" height="1.73" transform="translate(50 326.78) rotate(-51.58)"/><rect id="Rectangle-path-12" data-name="Rectangle-path" class="cls-11" x="362.69" y="111.63" width="1" height="1" transform="translate(50.93 328.86) rotate(-51.92)"/><rect id="Rectangle-path-13" data-name="Rectangle-path" class="cls-11" x="361.83" y="113.33" width="1" height="1" transform="translate(49.89 329.76) rotate(-52.09)"/><polygon id="Shape-11" data-name="Shape" class="cls-11" points="361.81 113.96 362.25 113.41 362.67 113.73 362.22 114.28 361.81 113.96"/><rect id="Rectangle-path-14" data-name="Rectangle-path" class="cls-11" x="360.07" y="114.25" width="1" height="1.73" transform="translate(47.72 328.16) rotate(-51.96)"/><rect id="Rectangle-path-15" data-name="Rectangle-path" class="cls-11" x="360.11" y="115.93" width="1" height="1" transform="translate(47.26 329.51) rotate(-52.11)"/><rect id="Rectangle-path-16" data-name="Rectangle-path" class="cls-11" x="359.25" y="115.95" width="1" height="1" transform="translate(46.17 327.75) rotate(-51.91)"/><rect id="Rectangle-path-17" data-name="Rectangle-path" class="cls-11" x="358.39" y="116.79" width="1" height="1" transform="translate(45.77 328.27) rotate(-52.07)"/><polygon id="Shape-12" data-name="Shape" class="cls-11" points="358.36 118.39 358.88 117.73 359.08 117.91 358.57 118.56 358.36 118.39"/><polygon id="Shape-13" data-name="Shape" class="cls-11" points="357.5 119.14 357.94 118.6 358.36 118.91 357.92 119.46 357.5 119.14"/><polygon id="Shape-14" data-name="Shape" class="cls-11" points="356.64 120.3 356.96 119.46 357.5 120.3 357.18 121.19 356.64 120.3"/><polygon id="Shape-15" data-name="Shape" class="cls-10" points="349.98 180.57 349.98 181.66 350.61 181.66 350.61 179.93 348.89 179.93 348.89 180.57 349.98 180.57"/><polygon id="Shape-16" data-name="Shape" class="cls-10" points="343.46 181.66 343.46 180.57 344.58 180.57 344.58 179.93 342.86 179.93 342.86 181.66 343.46 181.66"/><polygon id="Shape-17" data-name="Shape" class="cls-10" points="344.58 189.43 344.58 188.79 343.46 188.79 343.46 187.7 342.86 187.7 342.86 189.43 344.58 189.43"/><polygon id="Shape-18" data-name="Shape" class="cls-10" points="348.89 188.79 348.89 189.43 350.61 189.43 350.61 187.7 349.98 187.7 349.98 188.79 348.89 188.79"/><path id="Shape-19" data-name="Shape" class="cls-10" d="M351.47,179.93H342V190.3h9.47Zm-9.21,10.37V180.22h8.95V190.3Z"/><polygon id="Shape-20" data-name="Shape" class="cls-10" points="351.69 179.68 351.69 179.93 357.5 171.5 357.28 171.29 351.47 179.68 351.69 179.68"/><polygon id="Shape-21" data-name="Shape" class="cls-10" points="349.98 196.09 349.98 197.21 350.61 197.21 350.61 195.48 348.89 195.48 348.89 196.09 349.98 196.09"/><polygon id="Shape-22" data-name="Shape" class="cls-10" points="343.46 197.21 343.46 196.09 344.58 196.09 344.58 195.48 342.86 195.48 342.86 197.21 343.46 197.21"/><polygon id="Shape-23" data-name="Shape" class="cls-10" points="344.58 204.98 344.58 204.34 343.46 204.34 343.46 203.25 342.86 203.25 342.86 204.98 344.58 204.98"/><polygon id="Shape-24" data-name="Shape" class="cls-10" points="348.89 204.34 348.89 204.98 350.61 204.98 350.61 203.25 349.98 203.25 349.98 204.34 348.89 204.34"/><path id="Shape-25" data-name="Shape" class="cls-10" d="M351.47,195.48H342v10.37h9.47Zm-9.21,10.08v-9.8h8.95v9.8Z"/><polygon id="Shape-26" data-name="Shape" class="cls-10" points="351.75 195.34 351.75 195.48 357.5 187.02 357.28 186.84 351.47 195.34 351.75 195.34"/><polygon id="Shape-27" data-name="Shape" class="cls-10" points="349.98 212.52 349.98 213.62 350.61 213.62 350.61 211.89 348.89 211.89 348.89 212.52 349.98 212.52"/><polygon id="Shape-28" data-name="Shape" class="cls-10" points="343.46 213.62 343.46 212.52 344.58 212.52 344.58 211.89 342.86 211.89 342.86 213.62 343.46 213.62"/><polygon id="Shape-29" data-name="Shape" class="cls-10" points="344.58 220.53 344.58 219.91 343.46 219.91 343.46 218.8 342.86 218.8 342.86 220.53 344.58 220.53"/><polygon id="Shape-30" data-name="Shape" class="cls-10" points="348.89 219.91 348.89 220.53 350.61 220.53 350.61 218.8 349.98 218.8 349.98 219.91 348.89 219.91"/><path id="Shape-31" data-name="Shape" class="cls-10" d="M351.47,211H342v10.36h9.47Zm-9.21,10v-9.58h8.95v9.76Z"/><polygon id="Shape-32" data-name="Shape" class="cls-10" points="351.69 210.81 351.69 211.03 357.5 202.6 357.28 202.39 351.47 210.81 351.69 210.81"/><polygon id="Shape-33" data-name="Shape" class="cls-10" points="349.98 228.07 349.98 229.17 350.61 229.17 350.61 227.44 348.89 227.44 348.89 228.07 349.98 228.07"/><polygon id="Shape-34" data-name="Shape" class="cls-10" points="343.46 229.17 343.46 228.07 344.58 228.07 344.58 227.44 342.86 227.44 342.86 229.17 343.46 229.17"/><polygon id="Shape-35" data-name="Shape" class="cls-10" points="344.58 236.08 344.58 235.45 343.46 235.45 343.46 234.35 342.86 234.35 342.86 236.08 344.58 236.08"/><polygon id="Shape-36" data-name="Shape" class="cls-10" points="348.89 235.45 348.89 236.08 350.61 236.08 350.61 234.35 349.98 234.35 349.98 235.45 348.89 235.45"/><path id="Shape-37" data-name="Shape" class="cls-10" d="M351.47,226.58H342v10.36h9.47Zm-9.21,10v-9.76h8.95v9.76Z"/><polygon id="Shape-38" data-name="Shape" class="cls-10" points="349.98 249.67 349.98 250.76 350.61 250.76 350.61 249.04 348.89 249.04 348.89 249.67 349.98 249.67"/><polygon id="Shape-39" data-name="Shape" class="cls-10" points="343.46 250.76 343.46 249.67 344.58 249.67 344.58 249.04 342.86 249.04 342.86 250.76 343.46 250.76"/><polygon id="Shape-40" data-name="Shape" class="cls-10" points="344.58 279.27 344.58 278.65 343.46 278.65 343.46 277.55 342.86 277.55 342.86 279.27 344.58 279.27"/><polygon id="Shape-41" data-name="Shape" class="cls-10" points="348.89 278.65 348.89 279.27 350.61 279.27 350.61 277.55 349.98 277.55 349.98 278.65 348.89 278.65"/><path id="Shape-42" data-name="Shape" class="cls-10" d="M351.47,248.17H342v31.1h9.47ZM342.26,279V248.5h8.95V279Z"/><polygon id="Shape-43" data-name="Shape" class="cls-10" points="351.75 226.44 351.75 226.58 357.5 218.15 357.28 217.94 351.47 226.44 351.75 226.44"/><polygon id="Shape-44" data-name="Shape" class="cls-10" points="351.84 280.14 357.5 271.71 357.29 271.5 351.47 280.14 351.84 280.14"/><path id="Shape-45" data-name="Shape" class="cls-11" d="M346,183.9a1,1,0,0,1-.58-1,1.13,1.13,0,0,1,.58-1,3.49,3.49,0,0,1,1.49-.3c1.6,0,2.23.6,2.23,1.33a1,1,0,0,1-.35.79,2.45,2.45,0,0,1-1.68.46A3.49,3.49,0,0,1,346,183.9Zm.4-1.56a.64.64,0,0,0-.47.65c0,.6.93.72,1.72.72s1.6-.27,1.6-.72-.31-.61-.78-.61h-1a3.32,3.32,0,0,0-1.09,0Z"/><polygon id="Shape-46" data-name="Shape" class="cls-11" points="345.83 213.65 345.83 214.32 348.44 214.32 348.44 213.62 348.89 213.62 348.89 214.76 345.83 214.76 345.83 215.35 345.44 215.35 345.44 213.65 345.83 213.65"/><polygon id="Shape-47" data-name="Shape" class="cls-11" points="345.83 216.29 345.83 217.24 348.44 217.24 348.44 216.21 348.89 216.21 348.89 217.82 345.83 217.82 345.83 218.8 345.44 218.8 345.44 216.42 345.83 216.29"/><polygon id="Shape-48" data-name="Shape" class="cls-11" points="345.83 230.06 345.83 230.74 348.44 230.74 348.44 230.03 348.89 230.03 348.89 231.18 345.83 231.18 345.83 231.76 345.44 231.76 345.44 230.06 345.83 230.06"/><path id="Shape-49" data-name="Shape" class="cls-11" d="M346,200.31a1,1,0,0,1-.59-1,1.12,1.12,0,0,1,.59-.95,3.56,3.56,0,0,1,1.48-.3c1.6,0,2.23.61,2.23,1.33a1.09,1.09,0,0,1-.35.79,2.4,2.4,0,0,1-1.68.46,3.32,3.32,0,0,1-1.68-.34Zm.39-1.56a.64.64,0,0,0-.47.65c0,.61.94.72,1.72.72s1.6-.27,1.6-.72-.31-.61-.78-.72a4,4,0,0,0-1,0,3.31,3.31,0,0,0-1.09.07Z"/><path id="Shape-50" data-name="Shape" class="cls-11" d="M346,234a1,1,0,0,1-.58-1,1.1,1.1,0,0,1,.58-1,3.19,3.19,0,0,1,1.49-.34c1.6,0,2.23.61,2.23,1.37a1,1,0,0,1-.35.75,2.4,2.4,0,0,1-1.68.46A3.9,3.9,0,0,1,346,234Zm.39-1.56a.57.57,0,0,0-.46.61c0,.61.93.72,1.72.72s1.6-.23,1.6-.72-.31-.61-.78-.68h-1A2.72,2.72,0,0,0,346.42,232.48Z"/><polygon id="Shape-51" data-name="Shape" class="cls-11" points="345.83 252.52 345.83 253.16 348.44 253.16 348.44 252.49 348.89 252.49 348.89 253.58 345.83 253.58 345.83 254.22 345.44 254.22 345.44 252.6 345.83 252.52"/><polygon id="Shape-52" data-name="Shape" class="cls-11" points="345.83 261.16 345.83 261.83 348.44 261.83 348.44 261.13 348.89 261.13 348.89 262.27 345.83 262.27 345.83 262.86 345.44 262.86 345.44 261.16 345.83 261.16"/><path id="Shape-53" data-name="Shape" class="cls-11" d="M346,257.45a.92.92,0,0,1-.58-.94,1.08,1.08,0,0,1,.58-.94,3.29,3.29,0,0,1,1.49-.49c1.6,0,2.23.61,2.23,1.36a1,1,0,0,1-.35.75,2.44,2.44,0,0,1-1.68.45,3.36,3.36,0,0,1-1.69-.19Zm.4-1.5a.56.56,0,0,0-.47.6c0,.6.93.72,1.72.72s1.6-.23,1.6-.72-.31-.6-.78-.68h-1a2.85,2.85,0,0,0-1.09.08Z"/><path id="Shape-54" data-name="Shape" class="cls-11" d="M346,259.72a1,1,0,0,1-.59-1A1.13,1.13,0,0,1,346,258a3.41,3.41,0,0,1,1.48-.3c1.6,0,2.23.6,2.23,1.32a1,1,0,0,1-.35.76,2.27,2.27,0,0,1-1.68.49,3.21,3.21,0,0,1-1.68-.53Zm.39-1.55a.64.64,0,0,0-.47.64c0,.61.94.72,1.72.72s1.6-.26,1.6-.72-.31-.6-.78-.72a5.35,5.35,0,0,0-1,0,3.31,3.31,0,0,0-1.09.08Z"/><polygon id="Shape-55" data-name="Shape" class="cls-11" points="345.83 262.94 345.83 263.86 348.44 263.86 348.44 262.86 348.89 262.86 348.89 264.41 345.83 264.41 345.83 265.45 345.44 265.45 345.44 263.14 345.83 262.94"/><polygon id="Shape-56" data-name="Shape" class="cls-11" points="345.83 268.16 345.83 268.75 348.44 268.75 348.44 268.04 348.89 268.04 348.89 269.18 345.83 269.18 345.83 269.77 345.44 269.77 345.44 268.16 345.83 268.16"/><polygon id="Shape-57" data-name="Shape" class="cls-11" points="345.83 274.12 345.83 274.79 348.44 274.79 348.44 274.09 348.89 274.09 348.89 275.23 345.83 275.23 345.83 275.82 345.44 275.82 345.44 274.12 345.83 274.12"/><path id="Shape-58" data-name="Shape" class="cls-11" d="M346,267.76a1,1,0,0,1-.58-1,1.12,1.12,0,0,1,.58-.95,3.65,3.65,0,0,1,1.49-.38c1.6,0,2.23.61,2.23,1.33a1,1,0,0,1-.35.75,2.32,2.32,0,0,1-1.68.5,3.49,3.49,0,0,1-1.69-.27Zm.39-1.55a.63.63,0,0,0-.46.64c0,.61.93.72,1.72.72s1.6-.26,1.6-.72-.31-.6-.78-.72a5.35,5.35,0,0,0-1,0,3.39,3.39,0,0,0-1.1.08Z"/><path id="Shape-59" data-name="Shape" class="cls-11" d="M346,273.76a1,1,0,0,1-.58-1,1.12,1.12,0,0,1,.58-1,3.5,3.5,0,0,1,1.49-.31c1.6,0,2.23.61,2.23,1.34a1,1,0,0,1-.35.77,2.26,2.26,0,0,1-1.68.46,3.29,3.29,0,0,1-1.69-.31Zm.39-1.57a.65.65,0,0,0-.46.65c0,.62.93.69,1.72.69s1.6-.23,1.6-.73-.31-.61-.78-.69a5.35,5.35,0,0,0-1,0,3.39,3.39,0,0,0-1.1.08Z"/><path id="Shape-60" data-name="Shape" class="cls-11" d="M346,187.19a1,1,0,0,1-.59-.79,1.11,1.11,0,0,1,.59-1,3.19,3.19,0,0,1,1.49-.34c1.6,0,2.23.61,2.23,1.37a1,1,0,0,1-.35.75,2.32,2.32,0,0,1-1.69.46,3.69,3.69,0,0,1-1.68-.5Zm.39-1.55a.62.62,0,0,0-.53.21.55.55,0,0,0-.09.55c0,.6.94.72,1.72.72s1.6-.23,1.6-.72-.31-.61-.78-.68h-1A2.69,2.69,0,0,0,346.42,185.64Z"/><polygon id="Shape-61" data-name="Shape" class="cls-11" points="345.83 200.72 345.83 201.38 348.44 201.38 348.44 200.66 348.89 200.66 348.89 201.81 345.83 201.81 345.83 202.39 345.44 202.39 345.44 200.72 345.83 200.72"/></g><g id="科技外框06" class="cls-13"><polygon id="Shape-62" data-name="Shape" class="cls-10" points="59.07 59.45 58.86 63 171.08 63 170.44 59.45 59.07 59.45"/><polygon id="Shape-63" data-name="Shape" class="cls-10" points="127.92 53.65 130.25 50.25 224.6 50.25 222.33 53.65 127.92 53.65"/><path id="Shape-64" data-name="Shape" class="cls-11" d="M224.32,50.5H134.67L136,48.79H238.78L241,46H128.57l-2.52,3.61H73.2l-2.5-3.54H58l5.32,7.6h91.46L150.15,59h-43.4l2.77,4H214.57ZM109.83,62.6l-2.22-3.23h42.72l5.32-6.17H63.52l-4.77-6.73H70.47L73,50h53.18l2.61-3.52H240.16l-1.58,2H135.8l-2,2.5H223.5L214.37,62.6Z"/><polygon id="Shape-65" data-name="Shape" class="cls-12" points="70.58 46 73.08 49.53 126.31 49.53 128.83 46 240.14 46 238.56 48 135.85 48 133.9 50.5 223.49 50.5 214.36 62.15 109.9 62.15 107.69 58.98 150.38 58.98 155.69 52.81 63.62 52.81 58.86 46 70.58 46"/></g><g id="裝飾02" class="cls-14"><rect id="Rectangle-path-18" data-name="Rectangle-path" class="cls-15" x="293.44" y="429" width="59.27" height="2.57"/><rect id="Rectangle-path-19" data-name="Rectangle-path" class="cls-16" x="293.44" y="432.43" width="59.27" height="2.57"/><rect id="Rectangle-path-20" data-name="Rectangle-path" class="cls-17" x="293.44" y="436.71" width="59.27" height="2.57"/><rect id="Rectangle-path-21" data-name="Rectangle-path" class="cls-18" x="293.44" y="440.14" width="59.27" height="2.57"/><rect id="Rectangle-path-22" data-name="Rectangle-path" class="cls-19" x="293.44" y="443.57" width="59.27" height="2.57"/><rect id="Rectangle-path-23" data-name="Rectangle-path" class="cls-19" x="293.44" y="447.86" width="59.27" height="2.57"/><rect id="Rectangle-path-24" data-name="Rectangle-path" class="cls-18" x="293.44" y="451.29" width="59.27" height="2.57"/><rect id="Rectangle-path-25" data-name="Rectangle-path" class="cls-17" x="293.44" y="454.71" width="59.27" height="2.57"/><rect id="Rectangle-path-26" data-name="Rectangle-path" class="cls-16" x="293.44" y="459" width="59.27" height="2.57"/><rect id="Rectangle-path-27" data-name="Rectangle-path" class="cls-15" x="293.44" y="462.43" width="59.27" height="2.57"/><path id="Shape-66" data-name="Shape" class="cls-20" d="M290,429v36"/><path id="Shape-67" data-name="Shape" class="cls-20" d="M356.14,429v36"/><polyline id="Shape-68" data-name="Shape" class="cls-21" points="293.44 439.29 304.29 448.26 318.75 448.26 327.09 455.57 341.55 442.62 351.85 442.62"/></g><g id="裝飾01" class="cls-22"><rect id="Rectangle-path-28" data-name="Rectangle-path" class="cls-23" x="36.74" y="96.5" width="16.76" height="253.84"/><rect id="Rectangle-path-29" data-name="Rectangle-path" class="cls-24" x="40.36" y="318.54" width="9.53" height="22.92"/><path id="Shape-69" data-name="Shape" class="cls-25" d="M41.41,298.78V105.38"/><path id="Shape-70" data-name="Shape" class="cls-25" d="M44.32,281.67V105.38"/></g><g id="Rectangle-6" class="cls-26"><polygon id="path-3" class="cls-3" points="353 309.93 369 293 369 362 353 352.89 353 309.93"/><path class="cls-4" d="M353.5,310.12V352.6l15,8.54V294.26Z"/></g></g></g></g></g></g></g></g></svg>