<?xml version="1.0" encoding="UTF-8"?>
<svg width="75px" height="27px" viewBox="0 0 75 27" version="1.1" xmlns="http://www.w3.org/2000/svg" xmlns:xlink="http://www.w3.org/1999/xlink">
    <!-- Generator: Sketch 47.1 (45422) - http://www.bohemiancoding.com/sketch -->
    <title>科技外框03</title>
    <desc>Created with Sketch.</desc>
    <defs></defs>
    <g id="首頁" stroke="none" stroke-width="1" fill="none" fill-rule="evenodd">
        <g id="首頁（最上面）" transform="translate(-1.000000, -306.000000)">
            <g id="類型標籤" transform="translate(0.000000, 296.000000)">
                <g id="首頁">
                    <g id="科技外框03" transform="translate(38.000000, 23.500000) scale(-1, 1) translate(-38.000000, -23.500000) translate(0.000000, 10.000000)">
                        <g id="科技外框科技框03" transform="translate(53.000000, 0.000000)" fill-rule="nonzero">
                            <polygon id="Shape" fill="#01AAE5" opacity="0.19" style="mix-blend-mode: screen;" points="18.4452718 19.5538117 19.0513775 19.5538117 19.0513775 24.6390135 20.2144453 24.6390135 20.2144453 17.4147982 20.2308265 17.4147982 20.2308265 19.7556054 21.3938943 19.7556054 21.3938943 15.4573991 22 15.4573991 22 12.3295964 22 12.3295964 22 7.1838565 20.820551 7.1838565 20.820551 9.20179372 20.8041698 9.20179372 20.8041698 4.60089686 19.641102 4.60089686 19.641102 8.43497758 19.6083395 8.43497758 19.6083395 3.75336323 19.018615 3.75336323 19.018615 0.766816143 17.8555473 0.766816143 17.8555473 4.96412556 17.2658228 4.96412556 17.2658228 7.99103139 16.6597171 7.99103139 16.6597171 9.70627803 16.6269546 9.70627803 16.6269546 6.8206278 16.0372301 6.8206278 16.0372301 1.55381166 14.8741623 1.55381166 14.8741623 7.60762332 14.8413999 7.60762332 14.8413999 6.05381166 14.2516754 6.05381166 14.2516754 2.05829596 13.0886076 2.05829596 13.0886076 8.95964126 12.4988831 8.95964126 12.4988831 10.2914798 12.4661206 10.2914798 12.4661206 5.46860987 11.8763961 5.46860987 11.8763961 4.23766816 10.7133284 4.23766816 10.7133284 6.35650224 10.6805659 6.35650224 10.6805659 2.72421525 9.51749814 2.72421525 9.51749814 8.03139013 9.48473567 8.03139013 9.48473567 5.81165919 8.89501117 5.81165919 8.89501117 4.96412556 7.73194341 4.96412556 7.73194341 6.8206278 7.14221891 6.8206278 7.14221891 8.17264574 7.10945644 8.17264574 7.10945644 0 5.94638868 0 5.94638868 9.10089686 5.93000745 9.10089686 5.93000745 7.60762332 5.32390171 7.60762332 5.32390171 6.6793722 4.16083395 6.6793722 4.16083395 8.87892377 3.57110946 8.87892377 3.57110946 9.38340807 3.53834698 9.38340807 3.53834698 8.03139013 2.94862249 8.03139013 2.94862249 6.05381166 1.78555473 6.05381166 1.78555473 8.17264574 1.75279226 8.17264574 1.75279226 2.72421525 0.589724497 2.72421525 0.589724497 7.82959641 0 7.82959641 0 12.3295964 0 12.3295964 0 20.5627803 1.16306776 20.5627803 1.16306776 17.0717489 1.19583023 17.0717489 1.19583023 18.2421525 1.78555473 18.2421525 1.78555473 19.7556054 2.37527923 19.7556054 2.37527923 23.7914798 3.53834698 23.7914798 3.53834698 20.8654709 4.12807148 20.8654709 4.12807148 19.9573991 4.73417722 19.9573991 4.73417722 16.5067265 4.76693969 16.5067265 4.76693969 19.5134529 5.93000745 19.5134529 5.93000745 18.544843 6.51973194 18.544843 6.51973194 17.4147982 6.55249442 17.4147982 6.55249442 19.7556054 7.71556217 19.7556054 7.71556217 15.7600897 7.73194341 15.7600897 7.73194341 27 8.89501117 27 8.89501117 18.544843 9.48473567 18.544843 9.48473567 16.4058296 9.51749814 16.4058296 9.51749814 20.1793722 10.6805659 20.1793722 10.6805659 18.2421525 10.7133284 18.2421525 10.7133284 19.9573991 11.8763961 19.9573991 11.8763961 19.7556054 12.4661206 19.7556054 12.4661206 16.2443946 12.4988831 16.2443946 12.4988831 17.2533632 13.0886076 17.2533632 13.0886076 18.544843 13.6947133 18.544843 13.6947133 21.8542601 14.8413999 21.8542601 14.8413999 18.3834081 15.4475056 18.3834081 15.4475056 17.4147982 16.0372301 17.4147982 16.0372301 15.7600897 16.6269546 15.7600897 16.6269546 15.0941704 16.6597171 15.0941704 16.6597171 22.8430493 17.8227848 22.8430493 17.8227848 18.2421525 18.4125093 18.2421525 18.4125093 16.6076233 18.4452718 16.6076233"></polygon>
                            <rect id="Rectangle-path" fill="#58C7EE" style="mix-blend-mode: screen;" x="5.7037037" y="9" width="1" height="2"></rect>
                            <rect id="Rectangle-path" fill="#58C7EE" style="mix-blend-mode: screen;" x="3.25925926" y="10" width="1" height="2"></rect>
                            <rect id="Rectangle-path" fill="#58C7EE" style="mix-blend-mode: screen;" x="4.07407407" y="9" width="1" height="3"></rect>
                            <rect id="Rectangle-path" fill="#58C7EE" style="mix-blend-mode: screen;" x="19.5555556" y="9" width="1" height="3"></rect>
                            <rect id="Rectangle-path" fill="#58C7EE" style="mix-blend-mode: screen;" x="20.3703704" y="10" width="1" height="2"></rect>
                            <rect id="Rectangle-path" fill="#58C7EE" style="mix-blend-mode: screen;" x="13.037037" y="9" width="1" height="2"></rect>
                            <rect id="Rectangle-path" fill="#58C7EE" style="mix-blend-mode: screen;" x="12.2222222" y="11" width="1" height="1.08"></rect>
                            <rect id="Rectangle-path" fill="#58C7EE" style="mix-blend-mode: screen;" x="16.2962963" y="10" width="1" height="1.68"></rect>
                            <rect id="Rectangle-path" fill="#58C7EE" style="mix-blend-mode: screen;" x="8.14814815" y="5" width="1" height="6"></rect>
                            <rect id="Rectangle-path" fill="#58C7EE" style="mix-blend-mode: screen;" x="6.51851852" y="9" width="1" height="3"></rect>
                            <rect id="Rectangle-path" fill="#58C7EE" style="mix-blend-mode: screen;" x="7.33333333" y="7" width="1" height="5"></rect>
                            <rect id="Rectangle-path" fill="#58C7EE" style="mix-blend-mode: screen;" x="6.51851852" y="5" width="1" height="7"></rect>
                            <rect id="Rectangle-path" fill="#58C7EE" style="mix-blend-mode: screen;" x="8.96296296" y="6" width="1" height="6"></rect>
                            <rect id="Rectangle-path" fill="#58C7EE" style="mix-blend-mode: screen;" x="9.77777778" y="4" width="1" height="8"></rect>
                            <rect id="Rectangle-path" fill="#58C7EE" style="mix-blend-mode: screen;" x="8.96296296" y="8" width="1" height="3"></rect>
                            <rect id="Rectangle-path" fill="#58C7EE" style="mix-blend-mode: screen;" x="10.5925926" y="7" width="1" height="5"></rect>
                            <rect id="Rectangle-path" fill="#58C7EE" style="mix-blend-mode: screen;" x="2.44444444" y="8" width="1" height="3"></rect>
                            <rect id="Rectangle-path" fill="#58C7EE" style="mix-blend-mode: screen;" x="1.62962963" y="9" width="1" height="3"></rect>
                            <rect id="Rectangle-path" fill="#58C7EE" style="mix-blend-mode: screen;" x="2.44444444" y="6" width="1" height="5"></rect>
                            <rect id="Rectangle-path" fill="#58C7EE" style="mix-blend-mode: screen;" x="0.814814815" y="5" width="1" height="7"></rect>
                            <rect id="Rectangle-path" fill="#58C7EE" style="mix-blend-mode: screen;" x="4.88888889" y="8" width="1" height="4"></rect>
                            <rect id="Rectangle-path" fill="#58C7EE" style="mix-blend-mode: screen;" x="4.88888889" y="7" width="1" height="5"></rect>
                            <rect id="Rectangle-path" fill="#58C7EE" style="mix-blend-mode: screen;" x="18.7407407" y="4" width="1" height="8"></rect>
                            <rect id="Rectangle-path" fill="#58C7EE" style="mix-blend-mode: screen;" x="17.9259259" y="4" width="1" height="8"></rect>
                            <rect id="Rectangle-path" fill="#58C7EE" style="mix-blend-mode: screen;" x="17.1111111" y="8" width="1" height="3"></rect>
                            <rect id="Rectangle-path" fill="#58C7EE" style="mix-blend-mode: screen;" x="17.9259259" y="5" width="1" height="6"></rect>
                            <rect id="Rectangle-path" fill="#58C7EE" style="mix-blend-mode: screen;" x="0" y="8" width="1" height="4"></rect>
                            <rect id="Rectangle-path" fill="#58C7EE" style="mix-blend-mode: screen;" x="19.5555556" y="5" width="1" height="7"></rect>
                            <rect id="Rectangle-path" fill="#58C7EE" style="mix-blend-mode: screen;" x="21.1851852" y="8" width="1" height="4"></rect>
                            <rect id="Rectangle-path" fill="#58C7EE" style="mix-blend-mode: screen;" x="15.4814815" y="5" width="1" height="7"></rect>
                            <rect id="Rectangle-path" fill="#58C7EE" style="mix-blend-mode: screen;" x="13.037037" y="5" width="1" height="6"></rect>
                            <rect id="Rectangle-path" fill="#58C7EE" style="mix-blend-mode: screen;" x="13.8518519" y="6" width="1" height="5"></rect>
                            <rect id="Rectangle-path" fill="#58C7EE" style="mix-blend-mode: screen;" x="11.4074074" y="6" width="1" height="6"></rect>
                            <rect id="Rectangle-path" fill="#58C7EE" style="mix-blend-mode: screen;" x="15.4814815" y="7" width="1" height="5"></rect>
                            <rect id="Rectangle-path" fill="#58C7EE" style="mix-blend-mode: screen;" x="14.6666667" y="8" width="1" height="4"></rect>
                            <rect id="Rectangle-path" fill="#58C7EE" style="mix-blend-mode: screen;" x="11.4074074" y="5" width="1" height="7"></rect>
                            <rect id="Rectangle-path" fill="#58C7EE" style="mix-blend-mode: screen;" x="14.6666667" y="13" width="1" height="5"></rect>
                            <rect id="Rectangle-path" fill="#58C7EE" style="mix-blend-mode: screen;" x="15.4814815" y="13" width="1" height="4"></rect>
                            <rect id="Rectangle-path" fill="#58C7EE" style="mix-blend-mode: screen;" x="15.4814815" y="13" width="1" height="2"></rect>
                            <rect id="Rectangle-path" fill="#58C7EE" style="mix-blend-mode: screen;" x="13.8518519" y="13" width="1" height="6"></rect>
                            <rect id="Rectangle-path" fill="#58C7EE" style="mix-blend-mode: screen;" x="13.037037" y="13" width="1" height="5"></rect>
                            <rect id="Rectangle-path" fill="#58C7EE" style="mix-blend-mode: screen;" x="16.2962963" y="13" width="1" height="1.8"></rect>
                            <rect id="Rectangle-path" fill="#58C7EE" style="mix-blend-mode: screen;" x="11.4074074" y="13" width="1" height="6"></rect>
                            <rect id="Rectangle-path" fill="#58C7EE" style="mix-blend-mode: screen;" x="12.2222222" y="13" width="1" height="3"></rect>
                            <rect id="Rectangle-path" fill="#58C7EE" style="mix-blend-mode: screen;" x="13.037037" y="13" width="1" height="4"></rect>
                            <rect id="Rectangle-path" fill="#58C7EE" style="mix-blend-mode: screen;" x="17.9259259" y="13" width="1" height="5"></rect>
                            <rect id="Rectangle-path" fill="#58C7EE" style="mix-blend-mode: screen;" x="17.1111111" y="13" width="1" height="8"></rect>
                            <rect id="Rectangle-path" fill="#58C7EE" style="mix-blend-mode: screen;" x="20.3703704" y="13" width="1" height="6"></rect>
                            <rect id="Rectangle-path" fill="#58C7EE" style="mix-blend-mode: screen;" x="21.1851852" y="13" width="1" height="2"></rect>
                            <rect id="Rectangle-path" fill="#58C7EE" style="mix-blend-mode: screen;" x="19.5555556" y="13" width="1" height="8"></rect>
                            <rect id="Rectangle-path" fill="#58C7EE" style="mix-blend-mode: screen;" x="19.5555556" y="13" width="1" height="4"></rect>
                            <rect id="Rectangle-path" fill="#58C7EE" style="mix-blend-mode: screen;" x="11.4074074" y="13" width="1" height="7"></rect>
                            <rect id="Rectangle-path" fill="#58C7EE" style="mix-blend-mode: screen;" x="18.7407407" y="13" width="1" height="6"></rect>
                            <rect id="Rectangle-path" fill="#58C7EE" style="mix-blend-mode: screen;" x="17.9259259" y="13" width="1" height="3"></rect>
                            <rect id="Rectangle-path" fill="#58C7EE" style="mix-blend-mode: screen;" x="4.88888889" y="13" width="1" height="3"></rect>
                            <rect id="Rectangle-path" fill="#58C7EE" style="mix-blend-mode: screen;" x="4.07407407" y="13" width="1" height="7"></rect>
                            <rect id="Rectangle-path" fill="#58C7EE" style="mix-blend-mode: screen;" x="4.88888889" y="13" width="1" height="6"></rect>
                            <rect id="Rectangle-path" fill="#58C7EE" style="mix-blend-mode: screen;" x="0" y="13" width="1" height="7"></rect>
                            <rect id="Rectangle-path" fill="#58C7EE" style="mix-blend-mode: screen;" x="10.5925926" y="13" width="1" height="5"></rect>
                            <rect id="Rectangle-path" fill="#58C7EE" style="mix-blend-mode: screen;" x="3.25925926" y="13" width="1" height="8"></rect>
                            <rect id="Rectangle-path" fill="#58C7EE" style="mix-blend-mode: screen;" x="2.44444444" y="13" width="1" height="6"></rect>
                            <rect id="Rectangle-path" fill="#58C7EE" style="mix-blend-mode: screen;" x="0.814814815" y="13" width="1" height="4"></rect>
                            <rect id="Rectangle-path" fill="#58C7EE" style="mix-blend-mode: screen;" x="1.62962963" y="13" width="1" height="5"></rect>
                            <rect id="Rectangle-path" fill="#58C7EE" style="mix-blend-mode: screen;" x="2.44444444" y="13" width="1" height="8"></rect>
                            <rect id="Rectangle-path" fill="#58C7EE" style="mix-blend-mode: screen;" x="8.96296296" y="13" width="1" height="5"></rect>
                            <rect id="Rectangle-path" fill="#58C7EE" style="mix-blend-mode: screen;" x="8.96296296" y="13" width="1" height="3"></rect>
                            <rect id="Rectangle-path" fill="#58C7EE" style="mix-blend-mode: screen;" x="9.77777778" y="13" width="1" height="7"></rect>
                            <rect id="Rectangle-path" fill="#58C7EE" style="mix-blend-mode: screen;" x="8.14814815" y="13" width="1" height="8"></rect>
                            <rect id="Rectangle-path" fill="#58C7EE" style="mix-blend-mode: screen;" x="7.33333333" y="13" width="1" height="2"></rect>
                            <rect id="Rectangle-path" fill="#58C7EE" style="mix-blend-mode: screen;" x="6.51851852" y="13" width="1" height="4"></rect>
                            <rect id="Rectangle-path" fill="#58C7EE" style="mix-blend-mode: screen;" x="6.51851852" y="13" width="1" height="6"></rect>
                            <rect id="Rectangle-path" fill="#58C7EE" style="mix-blend-mode: screen;" x="5.7037037" y="13" width="1" height="5"></rect>
                        </g>
                        <path d="M0.5,13 L53,13" id="Path-4" stroke="#58DCF7"></path>
                    </g>
                </g>
            </g>
        </g>
    </g>
</svg>