<svg xmlns="http://www.w3.org/2000/svg" viewBox="0 0 632.18 634.3"><defs><style>.cls-1,.cls-10,.cls-11,.cls-12,.cls-13,.cls-14,.cls-15,.cls-16,.cls-3,.cls-5,.cls-6,.cls-7,.cls-8,.cls-9{fill:#45ffa2;}.cls-1{opacity:0.2;}.cls-1,.cls-10,.cls-11,.cls-12,.cls-13,.cls-14,.cls-15,.cls-16,.cls-5,.cls-6,.cls-7,.cls-8,.cls-9{isolation:isolate;}.cls-2{opacity:0.3;}.cls-4{opacity:0.85;}.cls-5{opacity:0.9;}.cls-6{opacity:0.8;}.cls-7{opacity:0.7;}.cls-8{opacity:0.6;}.cls-9{opacity:0.5;}.cls-10{opacity:0.4;}.cls-11{opacity:0.1;}.cls-12{opacity:0.05;}.cls-13{opacity:0.3;}.cls-14{opacity:0.2;}.cls-15{opacity:0.15;}.cls-16{opacity:0.25;}</style></defs><title>資產 1</title><g id="圖層_2" data-name="圖層 2"><g id="圖層_1-2" data-name="圖層 1"><g id="冒險館"><g id="Artboard-2"><g id="科技外框17"><g id="框"><path id="Shape" class="cls-1" d="M316.1,634.3C141.81,634.3,0,492,0,317.15S141.81,0,316.1,0,632.18,142.26,632.18,317.09,490.49,634.3,316.1,634.3Zm0-631.76C143.22,2.54,2.65,143.69,2.65,317.15S143.3,631.76,316.1,631.76,629.55,490.63,629.55,317.15,489,2.54,316.1,2.54Z"/><g id="Group" class="cls-2"><path id="Shape-2" data-name="Shape" class="cls-3" d="M65,418.45l.78,2.06c.49,1.33,1.31,3.26,2.46,5.76s2.48,5.58,4.11,9.2,3.84,7.63,6.16,12.14A289.17,289.17,0,0,0,98.32,478.7a278.58,278.58,0,0,0,31.87,35.73A275.11,275.11,0,0,0,175,548.9,270.46,270.46,0,0,0,578.1,385.52c1.62-6.94,3.26-13.42,4.23-19.54.51-3,1.1-6,1.47-8.74s.7-5.5,1-8c.74-5.09.9-9.67,1.25-13.63s.43-7.34.48-10.07c.14-5.5.22-8.42.22-8.42h3.41s0,3-.21,8.52c0,2.77-.12,6.16-.49,10.26s-.51,8.64-1.25,13.77l-1,8.21c-.37,2.85-1,5.79-1.5,8.86-1,6.16-2.65,12.75-4.27,19.78A274.82,274.82,0,0,1,435,565a273.66,273.66,0,0,1-261.82-13.15,278.71,278.71,0,0,1-77.41-71.11,287.71,287.71,0,0,1-20.11-31.5c-2.46-4.55-4.49-8.72-6.34-12.31s-3.1-6.79-4.25-9.31-2.06-4.5-2.49-5.83l-.8-2.05Z"/><path id="Shape-3" data-name="Shape" class="cls-3" d="M45.45,319.24l.2,8.06c0,1.19,0,2.51.11,3.9s.2,2.83.33,4.33c.22,3,.47,6.16.71,9.46.89,6.38,1.46,12.83,2.45,17.57s1.41,7.94,1.41,7.94l-3.36.68-1.44-8.05c-1-4.8-1.58-11.33-2.46-17.79-.25-3.26-.5-6.52-.74-9.56,0-1.54-.23-3-.33-4.41s0-2.73-.1-3.94L42,319.22Z"/><path id="Shape-4" data-name="Shape" class="cls-3" d="M61.05,226s-1,3.06-2.58,7.66c-.82,2.28-1.56,5-2.38,7.9s-1.77,6-2.51,9.15c-1.46,6.28-3,12.56-3.7,17.34l-1.39,8-3.39-.51s.55-3.22,1.42-8,2.26-11.21,3.73-17.57c.74-3.18,1.73-6.3,2.55-9.25s1.58-5.71,2.4-8c1.58-4.64,2.61-7.73,2.61-7.73Z"/><path id="Shape-5" data-name="Shape" class="cls-3" d="M107.67,143.79s-.54.6-1.4,1.72l-3.59,4.6c-3.08,3.74-6.74,9-10.48,14.36-1.8,2.67-3.49,5.42-5.13,8l-2.34,3.67-2,3.37-4.11,7-3-1.66,4.11-7.08c.61-1,1.27-2.19,2-3.43l2.38-3.71c1.67-2.57,3.37-5.36,5.2-8,3.78-5.32,7.49-10.7,10.59-14.47l3.66-4.66c.86-1.13,1.4-1.74,1.4-1.74Z"/><path id="Shape-6" data-name="Shape" class="cls-3" d="M179.51,82.62l-1.93,1.11c-1.23.67-2.93,1.74-4.94,3l-6.95,4.52c-2.52,1.66-5.09,3.59-7.72,5.46l-3.9,2.75-3.65,2.87-6.49,5.11-6.16,5.27-2.26-2.58,6.16-5.34,6.55-5.17,3.72-2.91,3.94-2.83c2.67-1.89,5.28-3.84,7.82-5.52l7-4.52c2.05-1.33,3.77-2.42,5-3.1l1.93-1.13Z"/><path id="Shape-7" data-name="Shape" class="cls-3" d="M267.91,49.85l-2.17.39c-1.38.29-3.37.53-5.71,1.11-4.68,1.12-11,2.36-17.17,4.26-3.08.93-6.16,1.69-9.05,2.69L226,61c-2.28.74-4.1,1.46-5.46,2l-2.05.82-1.15-3.3,2.05-.84c1.31-.54,3.22-1.25,5.54-2l7.91-2.69c2.87-1,6.06-1.79,9.18-2.71,6.16-1.93,12.63-3.18,17.37-4.33,2.38-.58,4.41-.84,5.81-1.13l2.2-.39Z"/><path id="Shape-8" data-name="Shape" class="cls-3" d="M362.12,49.46l-2.18-.39c-1.37-.27-3.34-.6-5.75-.86-4.78-.62-11.14-1.52-17.57-1.89s-12.84-.64-17.66-.78h-8V42.11h2.24c1.44,0,3.47-.1,5.89,0,4.89.15,11.4.17,17.87.78s12.95,1.29,17.8,1.91c2.42.27,4.43.62,5.83.88l2.22.39Z"/><path id="Shape-9" data-name="Shape" class="cls-3" d="M570.5,223.94s-1.17-3-2.94-7.51-4.41-10.38-7-16.27c-1.4-2.91-2.92-5.77-4.27-8.45-.68-1.36-1.36-2.65-2.06-3.88l-1.91-3.41-4.1-7,2.93-1.78,4.11,7.08c.62,1.06,1.25,2.21,1.95,3.45l2.05,3.91c1.38,2.75,2.92,5.63,4.32,8.58,2.69,5.95,5.46,11.86,7.14,16.42s3,7.59,3,7.59Z"/><path id="Shape-10" data-name="Shape" class="cls-3" d="M586.78,317l-.2-8.06c0-4.82-.56-11.27-1.05-17.69-.21-3.22-.74-6.4-1.09-9.42s-.66-5.81-1.13-8.21c-.86-4.78-1.42-7.94-1.42-7.94l3.37-.66s.58,3.23,1.42,8c.49,2.4.74,5.25,1.17,8.21s.88,6.28,1.09,9.52c.51,6.52,1.06,13,1.06,17.93s.19,8.21.19,8.21Z"/><path id="Shape-11" data-name="Shape" class="cls-3" d="M450.81,81.53l-1.93-1.11c-1.24-.67-2.92-1.76-5.1-2.85-4.29-2-9.93-5.27-15.85-7.82s-11.85-5-16.32-6.83c-2.24-.92-4.11-1.54-5.49-2.05l-2.05-.72,1.11-3.24,2.05.72c1.34.45,3.29,1.08,5.55,2,4.54,1.78,10.63,4.1,16.42,6.91s11.71,5.73,16.06,7.92c2.2,1.09,3.9,2.2,5.16,2.88l2.05,1.13Z"/><path id="Shape-12" data-name="Shape" class="cls-3" d="M523.11,142.15,517.85,136c-1.54-1.86-3.55-3.83-5.63-6s-4.21-4.6-6.59-6.77l-6.84-6.55c-2.21-2-4.37-3.84-6.16-5.44l-4.41-3.81L486.47,106l2.16-2.67,1.77,1.38,4.45,3.88c1.85,1.62,4.11,3.45,6.28,5.52l6.92,6.61c2.41,2.21,4.54,4.67,6.68,6.85s4.1,4.25,5.69,6.16l5.31,6.15Z"/><path id="Shape-13" data-name="Shape" class="cls-3" d="M365.32,572.23l1-.18c.66-.14,1.66-.27,2.94-.58l11-2.56a276,276,0,0,0,38.24-13.11A260.22,260.22,0,0,0,569.08,372.67a268.21,268.21,0,0,0,5.52-40.2c.33-4.88.29-8.74.39-11.36s.11-4.11.11-4.11H582s0,1.44-.11,4.11,0,6.64-.41,11.67A277,277,0,0,1,575.8,374,267,267,0,0,1,421.3,562,279.93,279.93,0,0,1,382,575.58l-11.34,2.63c-1.31.32-2.34.45-3,.59l-1,.19Z"/><path id="Shape-14" data-name="Shape" class="cls-3" d="M69.17,238.47s-.48,1.31-1.17,3.84-1.81,6.15-3,11a276,276,0,0,0-6.76,40,265.93,265.93,0,0,0,7.17,89.08c.74,2.65,1.5,5.31,2.26,8l1.12,4.11,1.34,4,2.67,7.94,3.08,7.82a258.68,258.68,0,0,0,70.7,99.33A253.57,253.57,0,0,0,179,537.64c2.06,1.35,3.9,2.48,5.57,3.4s3,1.77,4.1,2.4l3.47,2.06-3.28,6-3.57-2L181,547c-1.68-1-3.61-2-5.7-3.48A266.76,266.76,0,0,1,69.47,416.65l-3.14-8c-.92-2.73-1.83-5.44-2.75-8.21l-1.38-4.11-1.15-4.1c-.78-2.75-1.56-5.48-2.32-8.21a273,273,0,0,1-7.31-91.42,279.62,279.62,0,0,1,6.94-41c1.26-4.88,2.41-8.66,3.13-11.26s1.19-4,1.19-4Z"/><path id="Shape-15" data-name="Shape" class="cls-3" d="M575.1,317s-.11-3.92-.27-10.77A262.84,262.84,0,0,0,572.18,278a283.45,283.45,0,0,0-9-39.11,256.9,256.9,0,0,0-17.64-42.46,261.44,261.44,0,0,0-51.73-68.35c-4.1-4.1-8.37-7.51-11.93-10.69s-7-5.54-9.65-7.69-4.95-3.58-6.42-4.66l-2.28-1.64,3.9-5.65,2.34,1.66c1.52,1.13,3.82,2.65,6.61,4.81s6.16,4.76,9.9,7.9,8,6.71,12.32,11a268,268,0,0,1,71.21,113.75A292.13,292.13,0,0,1,579,277c1.66,11.94,2.44,22,2.71,29S582,317,582,317Z"/><path id="Shape-16" data-name="Shape" class="cls-3" d="M562.63,317s0-3.73-.26-10.26-1-15.84-2.51-26.92a271.24,271.24,0,0,0-8.58-37.22,245.82,245.82,0,0,0-16.8-40.39,248.44,248.44,0,0,0-49.28-65.09c-4-4-8-7.14-11.35-10.26s-6.66-5.27-9.2-7.32-4.73-3.41-6.16-4.46l-2.18-1.54,3.9-5.66,2.24,1.6c1.44,1.07,3.65,2.52,6.28,4.58s5.88,4.53,9.45,7.53,7.62,6.38,11.68,10.44a255.39,255.39,0,0,1,50.6,66.9,252.27,252.27,0,0,1,17.27,41.51,278.53,278.53,0,0,1,8.83,38.27c1.58,11.39,2.34,20.95,2.58,27.66s.27,10.55.27,10.55Z"/><path id="Shape-17" data-name="Shape" class="cls-3" d="M87.34,409.36a208.22,208.22,0,0,0,9.09,20l2.51,4.93c.9,1.7,2,3.42,3,5.27l3.26,5.7,3.82,6c2.53,4.1,5.65,8.31,8.77,12.78,1.58,2.24,3.39,4.39,5.13,6.65l2.69,3.43c1,1.12,1.91,2.25,2.9,3.38a247.48,247.48,0,0,0,62.13,52.62,244.55,244.55,0,0,0,87.62,31.49A248.14,248.14,0,0,0,412.39,544.9,250.66,250.66,0,0,0,473.07,508c3.65-3.22,7.18-6.15,10.26-9s5.9-5.54,8.32-8.07l6.43-6.75c1.82-2.05,3.3-3.8,4.53-5.21l3.76-4.33,7,5.76-3.9,4.52c-1.27,1.44-2.79,3.3-4.7,5.38l-6.65,7c-2.51,2.63-5.49,5.32-8.61,8.35s-6.84,6-10.61,9.36a267.18,267.18,0,0,1-27.46,19.7A261.43,261.43,0,0,1,416,553.23a256.78,256.78,0,0,1-138.91,17.32,253.14,253.14,0,0,1-90.86-32.67,257,257,0,0,1-64.5-54.48l-3-3.51-2.77-3.55c-1.83-2.36-3.67-4.59-5.32-6.89-3.26-4.64-6.49-8.93-9.09-13.26-1.38-2.05-2.69-4.1-4-6.15s-2.32-4.11-3.38-5.91-2.18-3.7-3.1-5.48l-2.61-5.09A216.3,216.3,0,0,1,79,412.81Z"/><path id="Shape-18" data-name="Shape" class="cls-3" d="M126.23,159.24s-.41.47-1.07,1.34l-2.81,3.59-3.94,5.11-4.25,6c-3,4.1-5.53,8.35-7.6,11.49-1,1.56-1.83,2.91-2.36,3.88l-.87,1.5-16.65-9.81.92-1.62c.58-1,1.44-2.49,2.55-4.11,2.24-3.38,5-8.06,8.21-12.31l4.58-6.48,4.27-5.46,3-3.84c.72-.94,1.17-1.44,1.17-1.44Z"/><path id="Shape-19" data-name="Shape" class="cls-3" d="M177.11,112.74,172,116.38c-3.12,2.05-7,5.27-10.92,8.37s-7.6,6.52-10.48,8.92L146.09,138l-13.31-14,4.89-4.64c3.08-2.63,7-6.3,11.27-9.64s8.42-6.76,11.79-9l5.48-3.9Z"/><path id="Shape-20" data-name="Shape" class="cls-3" d="M238.77,82.17l-5.91,2c-3.55,1.23-8.21,3.18-12.81,5s-9.14,4.1-12.49,5.76L202,97.82l-8.93-17.17,6-3.08c3.6-1.85,8.56-4,13.45-6.15s10-4.11,13.84-5.38l6.37-2.18Z"/><path id="Shape-21" data-name="Shape" class="cls-3" d="M306.47,69.94h-1.72c-1.09,0-2.65.14-4.52.29-3.73.32-8.75.49-13.69,1.25l-7.27.92c-2.32.35-4.48.78-6.31,1.11L266.8,74.6l-3.84-19,6.64-1.19c2-.34,4.31-.82,6.79-1.17l7.87-.94c5.34-.8,10.72-1,14.74-1.37,2.05-.15,3.7-.29,4.89-.29h1.85Z"/><path id="Shape-22" data-name="Shape" class="cls-3" d="M374.93,76.94l-6.16-1.4c-3.63-1-8.58-1.64-13.49-2.59s-9.91-1.31-13.63-1.82l-6.16-.49L337,51.33l6.71.53c4,.55,9.37,1.09,14.68,2s10.66,1.75,14.56,2.77l6.57,1.52Z"/><path id="Shape-23" data-name="Shape" class="cls-3" d="M438.77,102.52l-5.42-3C430,97.82,425.61,95.4,421,93.35s-9.07-4.23-12.61-5.52l-5.81-2.3,6.8-18.14,6.26,2.49c3.8,1.39,8.67,3.73,13.6,6s9.61,4.86,13.24,6.67l5.83,3.36Z"/><path id="Shape-24" data-name="Shape" class="cls-3" d="M403,542.42l3-1.21,3.64-1.42,4.8-2.19,6-2.69,6.85-3.53,3.8-2,3.9-2.26c2.67-1.58,5.57-3.08,8.38-5a237.18,237.18,0,0,0,36.8-28.15,246.51,246.51,0,0,0,34.64-40.3,237.31,237.31,0,0,0,24.91-46.89,241.42,241.42,0,0,0,12.93-44.55,252.07,252.07,0,0,0,4-32.63c.2-7.94.32-12.48.32-12.48h2.18l-.33,12.6a257.07,257.07,0,0,1-4,32.84,244.92,244.92,0,0,1-13.06,44.94,239.89,239.89,0,0,1-25.19,47.34,250.18,250.18,0,0,1-34.91,40.65A241.08,241.08,0,0,1,444.56,524c-2.83,1.91-5.75,3.43-8.44,5l-3.94,2.27-3.82,2.06-6.94,3.57-6,2.73-4.87,2.19-3.66,1.44-3.05,1.21Z"/><path id="Shape-25" data-name="Shape" class="cls-3" d="M82.53,376s.21,1.13.8,3.16,1.44,5.05,2.51,8.86,2.73,8.35,4.6,13.55c1,2.56,2,5.29,3.22,8.2s2.51,5.77,3.94,8.89a245,245,0,0,0,23.43,40A236.32,236.32,0,0,0,156.66,498,243.66,243.66,0,0,0,200,528.69a232.87,232.87,0,0,0,42.46,18.47c3.18,1.15,6.37,1.87,9.32,2.77l4.33,1.23,4.11.94,7.52,1.75,6.44,1.15,5.2.94,3.86.47,3.22.41-.26,2.18-3.25-.41-3.9-.49-5.26-1L267.28,556l-7.6-1.74-4.11-1L251.2,552c-3-.92-6.16-1.64-9.43-2.79a235.89,235.89,0,0,1-42.83-18.47,249.29,249.29,0,0,1-43.74-31.13,238.37,238.37,0,0,1-35.93-39.76,245.21,245.21,0,0,1-23.66-40.27c-1.35-3.14-2.81-6.15-4-9s-2.24-5.69-3.24-8.21c-1.91-5.23-3.43-9.85-4.65-13.67s-2-6.87-2.52-8.95-.82-3.18-.82-3.18Z"/><path id="Shape-26" data-name="Shape" class="cls-3" d="M286.5,77.37l-3.23.41-3.86.47-5.19.94-6.45,1.15-7.52,1.75-4.1.94-4.34,1.23c-2.95.9-6.16,1.62-9.32,2.77A232.87,232.87,0,0,0,200,105.5a243.32,243.32,0,0,0-43.31,30.78A235.9,235.9,0,0,0,121,175.43a245.84,245.84,0,0,0-23.43,40c-1.37,3.12-2.81,6.05-3.94,8.92s-2.22,5.63-3.22,8.21c-1.87,5.19-3.39,9.77-4.6,13.55s-1.91,6.81-2.51,8.86-.8,3.16-.8,3.16l-2-.53a31,31,0,0,1,.82-3.18c.62-2.06,1.44-5.09,2.53-8.95s2.73-8.43,4.64-13.67c1-2.58,2-5.35,3.24-8.21s2.61-5.84,4-9a246.76,246.76,0,0,1,23.6-40.43,239.54,239.54,0,0,1,35.93-39.81,249.24,249.24,0,0,1,43.64-30.9A235.89,235.89,0,0,1,241.67,85c3.22-1.15,6.43-1.89,9.42-2.79L255.47,81l4.11-1,7.59-1.74,6.49-1.17,5.26-.94,3.9-.5,3.24-.41Z"/><path id="Shape-27" data-name="Shape" class="cls-3" d="M556.88,317s-.12-4.53-.32-12.47a252.07,252.07,0,0,0-3.95-32.63,241.42,241.42,0,0,0-12.93-44.55,238.25,238.25,0,0,0-25-46.91,247.34,247.34,0,0,0-34.56-40.22A238.33,238.33,0,0,0,443.43,112c-2.81-1.9-5.7-3.4-8.37-5l-3.9-2.26-3.8-2.05-6.86-3.53-6.06-2.61-4.8-2.19L406,93l-3-1.21.78-2,3.06,1.21,3.66,1.44,4.86,2.19,6,2.73,6.94,3.57,3.82,2,3.94,2.28c2.69,1.6,5.61,3.12,8.44,5a241.08,241.08,0,0,1,37.07,28.5,249.63,249.63,0,0,1,34.9,40.65,239.78,239.78,0,0,1,25.28,47.38,244.14,244.14,0,0,1,13.06,44.94,257.07,257.07,0,0,1,4,32.84l.33,12.59Z"/></g><g id="Group-2" data-name="Group" class="cls-4"><path id="Shape-28" data-name="Shape" class="cls-3" d="M141.05,388l.55,1.41c.33.92.9,2.27,1.7,4s1.88,3.91,2.93,6.44,2.69,5.33,4.38,8.48A199.69,199.69,0,0,0,164.48,430a195.14,195.14,0,0,0,22.13,25,192.59,192.59,0,0,0,31.27,24.07,188.72,188.72,0,0,0,270.34-82.63A192.33,192.33,0,0,0,499.48,365c1.15-4.86,2.29-9.38,3-13.66.35-2.12.77-4.14,1-6.11s.49-3.75.71-5.63c.53-3.54.64-6.75.88-9.51s.29-5.14.34-7.05c.1-3.75.13-5.87.13-5.87h3.14s0,2.08-.15,6a57.68,57.68,0,0,1-.34,7.17c-.34,2.81-.36,6.06-.88,9.66-.23,1.87-.47,3.75-.73,5.62s-.7,4.06-1.06,6.21c-.69,4.34-1.87,8.95-3,13.88a194.17,194.17,0,0,1-31.91,66.59,197.3,197.3,0,0,1-30.69,32.58,195.05,195.05,0,0,1-40.11,26.06,191.94,191.94,0,0,1-183.59-9.21,195.24,195.24,0,0,1-31.77-24.39,199.71,199.71,0,0,1-22.53-25.39,206.27,206.27,0,0,1-14.09-22.08c-1.73-3.21-3.16-6.12-4.45-8.63l-3-6.55c-.82-1.76-1.4-3.13-1.74-4.09l-.57-1.4Z"/><path id="Shape-29" data-name="Shape" class="cls-5" d="M127.41,318.65s.09,9,1,18c.62,4.47,1,9,1.71,12.27s1,5.63,1,5.63l-14.79,3s-.44-2.4-1.07-6-1.19-8.42-1.88-13.24c-.94-9.7-1-19.4-1-19.4Z"/><path id="Shape-30" data-name="Shape" class="cls-6" d="M138.31,253.53l-1.88,5.33c-.56,1.59-1.08,3.48-1.67,5.62s-1.24,4.19-1.74,6.38c-1,4.39-2.07,8.78-2.59,12.12s-1,5.62-1,5.62l-8.14-1.23s.39-2.33,1-5.8S124,273.5,125,268.91c.55-2.29,1.26-4.52,1.88-6.66s1.14-4.11,1.75-5.76l1.87-5.63Z"/><path id="Shape-31" data-name="Shape" class="cls-7" d="M174.71,199.3s-.36.41-.94,1.16l-2.46,3.14c-2.09,2.53-4.58,6.15-7.12,9.71-1.23,1.88-2.38,3.75-3.49,5.4s-2.14,3.36-2.92,4.81l-2.73,4.76-7.11-3.94,2.85-5c.83-1.52,1.88-3.21,3-5s2.37-3.75,3.76-5.63c2.64-3.75,5.23-7.5,7.51-10.14l2.57-3.27c.6-.79,1-1.22,1-1.22Z"/><path id="Shape-32" data-name="Shape" class="cls-8" d="M225.23,160.53a168.17,168.17,0,0,0-14.39,9.38l-2.61,1.87-2.44,1.88-4.34,3.41-4,3.53L189.89,172l4.32-3.75,4.6-3.62,2.61-2,2.75-2q7.4-5.37,15.3-10Z"/><path id="Shape-33" data-name="Shape" class="cls-9" d="M283.27,133l-1.5.28c-1,.19-2.33.36-3.94.75-3.23.79-7.51,1.63-11.83,3-8.56,2.32-16.89,5.62-16.89,5.62l-2.05-5.32a179.6,179.6,0,0,1,17.33-5.78c4.37-1.35,8.86-2.23,12.18-3,1.67-.39,3.1-.58,4.07-.79l1.54-.26Z"/><path id="Shape-34" data-name="Shape" class="cls-10" d="M348.61,130.22l-1.52-.27c-1-.18-2.35-.43-4-.62-3.34-.41-7.79-1.05-12.27-1.31s-9-.43-12.34-.54h-5.59v-3.14h5.71c3.41.1,8,.12,12.53.55s9.07.9,12.47,1.35c1.71.19,3.11.41,4.09.62l1.56.26Z"/><path id="Shape-35" data-name="Shape" class="cls-11" d="M494.11,252.08s-.82-2.08-2-5.23-3.08-7.26-4.92-11.37c-1-2-2-4-3-5.91s-1.87-3.63-2.72-5.08l-2.81-4.88,12.93-7.8,3,5.27c.92,1.58,1.88,3.45,2.95,5.5s2.16,4.18,3.21,6.38c2,4.42,4.05,8.85,5.31,12.26l2.21,5.63Z"/><path id="Shape-36" data-name="Shape" class="cls-12" d="M505.52,317.1s0-2.25-.13-5.63-.37-7.86-.73-12.36-1-8.95-1.56-12.29-1-5.62-1-5.62l7.39-1.43,1,5.78c.57,3.47,1.15,8.12,1.62,12.77s.75,9.38.77,12.85.13,5.85.13,5.85Z"/><path id="Shape-37" data-name="Shape" class="cls-13" d="M410.55,152.63l-1.33-.79c-.87-.47-2.05-1.22-3.55-2-3-1.51-7-3.76-11.09-5.46a179,179,0,0,0-16.69-6.66l1.88-5.63A184.06,184.06,0,0,1,397,138.9c4.26,1.88,8.33,4.07,11.43,5.63,1.56.79,2.78,1.57,3.75,2.06l1.39.79Z"/><path id="Shape-38" data-name="Shape" class="cls-14" d="M461.06,195l-3.76-4.26c-1.07-1.3-2.47-2.68-3.92-4.22s-2.94-3.21-4.6-4.73L444,177.18c-1.54-1.42-3.06-2.68-4.32-3.75l-3-2.64-1.22-1,7.19-8.87,1.27,1,3.27,2.83c1.33,1.19,2.94,2.52,4.58,4l5.07,4.84c1.74,1.61,3.32,3.41,4.88,5s3,3.09,4.14,4.48l3.91,4.5Z"/><path id="Shape-39" data-name="Shape" class="cls-3" d="M350.37,492.89s.94-.13,2.71-.52l7.62-1.77a187.28,187.28,0,0,0,26.27-9A178.83,178.83,0,0,0,490.58,355.44a184.5,184.5,0,0,0,3.76-27.69c.22-3.36.19-6,.26-7.82a24.63,24.63,0,0,0,0-2.78h6.25V320c0,1.88,0,4.62-.28,8.11a192.16,192.16,0,0,1-3.94,28.66,185.23,185.23,0,0,1-37.71,78.27,184.09,184.09,0,0,1-69.45,52.28,196.19,196.19,0,0,1-27.29,9.38l-7.88,1.88c-1.88.39-2.8.54-2.8.54Z"/><path id="Shape-40" data-name="Shape" class="cls-3" d="M146.38,263s-.32.9-.81,2.66-1.23,4.28-2.08,7.51a187.35,187.35,0,0,0-4.65,27.55,178.63,178.63,0,0,0,60.9,151.64A174.87,174.87,0,0,0,222,469c2.8,1.88,5.16,3.06,6.7,4l2.41,1.39-3,5.51-2.47-1.42c-1.6-1-4.06-2.22-6.95-4.15a181.8,181.8,0,0,1-23.18-17.2,184.67,184.67,0,0,1-50.4-70.85,187.26,187.26,0,0,1-7.5-22.62,187.81,187.81,0,0,1-5-63.47,192.51,192.51,0,0,1,4.82-28.53c.88-3.38,1.67-6,2.18-7.83s.82-2.73.82-2.73Z"/><path id="Shape-41" data-name="Shape" class="cls-3" d="M494.86,317.1v-3.19a89.57,89.57,0,0,0-.37-9,174.52,174.52,0,0,0-5-31.89,181.52,181.52,0,0,0-16.73-42.19,187.24,187.24,0,0,0-13.85-21.49,183.59,183.59,0,0,0-17.46-19.92,179.14,179.14,0,0,0-41.89-30.69,184.6,184.6,0,0,0-21.89-9.77A178.78,178.78,0,0,0,357,142.86a183.31,183.31,0,0,0-31.78-4.48l-9-.23h-3.19l-.12-6.28h3.31l9.38.22a194,194,0,0,1,32.89,4.63,178.85,178.85,0,0,1,43.94,16.44,185.6,185.6,0,0,1,93,118.43,182.23,182.23,0,0,1,5.16,32.92c.38,4,.28,7.19.4,9.38a24.86,24.86,0,0,1,0,3.3Z"/><path id="Shape-42" data-name="Shape" class="cls-7" d="M371.55,460l1.87-.77,2.29-.9,3-1.38c1.15-.51,2.42-1.07,3.76-1.71l4.35-2.23q2.34-1.15,4.88-2.69c1.69-1,3.51-1.87,5.29-3.15a151.55,151.55,0,0,0,23.3-17.91,156.46,156.46,0,0,0,22-25.55A148.73,148.73,0,0,0,458.11,374a152.19,152.19,0,0,0,8.2-28.14,162.48,162.48,0,0,0,2.5-20.63l.21-7.93h2l-.21,8a160.17,160.17,0,0,1-2.5,20.84A155.17,155.17,0,0,1,460,374.72a153.39,153.39,0,0,1-16,30.11,158.78,158.78,0,0,1-22.26,25.88,150.43,150.43,0,0,1-23.6,18.14c-1.87,1.24-3.66,2.2-5.36,3.21s-3.35,1.87-4.94,2.7L383.41,457l-3.76,1.74-3.09,1.39c-.9.38-1.69.68-2.33.92l-1.88.77Z"/><path id="Shape-43" data-name="Shape" class="cls-9" d="M168.4,354.5c.14.68.32,1.35.52,2,.36,1.29.91,3.19,1.58,5.62a154,154,0,0,0,22.3,44.78,150.59,150.59,0,0,0,22.52,25,156,156,0,0,0,27.46,19.45A146.6,146.6,0,0,0,269.68,463c2,.74,4,1.19,5.91,1.77l2.74.78,2.65.61,4.75,1.08,4.09.73,3.29.6,2.45.3,2.05.27-.11,2-2.07-.27-2.49-.31-3.33-.6-4.14-.74-4.83-1.12-2.66-.6-2.78-.79c-1.88-.58-3.94-1.05-6-1.78A148.82,148.82,0,0,1,242,453.09a156.4,156.4,0,0,1-27.88-19.7,151.05,151.05,0,0,1-22.89-25.3,155.9,155.9,0,0,1-22.53-45.37l-1.61-5.63a19.91,19.91,0,0,1-.53-2Z"/><path id="Shape-44" data-name="Shape" class="cls-13" d="M297.69,165.16l-2.05.26-2.46.3-3.28.6-4.1.74-4.74,1.08-2.65.6-2.74.79c-1.88.58-3.89,1-5.91,1.77a147.25,147.25,0,0,0-26.9,11.62,155.79,155.79,0,0,0-27.46,19.46,150.26,150.26,0,0,0-22.53,25,154.08,154.08,0,0,0-22.29,44.77c-.68,2.42-1.22,4.32-1.58,5.63-.21.66-.38,1.33-.53,2l-1.87-.49s.13-.71.52-2l1.62-5.63a155.93,155.93,0,0,1,22.52-45.38,151.11,151.11,0,0,1,22.9-25.3A156.15,156.15,0,0,1,242,181.26a147.55,147.55,0,0,1,27.25-11.8c2-.73,4.09-1.2,6-1.88l2.78-.79,2.66-.6,4.83-1.12,4.14-.73,3.33-.6,2.49-.32,2.05-.13Z"/><path id="Shape-45" data-name="Shape" class="cls-15" d="M469.09,317.1l-.2-7.94a164.54,164.54,0,0,0-2.5-20.63,153.19,153.19,0,0,0-8.2-28.14,149.56,149.56,0,0,0-15.83-29.73,156.88,156.88,0,0,0-22-25.55,151,151,0,0,0-23.29-17.91c-1.78-1.22-3.62-2.16-5.29-3.15s-3.33-1.88-4.88-2.68l-4.36-2.23c-1.37-.64-2.64-1.2-3.75-1.71l-3-1.39-2.29-.9-1.88-.77.71-1.87,1.88.76c.64.25,1.43.55,2.33.92l3.1,1.39,3.75,1.75,4.41,2.27c1.6.76,3.23,1.68,4.94,2.7a58.11,58.11,0,0,1,5.36,3.2,151,151,0,0,1,23.6,18.14A158.43,158.43,0,0,1,444,229.52a153.31,153.31,0,0,1,16,30.1,155.83,155.83,0,0,1,8.31,28.55,162.07,162.07,0,0,1,2.54,21l.2,8Z"/><path id="Shape-46" data-name="Shape" class="cls-3" d="M484.54,362.55,482.33,368c-1.54,3.41-3.76,8.29-6.74,13.88a168.7,168.7,0,0,1-27,36.91,166,166,0,0,1-34.73,27.5c-2.57,1.52-5,2.76-7.09,3.94s-4.06,1.87-5.63,2.74a29.54,29.54,0,0,1-3.63,1.67l-1.29.56s1.71-.94,3.36-2l3.26-2.1,1.28-.62a34.44,34.44,0,0,0,3.53-1.87c1.48-.89,3.38-1.88,5.46-3s4.41-2.65,6.89-4.3,5.22-3.43,7.92-5.63c1.37-1.05,2.8-2.1,4.22-3.22l4.28-3.57a160.41,160.41,0,0,0,17-16.88,167.66,167.66,0,0,0,25.15-38.21c2.78-5.72,4.67-10.69,6-14.18a47,47,0,0,0,1.88-5.63s-.47,2.09-1,4.17Zm5.33-30.93s-.11.54-.3,1.52-.45,2.43-.92,4.25-1,4-1.59,6.55-1.56,5.27-2.48,8.33a169.13,169.13,0,0,1-20,41.17c-2.18,3.47-4.73,6.7-7.1,9.92a101.63,101.63,0,0,1-7.5,8.95c-2.56,2.76-5.13,5.4-7.51,7.86s-4.9,4.58-7.15,6.53-4.36,3.75-6.29,5.14l-5,3.75-4.51,3,2.95-2.57a12.32,12.32,0,0,0,1.88-1.88l.88-.84,4.32-3.27,4.8-4c1.88-1.54,3.75-3.43,6-5.44a163.61,163.61,0,0,0,13.95-15c2.46-2.89,4.71-6.09,7.11-9.38A100.46,100.46,0,0,0,468,386,169.8,169.8,0,0,0,486,343.92c.8-3.08,1.44-5.93,2.06-8.44s.92-4.78,1.28-6.62.62-3.3.73-4.3.21-1.52.21-1.52v1.34a22.36,22.36,0,0,1-.14,2.92c-.09,2.2-.24,4.32-.24,4.32ZM473.75,392s-.27.47-.81,1.31-1.37,2.06-2.4,3.62-2.25,3.47-3.76,5.63-3.21,4.46-5.25,6.9l-3.12,3.85-3.51,3.93c-2.33,2.74-5.14,5.37-7.84,8.16A186.29,186.29,0,0,1,428.42,441a188.91,188.91,0,0,1-20.37,12.53c-3.41,1.61-6.6,3.36-9.81,4.63l-4.6,2-4.38,1.62c-2.76,1.1-5.38,1.87-7.67,2.6s-4.32,1.3-6,1.71l-3.87,1a13,13,0,0,1-1.37.32,9.86,9.86,0,0,0,1.15-.41l2.49-1,3.63-1.42s.48-.11,1.35-.4l3.75-1.2c1.65-.5,3.64-1.12,5.89-2s4.83-1.75,7.51-3l4.28-1.87,4.49-2.2c3.15-1.44,6.25-3.34,9.61-5.12a190.46,190.46,0,0,0,19.73-13.5,192,192,0,0,0,17.85-16.49c2.57-2.95,5.23-5.63,7.5-8.54l3.33-4.1,2.91-4c1.87-2.53,3.49-5,4.91-7.16s2.63-4.11,3.57-5.73l2.21-3.75c.51-.86.74-1.35.74-1.35s-.19.51-.51,1.24-.77,1.71-1.2,2.68Zm-16,27-1,1.14a40.65,40.65,0,0,1-3,3.17c-1.33,1.3-2.85,3-4.73,4.77s-4,3.75-6.41,5.87-5,4.31-7.93,6.45c-1.44,1.09-2.89,2.23-4.43,3.34L425.55,447a164.11,164.11,0,0,1-21.12,12,161.07,161.07,0,0,1-42.18,13.41c-5.85,1-10.77,1.44-14.19,1.87l-5.38.3,3.75-.69c1.88-.28,3.76-.77,3.76-.77l5.36-.58c3.38-.51,8.28-1.16,14.1-2.49a164.68,164.68,0,0,0,61.94-28.5l4.6-3.49,4.26-3.56c2.83-2.27,5.24-4.69,7.6-6.83s4.28-4.33,6.12-6.17,3.23-3.6,4.51-5,2.19-2.51,2.81-3.32l1-1.2s-1.11,1.88-2.33,3.58ZM488.65,317.1s-.26,1.87-.69,5.06-1.26,7.81-2.35,13.13a170.93,170.93,0,0,1-13.14,37.61,164.54,164.54,0,0,1-21.06,32.58c-1.61,2.07-3.28,3.75-4.69,5.35s-2.65,2.93-3.76,4l-3.34,3.35,2.41-3.07,1.65-2.12a11.86,11.86,0,0,0,.73-1l2.95-3.26c.95-1,2.1-2.31,3.3-3.75s2.7-3.19,4.15-5.14a163.27,163.27,0,0,0,18.54-30.77c1.5-3,2.61-6.09,3.91-9.11s2.21-6.14,3.28-9.12a81.49,81.49,0,0,0,2.55-8.74c.68-2.81,1.37-5.49,1.88-8,1-5,1.78-9.21,2.1-12.19s.66-4.69.66-4.69Zm-10.36,0s-.23,1.48-.54,3.75-.7,5.14-1.34,8l-.82,4.24c-.3,1.35-.64,2.6-.9,3.75l-.89,3.56.49-3.88c.11-1,.25-1.88.34-2.66s.11-1.22.11-1.22.73-3.76,1.48-7.66l1.13-7.76Zm3.45,0-1.2,8.4c-.47,2.48-1,5.37-1.63,8.46a94.89,94.89,0,0,1-2.46,9.53c-1,3.21-1.88,6.38-3,9.38-.52,1.44-1,2.85-1.5,4.18s-1.07,2.55-1.52,3.75c-.95,2.27-1.71,4.17-2.36,5.46l-1,2,1.26-3.75,1.05-3.76.73-1.76c.51-1.12,1.13-2.74,1.88-4.73a147.24,147.24,0,0,0,4.52-14.68c1.47-5.46,2.52-11.05,3.23-15.29s1-7.09,1-7.09Zm3.46,0-.53,3.75c-.3,2.33-.75,5.63-1.58,9.57a164.18,164.18,0,0,1-7.92,27.94,159.38,159.38,0,0,1-12.5,25.42c-1.87,3.32-3.75,5.91-5,7.77s-2,2.87-2,2.87l.6-1.07c.34-.66.79-1.52,1.22-2.39l1.88-3.47s.68-.93,1.69-2.66,2.63-4.13,4.2-7.2a155.19,155.19,0,0,0,10.5-23.35,158.41,158.41,0,0,0,6.81-25.22c.75-3.52,1.05-6.52,1.37-8.6l.47-3.31ZM413,462.39,407.73,465c-1.63.88-3.75,1.71-6.12,2.78s-5.08,2.12-8.05,3.22A167,167,0,0,1,349,481a179.52,179.52,0,0,1-23.88.23,172.33,172.33,0,0,1-20.36-2.65c-2.93-.56-5.63-1.09-7.92-1.74s-4.37-1-6-1.58l-5.16-1.57,3.76.67,2.62.49,1.2.15,5.24,1.31c1.67.49,3.76.79,6.08,1.3l3.76.73,4.22.6A166.8,166.8,0,0,0,333,480.59a180.94,180.94,0,0,0,23.84-1.39,167.71,167.71,0,0,0,44.11-12c2.91-1.26,5.63-2.42,7.88-3.62s4.37-2.12,6-3.08l5.12-2.87-3.47,2.48-2.38,1.7a10.65,10.65,0,0,1-1.11.68ZM263.07,483.33l-2.51-1.17c-1.62-.75-3.91-1.78-6.55-3.24A164,164,0,0,1,218.35,454c-2.22-1.88-3.91-3.75-5.13-4.88l-1.88-1.87.61-.74,2.12,2.12,2.45,2.44,3.35,3c2.42,2.29,5.44,4.67,8.67,7.34a108.27,108.27,0,0,0,10.62,7.61,160.72,160.72,0,0,0,21.59,12.18l4.22,2,3.34,1.37,2.91,1.18-4.09-1.17c-2.05-.54-4.06-1.2-4.06-1.2Zm-28.79-12.25s-.43-.26-1.16-.81l-3-2.23c-2.54-1.76-5.75-4.39-8.9-7-1.61-1.29-3.1-2.72-4.52-4s-2.78-2.46-3.85-3.57L209.28,450l.6-.73,4.52,4.49c2.84,2.57,6.61,6.07,10.67,9.24,1.87,1.67,4.07,3.17,6,4.62a62.81,62.81,0,0,0,5.44,3.75l3.93,2.61a16.85,16.85,0,0,0,1.52.95s-.49-.2-1.2-.56L238.17,473Zm203-28.31-4.67,3.57-5.54,3.75c-2.14,1.44-4.67,2.92-7.34,4.61a171,171,0,0,1-19.16,9.79c-3.55,1.64-7.36,3-11.15,4.41a96.82,96.82,0,0,1-11.75,3.6,161.75,161.75,0,0,1-43.88,5.63c-3,0-5.63-.22-8.11-.3s-4.51-.41-6.21-.54c-3.44-.27-5.37-.62-5.37-.62H318l3.87-.13,1.41.15c.92.11,2.27.17,4,.24s3.75.19,6.23.23,5.12,0,8.11-.1a161.25,161.25,0,0,0,43.54-7.76c4-1.17,7.75-2.74,11.56-4.17a94.72,94.72,0,0,0,10.93-4.95c3.41-1.8,6.81-3.58,10-5.33s6-3.65,8.68-5.38,5-3.41,7.11-5l5.35-4.09,4.5-3.75-2.94,3.09c-.72.79-1.5,1.52-2.07,2.07ZM324.85,491.54l-5.47-.47-2.87-.24-3.36-.45c-2.38-.38-5.08-.6-8-1.22a167.1,167.1,0,0,1-60.22-23.37,171.27,171.27,0,0,1-15.52-11.26l-3.25-2.62c-.94-.85-1.87-1.65-2.66-2.42-1.67-1.54-3.17-2.78-4.28-4l-3.59-3.58.6-.73L220,445c2.49,2.34,6.06,5.74,10.7,9.38a162.57,162.57,0,0,0,37.7,22.79,173.59,173.59,0,0,0,22.79,7.93c3.76.88,7.51,1.88,10.94,2.5l5.17,1,4.84.68,4.5.6,4.08.35c2.57.21,4.82.45,6.66.45l5.86.21-4.26.32-2.91.22A5.58,5.58,0,0,1,324.85,491.54ZM207,452.66l.6-.73,3.62,3.56c.88.92,1.88,1.78,2.55,2.4L215,459l-1.09-.79c-.64-.47-1.54-1.05-2.35-1.74l-3.36-2.63Zm178.52,24.81-1.47.47-4.18,1.15c-1.88.49-4,1.12-6.51,1.63s-5.35,1.28-8.51,1.73-6.47,1.1-10.08,1.46-7.37.67-11.26.94A167.45,167.45,0,0,1,276.18,474l-7.51-3.13-5.63-2.7a33.82,33.82,0,0,1-3.55-1.87l-1.24-.68,3.62,1.43,3.76,1.23,1.27.62c.83.4,2,1,3.63,1.65l5.63,2.42,7.64,2.76a167.2,167.2,0,0,0,43.54,8.07,165,165,0,0,0,24.25-.53c3.87-.45,7.66-.82,11.26-1.5,1.77-.3,3.51-.54,5.19-.9l4.82-1.05c3.11-.62,5.87-1.48,8.39-2.14s4.65-1.39,6.42-2l4.15-1.33,1.42-.56-1.18.62-2.66,1.22Zm-92,12.78-4-1c-2.52-.8-6.14-1.68-10.34-3.2a162.73,162.73,0,0,1-29.51-13.32,170.84,170.84,0,0,1-25.86-18.33c-3.18-2.9-5.86-5.21-7.51-7l-2.8-2.72.6-.73s1.07,1.09,3,3c.93,1,2.1,2.12,3.52,3.36s2.93,2.72,4.72,4.22a163.13,163.13,0,0,0,28.36,19.43,168.1,168.1,0,0,0,32.51,13.37,147.36,147.36,0,0,0,15.8,3.87s-2.12-.11-4.24-.36Zm62.24-3-1.52.18c-1,.1-2.44.34-4.32.44l-6.7.45c-2.59.09-5.5.09-8.67.15A172.46,172.46,0,0,1,289.37,482,170.1,170.1,0,0,1,267,473.85c-3.42-1.65-6.72-3.13-9.72-4.83-1.5-.83-3-1.58-4.4-2.41l-4-2.42A143.22,143.22,0,0,1,237,456.13l-3.19-2.4-1.09-.9,1,.65c.62.4,1.48.87,2.32,1.35l3.36,1.88,1.15.84,3.3,2.24c1.43.95,3.14,2.19,5.22,3.39s4.35,2.74,7,4.09l4.09,2.21c1.43.75,2.95,1.43,4.51,2.18,3.08,1.56,6.45,2.87,10,4.35a166.91,166.91,0,0,0,22.84,7.13A173.43,173.43,0,0,0,343,487.4l8.65-.58,6.68-.79c1.88-.19,3.29-.51,4.28-.66l1.52-.24L360,486.29Z"/><path id="Shape-47" data-name="Shape" class="cls-5" d="M231.28,170.88s-1,.55-2.86,1.67-4.5,2.8-7.78,5.1a165,165,0,0,0-25.31,21.5A172.79,172.79,0,0,0,180.94,216,183.69,183.69,0,0,0,167.65,237a169,169,0,0,0-17.48,50.8,172.44,172.44,0,0,0-.8,53.8A169.25,169.25,0,0,0,179,415.46c2.27,3.32,4.29,5.74,5.63,7.51l1.5,1.87.56.64-4,3.34-.56-.68c-.36-.45-.88-1.1-1.56-2-1.35-1.76-3.43-4.25-5.78-7.67a174.58,174.58,0,0,1-30.54-76.17,177.38,177.38,0,0,1,.83-55.43,174.07,174.07,0,0,1,18-52.32A194,194,0,0,1,176.77,213a177.33,177.33,0,0,1,14.85-17.42,166.56,166.56,0,0,1,26.07-22.15c3.38-2.39,6.19-4,8-5.27a22.27,22.27,0,0,1,2.93-1.73Z"/><path id="Shape-48" data-name="Shape" class="cls-8" d="M234.3,176.08s-1,.52-2.74,1.61-4.34,2.7-7.51,4.93a156.83,156.83,0,0,0-24.4,20.73,167.4,167.4,0,0,0-13.89,16.32,179.3,179.3,0,0,0-12.82,20.2,163.18,163.18,0,0,0-16.89,49,166.39,166.39,0,0,0-.77,51.9A163.26,163.26,0,0,0,183.85,412c2.17,3.21,4.14,5.53,5.4,7.18l1.47,1.88.52.62L187.36,425s-.17-.22-.55-.63l-1.5-1.88c-1.29-1.69-3.32-4.09-5.63-7.41a164.76,164.76,0,0,1-16.42-28.66,167.74,167.74,0,0,1-12.94-44.89,171.62,171.62,0,0,1,.81-53.48,167.69,167.69,0,0,1,17.38-50.51,186,186,0,0,1,13.14-20.82A175.88,175.88,0,0,1,196,199.79a161.5,161.5,0,0,1,25.17-21.37c3.27-2.3,6-3.9,7.74-5.08a20.64,20.64,0,0,1,2.83-1.65Z"/><path id="Shape-49" data-name="Shape" class="cls-14" d="M236.23,179.38s-.94.52-2.66,1.58-4.24,2.64-7.34,4.82A151.51,151.51,0,0,0,202.39,206,167.67,167.67,0,0,0,188.82,222a174.69,174.69,0,0,0-12.52,19.73,159.28,159.28,0,0,0-16.46,47.83,162.66,162.66,0,0,0-.75,50.65A159.21,159.21,0,0,0,187,409.72c2.14,3.13,4.06,5.4,5.29,7l1.41,1.87.53.6L192.12,421l-.52-.62-1.45-1.88c-1.24-1.63-3.21-3.94-5.36-7.12a162,162,0,0,1-28.37-70.76,164.57,164.57,0,0,1,.77-51.52,161.51,161.51,0,0,1,16.73-48.66,179.45,179.45,0,0,1,12.72-20.05,166.57,166.57,0,0,1,13.8-16.21,154.55,154.55,0,0,1,24.25-20.63c3.13-2.22,5.74-3.76,7.51-4.9a25.93,25.93,0,0,1,2.72-1.59Z"/><path id="Shape-50" data-name="Shape" class="cls-9" d="M438.08,214.4,435,210.82c-.9-1.11-2.09-2.27-3.31-3.57s-2.45-2.7-3.86-4l-4-3.75c-1.31-1.21-2.59-2.27-3.66-3.21l-2.57-2.25-1-.81,9.38-11.7,1.13.88,2.83,2.47c1.15,1,2.55,2.18,4,3.49l4.39,4.2c1.54,1.41,2.89,3,4.25,4.37s2.62,2.69,3.6,3.89l3.4,3.92Z"/><path id="Shape-51" data-name="Shape" class="cls-16" d="M465.88,262.44s-.67-1.77-1.72-4.41-2.59-6.1-4.13-9.57c-.81-1.7-1.71-3.37-2.5-5s-1.56-3.06-2.31-4.28l-2.34-4.1,12.87-7.75,2.57,4.48c.81,1.34,1.65,2.95,2.52,4.67s1.87,3.59,2.74,5.44c1.69,3.76,3.47,7.51,4.52,10.47s1.88,4.82,1.88,4.82Z"/><path id="Shape-52" data-name="Shape" class="cls-12" d="M475.49,317.1s0-1.88-.13-4.75-.34-6.64-.6-10.41-.86-7.5-1.31-10.33l-.85-4.67,14.76-2.84.92,5.11c.54,3.05,1,7.2,1.42,11.25s.68,8.27.68,11.4.13,5.18.13,5.18Z"/><path id="Shape-53" data-name="Shape" class="cls-9" d="M288.11,160.15l-1.27.23c-.81.17-2,.3-3.36.65-2.76.68-6.48,1.37-10.08,2.52a147.17,147.17,0,0,0-14.31,4.76l-5.42-14.05A162.63,162.63,0,0,1,269.34,149c4-1.22,8-2,11-2.74,1.5-.37,2.8-.52,3.75-.71l1.39-.25Z"/><path id="Shape-54" data-name="Shape" class="cls-16" d="M343.54,159.93q-7.46-1.32-15-1.88c-3.75-.37-7.5-.37-10.38-.47h-4.73l-.28-15h5.17a92.12,92.12,0,0,1,11.26.5c8.26.55,16.4,2,16.4,2Z"/><path id="Shape-55" data-name="Shape" class="cls-12" d="M395.57,178.76l-1.13-.66c-.71-.39-1.7-1-3-1.67-2.53-1.25-5.84-3.11-9.38-4.59a150.36,150.36,0,0,0-14-5.63L372.93,152a157.47,157.47,0,0,1,15.36,6.13c3.75,1.61,7.51,3.64,10.19,5,1.39.69,2.48,1.38,3.28,1.87l1.22.7Z"/></g></g></g></g></g></g></g></svg>