<svg xmlns="http://www.w3.org/2000/svg" viewBox="0 0 822.22 419"><defs><style>.cls-1,.cls-10,.cls-11,.cls-12,.cls-13,.cls-14,.cls-15,.cls-6,.cls-7,.cls-8,.cls-9{fill:none;}.cls-2,.cls-3,.cls-4{fill:#42d6f5;}.cls-10,.cls-11,.cls-12,.cls-13,.cls-14,.cls-15,.cls-2,.cls-6,.cls-7,.cls-9{opacity:0.6;}.cls-10,.cls-11,.cls-12,.cls-13,.cls-14,.cls-15,.cls-2,.cls-4,.cls-5,.cls-6,.cls-7,.cls-9{isolation:isolate;}.cls-4{opacity:0.7;}.cls-5{fill:#23ccfc;opacity:0.5;}.cls-6{stroke:#00e3ff;}.cls-7{stroke:#089;}.cls-8{stroke:#3ce1ee;}.cls-9{stroke:#00ffcf;}.cls-10{stroke:#00ffde;}.cls-11{stroke:#00fff5;}.cls-12{stroke:#10cccd;}.cls-13{stroke:#41c8b3;}.cls-14{stroke:#00fdff;}.cls-15{stroke:#0df;}</style></defs><title>主頁內頁-框01</title><g id="圖層_2" data-name="圖層 2"><g id="圖層_1-2" data-name="圖層 1"><g id="射擊館"><g id="Artboard"><g id="介面內容"><g id="recommendation"><g id="fill"><polygon id="_路徑_" data-name="&lt;路徑&gt;" class="cls-1" points="4.63 35.59 4.63 351.07 86.77 399.43 336.29 399.43 398.67 399.43 423.62 399.43 486 399.43 506.79 399.43 569.17 399.43 594.12 399.43 656.5 399.43 807.25 399.43 807.25 58.92 756.31 35.59 4.63 35.59"/><polygon id="_路徑_2" data-name="&lt;路徑&gt;" class="cls-2" points="594.46 400.19 613.05 409.35 670.9 409.35 656.44 400.19 594.46 400.19"/><polygon id="_路徑_3" data-name="&lt;路徑&gt;" class="cls-2" points="507.69 400.19 526.28 409.35 584.13 409.35 569.67 400.19 507.69 400.19"/><polygon id="_路徑_4" data-name="&lt;路徑&gt;" class="cls-2" points="424.02 400.19 442.61 409.35 500.46 409.35 486 400.19 424.02 400.19"/><polygon id="_路徑_5" data-name="&lt;路徑&gt;" class="cls-2" points="337.25 400.19 355.84 409.35 413.69 409.35 399.23 400.19 337.25 400.19"/><polygon id="_路徑_6" data-name="&lt;路徑&gt;" class="cls-3" points="319.02 10.11 315.47 8.13 204 8.13 211.93 12.7 323.82 12.7 319.02 10.11"/><polygon id="_路徑_7" data-name="&lt;路徑&gt;" class="cls-3" points="147.18 8.13 157.54 12.7 212.26 12.7 204.38 8.13 147.18 8.13"/><polygon id="_路徑_8" data-name="&lt;路徑&gt;" class="cls-2" points="157.2 12.7 146.82 8.13 204.13 8.13 198.74 5.08 97.6 5.08 118.37 15.76 217.43 15.76 212.03 12.7 157.2 12.7"/><polygon id="_路徑_9" data-name="&lt;路徑&gt;" class="cls-4" points="24.26 5.08 42.93 15.76 118.26 15.76 97.51 5.08 24.26 5.08"/><polygon id="_路徑_10" data-name="&lt;路徑&gt;" class="cls-2" points="0.5 0.5 0.5 26.43 130.66 26.43 130.66 21.86 118.78 15.76 43.19 15.76 24.45 5.08 97.96 5.08 89 0.5 0.5 0.5"/><polygon id="_路徑_11" data-name="&lt;路徑&gt;" class="cls-2" points="764.64 21.86 130.66 21.86 130.66 26.43 761.11 26.43 818.24 26.43 818.24 21.86 764.64 21.86"/><polygon id="_路徑_12" data-name="&lt;路徑&gt;" class="cls-5" points="87.27 400.06 118.44 418.5 821.72 418.5 821.72 65.84 807.17 59.23 807.17 400.06 656.54 400.06 671.09 409.28 612.91 409.28 594.21 400.06 569.28 400.06 583.83 409.28 525.65 409.28 506.95 400.06 486.18 400.06 500.72 409.28 442.55 409.28 423.85 400.06 398.92 400.06 413.46 409.28 355.29 409.28 336.59 400.06 87.27 400.06"/><polygon id="_路徑_13" data-name="&lt;路徑&gt;" class="cls-6" points="807.16 58.96 807.16 35.59 756.22 35.59 4.63 35.59 4.63 351.61 4.63 400.05 86.76 400.05 117.94 418.5 821.72 418.5 821.72 65.58 807.16 58.96"/><polyline id="_路徑_14" data-name="&lt;路徑&gt;" class="cls-7" points="336.22 400.19 86.25 400.19 84.17 400.19"/><path id="_路徑_15" data-name="&lt;路徑&gt;" class="cls-8" d="M424,400.19H399.23"/><path id="_路徑_16" data-name="&lt;路徑&gt;" class="cls-8" d="M506.66,400.19H486"/><path id="_路徑_17" data-name="&lt;路徑&gt;" class="cls-8" d="M594.46,400.19H569.67"/><polyline id="_路徑_18" data-name="&lt;路徑&gt;" class="cls-9" points="807.25 58.47 807.25 59.55 807.25 400.19 656.44 400.19"/><polygon id="_路徑_19" data-name="&lt;路徑&gt;" class="cls-10" points="399.23 400.19 413.69 409.35 355.84 409.35 337.25 400.19 399.23 400.19"/><polygon id="_路徑_20" data-name="&lt;路徑&gt;" class="cls-11" points="486 400.19 500.46 409.35 442.61 409.35 424.02 400.19 486 400.19"/><polygon id="_路徑_21" data-name="&lt;路徑&gt;" class="cls-11" points="569.67 400.19 584.13 409.35 526.28 409.35 507.69 400.19 569.67 400.19"/><polygon id="_路徑_22" data-name="&lt;路徑&gt;" class="cls-12" points="656.44 400.19 670.9 409.35 613.05 409.35 594.46 400.19 656.44 400.19"/><polygon id="_路徑_23" data-name="&lt;路徑&gt;" class="cls-13" points="130.45 21.86 764.63 21.86 817.78 21.86 817.78 26.43 761.09 26.43 130.45 26.43 0.5 26.43 0.5 0.5 88.87 0.5 97.81 5.08 118.6 15.76 130.45 21.86"/><polygon id="_路徑_24" data-name="&lt;路徑&gt;" class="cls-14" points="212.03 12.7 217.43 15.76 118.35 15.76 42.95 15.76 24.26 5.08 97.58 5.08 198.73 5.08 204.13 8.13 212.03 12.7"/><path id="_路徑_25" data-name="&lt;路徑&gt;" class="cls-15" d="M319.61,10.42l4.21,2.28H157.57L147.18,8.13H315.51l3.53,2,.51.28,174.71-.74Z"/></g></g></g></g></g></g></g></svg>