<svg xmlns="http://www.w3.org/2000/svg" viewBox="0 0 1219.15 115"><defs><style>.cls-1,.cls-2,.cls-3{fill:none;stroke:#5dc0c8;stroke-width:2px;}.cls-2,.cls-5{opacity:0.5;}.cls-2,.cls-3,.cls-4,.cls-5{isolation:isolate;}.cls-3,.cls-4{opacity:0.8;}.cls-4,.cls-5{fill:#48b0e5;}.cls-6{fill:#5dc0c8;}</style></defs><title>商品細節頁</title><g id="圖層_2" data-name="圖層 2"><g id="圖層_1-2" data-name="圖層 1"><g id="商品頁"><g id="商品詳細頁"><g id="product_frame" data-name="product frame"><g id="fill"><g id="bottom"><path id="_路徑_" data-name="&lt;路徑&gt;" class="cls-1" d="M127.63,6.51a10.06,10.06,0,0,1,1,4.49,9.9,9.9,0,0,1-3.33,7.44A10.3,10.3,0,0,1,118.65,21a10,10,0,0,1,0-20,12.47,12.47,0,0,1,2.18.26A10.08,10.08,0,0,1,127.63,6.51Z"/><polyline id="_路徑_2" data-name="&lt;路徑&gt;" class="cls-2" points="126.77 15 126.94 15.1 204.62 73.41 592.5 73.41 801.63 73.41 819.38 91.64 692.88 91.64 28.09 91.64 2.65 114 64.8 114 77.6 103.12 681.78 101.51 695.1 114 1216.65 114 1205.56 103.42 729.58 104.73 722.93 98.19 1163.39 98.19 1154.17 91.64 1115.76 64.15 604.1 64.15 592.5 73.41"/><path id="_路徑_3" data-name="&lt;路徑&gt;" class="cls-1" d="M906.65,74h-105"/><polyline id="_路徑_4" data-name="&lt;路徑&gt;" class="cls-1" points="693.65 92 696.4 99 722.65 99"/><polyline id="_路徑_5" data-name="&lt;路徑&gt;" class="cls-3" points="819.65 92 1153.31 92 1153.65 92"/><polygon id="_路徑_6" data-name="&lt;路徑&gt;" class="cls-4" points="1205.56 103.59 1216.65 114 695.1 114 681.78 101.71 77.6 103.3 64.8 114 2.65 114 28.09 92 692.88 92 695.61 98.44 721.73 98.44 722.93 98.44 729.58 104.88 1205.56 103.59"/><polygon id="_路徑_7" data-name="&lt;路徑&gt;" class="cls-5" points="800.91 74.44 591.65 74.44 603.27 65 1115.22 65 1153.65 93 818.67 93 800.91 74.44"/><polygon id="_路徑_8" data-name="&lt;路徑&gt;" class="cls-6" points="1155.42 92 1164.65 99 723.73 99 722.53 99 696.39 99 693.65 92 820.29 92 1155.42 92"/></g></g></g></g></g></g></g></svg>