<svg xmlns="http://www.w3.org/2000/svg" viewBox="0 0 335.19 486.31"><defs><style>.cls-1,.cls-7,.cls-8,.cls-9{fill:none;}.cls-2{fill:#4198c8;}.cls-2,.cls-4,.cls-7{opacity:0.6;}.cls-2,.cls-4,.cls-5,.cls-6,.cls-7,.cls-9{isolation:isolate;}.cls-3,.cls-4,.cls-5,.cls-6{fill:#5dc0c8;}.cls-5{opacity:0.7;}.cls-6,.cls-9{opacity:0.5;}.cls-7,.cls-8,.cls-9{stroke:#4198c8;}.cls-9{stroke-width:0.5px;}</style></defs><title>商品外框02</title><g id="圖層_2" data-name="圖層 2"><g id="圖層_1-2" data-name="圖層 1"><g id="商品頁"><g id="Artboard-2"><g id="fill"><polygon id="_路徑_" data-name="&lt;路徑&gt;" class="cls-1" points="28.76 2.96 281.24 2.96 319.94 51.49 319.94 198.92 319.94 235.78 319.94 250.53 319.94 287.39 319.94 299.67 319.94 336.53 319.94 351.27 319.94 388.13 319.94 477.21 47.43 477.21 28.76 447.11 28.76 2.96"/><polygon id="_路徑_2" data-name="&lt;路徑&gt;" class="cls-2" points="319.94 351.27 327.32 362.33 327.32 396.73 319.94 388.13 319.94 351.27"/><polygon id="_路徑_3" data-name="&lt;路徑&gt;" class="cls-2" points="319.94 299.67 327.32 310.73 327.32 345.13 319.94 336.53 319.94 299.67"/><polygon id="_路徑_4" data-name="&lt;路徑&gt;" class="cls-2" points="319.94 250.53 327.32 261.58 327.32 295.99 319.94 287.39 319.94 250.53"/><polygon id="_路徑_5" data-name="&lt;路徑&gt;" class="cls-2" points="319.94 198.92 327.32 209.98 327.32 244.38 319.94 235.78 319.94 198.92"/><polygon id="_路徑_6" data-name="&lt;路徑&gt;" class="cls-3" points="8.24 188.73 6.64 186.64 6.64 121.03 10.33 125.7 10.33 191.55 8.24 188.73"/><polygon id="_路徑_7" data-name="&lt;路徑&gt;" class="cls-3" points="6.64 87.12 10.33 93.26 10.33 125.7 6.64 121.03 6.64 87.12"/><polygon id="_路徑_8" data-name="&lt;路徑&gt;" class="cls-4" points="10.33 93.26 6.64 87.12 6.64 121.03 4.19 117.83 4.19 58 12.79 70.29 12.79 128.89 10.33 125.7 10.33 93.26"/><polygon id="_路徑_9" data-name="&lt;路徑&gt;" class="cls-5" points="4.19 14.63 12.79 25.69 12.79 70.29 4.19 58 4.19 14.63"/><polygon id="_路徑_10" data-name="&lt;路徑&gt;" class="cls-4" points="0.5 0.5 21.39 0.5 21.39 77.29 17.7 77.29 12.79 70.29 12.79 25.69 4.19 14.63 4.19 58 0.5 52.72 0.5 0.5"/><polygon id="_路徑_11" data-name="&lt;路徑&gt;" class="cls-4" points="17.7 452.02 17.7 77.29 21.39 77.29 21.39 449.93 41.66 477.21 34.29 477.21 17.7 452.02"/><polygon id="_路徑_12" data-name="&lt;路徑&gt;" class="cls-6" points="319.94 51.49 334.69 69.92 334.69 485.81 52.72 485.81 47.43 477.21 319.94 477.21 319.94 388.13 327.32 396.73 327.32 362.33 319.94 351.27 319.94 336.53 327.32 345.13 327.32 310.73 319.94 299.67 319.94 287.39 327.32 295.99 327.32 261.58 319.94 250.53 319.94 235.78 327.32 244.38 327.32 209.98 319.94 198.92 319.94 51.49"/><polygon id="_路徑_13" data-name="&lt;路徑&gt;" class="cls-7" points="47.43 477.21 28.76 447.11 28.76 2.96 281.24 2.96 319.94 51.49 334.69 69.92 334.69 485.81 52.72 485.81 47.43 477.21"/><polyline id="_路徑_14" data-name="&lt;路徑&gt;" class="cls-7" points="319.94 198.92 319.94 51.49 319.94 50.26"/><path id="_路徑_15" data-name="&lt;路徑&gt;" class="cls-8" d="M319.94,250.53V235.78"/><path id="_路徑_16" data-name="&lt;路徑&gt;" class="cls-8" d="M319.94,299.67V287.39"/><path id="_路徑_17" data-name="&lt;路徑&gt;" class="cls-8" d="M319.94,351.27V336.53"/><polyline id="_路徑_18" data-name="&lt;路徑&gt;" class="cls-7" points="46.57 477.21 47.43 477.21 319.94 477.21 319.94 388.13"/><polygon id="_路徑_19" data-name="&lt;路徑&gt;" class="cls-7" points="319.94 235.78 327.32 244.38 327.32 209.98 319.94 198.92 319.94 235.78"/><polygon id="_路徑_20" data-name="&lt;路徑&gt;" class="cls-7" points="319.94 287.39 327.32 295.99 327.32 261.58 319.94 250.53 319.94 287.39"/><polygon id="_路徑_21" data-name="&lt;路徑&gt;" class="cls-7" points="319.94 336.53 327.32 345.13 327.32 310.73 319.94 299.67 319.94 336.53"/><polygon id="_路徑_22" data-name="&lt;路徑&gt;" class="cls-7" points="319.94 388.13 327.32 396.73 327.32 362.33 319.94 351.27 319.94 388.13"/><polygon id="_路徑_23" data-name="&lt;路徑&gt;" class="cls-7" points="17.7 77.29 17.7 452.02 34.29 477.21 41.66 477.21 21.39 449.93 21.39 77.29 21.39 0.5 0.5 0.5 0.5 52.72 4.19 58 12.79 70.29 17.7 77.29"/><polygon id="_路徑_24" data-name="&lt;路徑&gt;" class="cls-7" points="10.33 125.7 12.79 128.89 12.79 70.29 12.79 25.69 4.19 14.63 4.19 58 4.19 117.83 6.64 121.03 10.33 125.7"/><polygon id="_路徑_25" data-name="&lt;路徑&gt;" class="cls-7" points="8.24 188.73 10.33 191.55 10.33 125.7 10.33 93.26 6.64 87.12 6.64 121.03 6.64 186.64 8.24 188.73"/><polyline id="_路徑_26" data-name="&lt;路徑&gt;" class="cls-9" points="8.12 292.3 8.61 188.73 8.86 143.64"/></g></g></g></g></g></svg>