<svg xmlns="http://www.w3.org/2000/svg" viewBox="0 0 253.46 265.3"><defs><style>.cls-1{isolation:isolate;}.cls-2,.cls-3,.cls-5{fill:#01aae5;}.cls-3,.cls-5{mix-blend-mode:screen;}.cls-4{fill:#58c7ee;}.cls-5{opacity:0.59;}</style></defs><title>科技外框07</title><g class="cls-1"><g id="圖層_2" data-name="圖層 2"><g id="栝鍣_15" data-name="栝鍣 15"><polygon class="cls-2" points="17.42 214.29 16.35 214.53 16.35 91.59 17.42 92.28 17.42 214.29"/><polygon class="cls-3" points="9.58 146.79 5.68 143.86 5.68 25.18 9.58 28.04 9.58 146.79"/><path class="cls-4" d="M5.68,25.18V138.27l-2.17-1.68V6.93L0,4.18V145.94l4.46,3.2v66.65L0,219v16l9.58-6.7V112.88l6.77,5.84v54.63l5-3.5V37.47ZM20.85,169.59l-4,2.8v-53.9l-7.77-6.7V228L.5,234V219.21L5,216.05V148.88L.5,145.68V5.21L3,7.17V136.83l3.17,2.45V26.21L20.85,37.72Z"/><polygon class="cls-5" points="0.5 219.21 4.96 216.05 4.96 148.88 0.5 145.68 0.5 5.21 3.01 7.17 3.01 136.83 6.18 139.28 6.18 26.21 20.86 37.72 20.86 169.59 16.85 172.4 16.85 118.49 9.08 111.79 9.08 227.99 0.5 233.99 0.5 219.21"/><rect class="cls-2" x="26.17" y="-8.29" width="0.83" height="44.99" transform="translate(-1 26.36) rotate(-51.9)"/><polygon class="cls-3" points="10.97 23.01 12.95 20.52 14.08 21.4 12.1 23.89 10.97 23.01"/><rect class="cls-3" x="7.51" y="17.57" width="16.58" height="0.81" transform="translate(-8.1 19.32) rotate(-51.91)"/><rect class="cls-3" x="22.42" y="19.17" width="7.93" height="1.18" transform="translate(-5.41 28.44) rotate(-52.1)"/><rect class="cls-3" x="19.22" y="21.23" width="11.21" height="0.81" transform="translate(-7.5 27.93) rotate(-52.1)"/><polygon class="cls-3" points="10.63 26.35 16 19.48 17.27 20.47 11.9 27.34 10.63 26.35"/><rect class="cls-3" x="7.3" y="19.55" width="18.66" height="0.81" transform="translate(-9.33 20.82) rotate(-52.1)"/><polygon class="cls-3" points="18.93 21.9 24.12 15.19 25.32 16.14 20.13 22.83 18.93 21.9"/><rect class="cls-3" x="11.17" y="21.41" width="17.52" height="0.81" transform="translate(-9.54 24.04) rotate(-51.91)"/><rect class="cls-3" x="17.23" y="24.86" width="13.9" height="1.32" transform="translate(-10.81 28.92) rotate(-52.1)"/><rect class="cls-3" x="15.12" y="25.11" width="18.11" height="0.81" transform="translate(-10.81 28.92) rotate(-52.1)"/><rect class="cls-3" x="13.38" y="24.87" width="12.3" height="1.11" transform="translate(-12.53 25.22) rotate(-52.1)"/><rect class="cls-3" x="11.46" y="23.15" width="18.99" height="0.81" transform="translate(-10.5 25.62) rotate(-52.1)"/><rect class="cls-3" x="12.14" y="19.15" width="13.81" height="1.51" transform="translate(-8.36 22.71) rotate(-52.1)"/><rect class="cls-3" x="11.24" y="19.5" width="15.6" height="0.81" transform="translate(-8.37 22.6) rotate(-51.88)"/><path class="cls-4" d="M241,14.09H57.47L51.7,9.57H184.47l-12-9.42H166.8l8,6.25H57.28l-8-6.25H33.93l25,19.6H50.3L25.31.15H15.13L45.44,23.92H94.52L88.27,19l.07-.08h13.57l6.36,5h8L110,19l.07-.08h13.58l6.36,5h8L131.72,19l.07-.08h13.58l6.36,5h8L153.45,19l.06-.08h13.58l6.36,5h8L175.17,19l.07-.08h64.32l6.36,5h7.54v0Zm5.11,9.33-6.36-5H175l-.53.67,5.5,4.31h-6.34l-6.36-5h-14l-.53.67,5.51,4.31H151.9l-6.36-5h-14l-.52.67,5.5,4.31h-6.35l-6.36-5h-14l-.53.67,5.51,4.31h-6.35l-6.36-5h-14l-.52.67,5.5,4.31H45.62L16.57.65h8.57l25,19.6H60.37L35.38.65H49.14l8,6.25h119.1l-8-6.25h4L183,9.07H50.25l7,5.52H240.82l11.26,8.83Z"/><polygon class="cls-4" points="51.51 1.88 57.28 6.4 174.77 6.4 169 1.88 51.51 1.88"/><polygon class="cls-5" points="246.1 23.42 239.74 18.43 175 18.43 174.47 19.11 179.97 23.42 173.63 23.42 167.27 18.43 153.27 18.43 152.75 19.11 158.25 23.42 151.9 23.42 145.54 18.43 131.54 18.43 131.02 19.11 136.52 23.42 130.17 23.42 123.81 18.43 109.82 18.43 109.29 19.11 114.8 23.42 108.45 23.42 102.09 18.43 88.09 18.43 87.57 19.11 93.07 23.42 45.62 23.42 16.57 0.65 25.14 0.65 50.13 20.25 60.37 20.25 35.38 0.65 49.13 0.65 57.11 6.9 176.21 6.9 168.24 0.65 172.29 0.65 183.02 9.07 50.25 9.07 57.3 14.59 240.82 14.59 252.08 23.42 246.1 23.42"/><rect class="cls-4" x="12.99" y="1.38" width="2" height="1.22" transform="translate(3.8 11.78) rotate(-51.93)"/><rect class="cls-4" x="14.54" y="2.28" width="1.2" height="1.22" transform="translate(3.53 13.02) rotate(-51.91)"/><rect class="cls-4" x="15.41" y="3.17" width="1.74" height="1.22" transform="translate(3.26 14.26) rotate(-51.91)"/><rect class="cls-4" x="17.05" y="4.07" width="0.74" height="1.22" transform="translate(2.99 15.49) rotate(-51.88)"/><rect class="cls-4" x="18.37" y="4.96" width="0.39" height="1.22" transform="translate(2.72 16.73) rotate(-51.88)"/><rect class="cls-4" x="19.4" y="5.86" width="0.61" height="1.22" transform="translate(2.46 17.99) rotate(-51.91)"/><rect class="cls-4" x="20.33" y="6.75" width="1.03" height="1.22" transform="translate(2.19 19.23) rotate(-51.92)"/><rect class="cls-4" x="21.62" y="7.65" width="0.74" height="1.22" transform="translate(1.92 20.47) rotate(-51.91)"/><rect class="cls-4" x="22.26" y="8.54" width="1.74" height="1.22" transform="translate(1.66 21.71) rotate(-51.91)"/><rect class="cls-4" x="24.08" y="9.44" width="0.39" height="1.22" transform="translate(1.39 22.96) rotate(-51.93)"/><rect class="cls-4" x="24.01" y="10.33" width="2.81" height="1.22" transform="translate(1.12 24.2) rotate(-51.91)"/><rect class="cls-4" x="26.04" y="11.23" width="1.03" height="1.22" transform="translate(0.85 25.42) rotate(-51.88)"/><rect class="cls-4" x="26.92" y="12.13" width="1.55" height="1.22" transform="translate(0.58 26.66) rotate(-51.88)"/><rect class="cls-4" x="28.41" y="13.02" width="0.87" height="1.22" transform="translate(0.32 27.92) rotate(-51.91)"/><rect class="cls-4" x="28.98" y="13.92" width="2" height="1.22" transform="translate(0.04 29.15) rotate(-51.88)"/><rect class="cls-4" x="30.25" y="14.81" width="1.74" height="1.22" transform="translate(-0.22 30.39) rotate(-51.88)"/><rect class="cls-4" x="31.67" y="15.71" width="1.19" height="1.22" transform="translate(-0.48 31.65) rotate(-51.91)"/><rect class="cls-4" x="32.97" y="16.6" width="0.87" height="1.22" transform="translate(-0.75 32.89) rotate(-51.91)"/><rect class="cls-4" x="33.55" y="17.5" width="2" height="1.22" transform="translate(-1.01 34.14) rotate(-51.93)"/><rect class="cls-4" x="35.39" y="18.39" width="0.61" height="1.22" transform="translate(-1.29 35.36) rotate(-51.89)"/><rect class="cls-4" x="36.12" y="19.29" width="1.42" height="1.22" transform="translate(-1.55 36.62) rotate(-51.91)"/><rect class="cls-4" x="37.11" y="20.18" width="1.74" height="1.22" transform="translate(-1.82 37.84) rotate(-51.89)"/><rect class="cls-4" x="38.93" y="21.08" width="0.39" height="1.22" transform="translate(-2.1 39.07) rotate(-51.88)"/><rect class="cls-4" x="39.83" y="21.97" width="0.87" height="1.22" transform="translate(-2.36 40.31) rotate(-51.88)"/><rect class="cls-4" x="40.63" y="22.87" width="1.55" height="1.22" transform="translate(-2.63 41.56) rotate(-51.88)"/><path class="cls-2" d="M42.12,233.64,17.09,214l-.74.54,25.23,19.81A3.35,3.35,0,0,1,42.12,233.64Z"/><path class="cls-4" d="M31.54,252.56l-26.8-21-.74.53L30.67,253C30.82,252.74,31.33,252.77,31.54,252.56Z"/><path class="cls-2" d="M44.42,232.68A3.31,3.31,0,1,0,47.73,236,3.31,3.31,0,0,0,44.42,232.68Zm0,5.9A2.6,2.6,0,1,1,47,236,2.6,2.6,0,0,1,44.42,238.58Z"/><polygon class="cls-4" points="50.67 253 51.34 252.52 48.22 252.52 47.55 253 50.67 253"/><polygon class="cls-4" points="66.38 239.45 65.71 239.94 68.83 239.94 69.5 239.45 66.38 239.45"/><polygon class="cls-4" points="57.3 245.99 56.63 246.47 59.75 246.47 60.42 245.99 57.3 245.99"/><polygon class="cls-4" points="71.65 239.94 75.22 239.94 75.22 239.45 72.32 239.45 71.65 239.94"/><polygon class="cls-4" points="62.57 246.47 66.05 246.47 66.05 245.99 63.24 245.99 62.57 246.47"/><polygon class="cls-4" points="53.49 253 56.94 253 56.94 252.52 54.16 252.52 53.49 253"/><polygon class="cls-4" points="47 252.52 30.69 252.52 30.67 253 46.33 253 47 252.52"/><polygon class="cls-4" points="56.07 245.99 53.21 245.99 53.21 246.47 55.41 246.47 56.07 245.99"/><polygon class="cls-5" points="180.32 265.3 173.15 259.67 65.43 259.67 57.61 265.3 49.6 265.3 49.6 258.48 49.8 258.22 84.18 233.49 166.66 233.49 187.04 249.46 187.04 265.3 180.32 265.3"/><polygon class="cls-4" points="176.11 262.19 62.04 262.19 59.76 263.75 177.8 263.75 176.11 262.19"/><polygon class="cls-4" points="61.86 256.51 58.38 259.01 50.85 264.05 57.2 264.05 65.03 258.42 173.58 258.42 180.75 264.05 185.79 264.05 176.62 256.51 61.86 256.51"/></g></g></g></svg>