<svg xmlns="http://www.w3.org/2000/svg" viewBox="0 0 204.5 190.5"><defs><style>.cls-1,.cls-4{fill:#48b0e5;}.cls-1{opacity:0.5;isolation:isolate;}.cls-2,.cls-3{fill:#5dc0c8;}.cls-2,.cls-6{stroke:#5dc0c8;}.cls-2,.cls-5,.cls-6{stroke-miterlimit:10;}.cls-5,.cls-6,.cls-7{fill:none;}.cls-5{stroke:#48b0e5;}</style></defs><title>資產 3</title><g id="圖層_2" data-name="圖層 2"><g id="圖層_1-2" data-name="圖層 1"><g id="fill"><g id="_群組_" data-name="&lt;群組&gt;"><polygon id="_路徑_" data-name="&lt;路徑&gt;" class="cls-1" points="26.3 95.6 26.3 117.2 0 95 26.3 73.9 26.3 94.4 26 95 26.3 95.6"/><polygon id="_路徑_2" data-name="&lt;路徑&gt;" class="cls-1" points="43.2 65.2 42.2 67 26.3 94.4 26.3 73.9 37.1 65.2 43.2 65.2"/><polygon id="_路徑_3" data-name="&lt;路徑&gt;" class="cls-1" points="26.3 95.6 41.7 122.2 32.2 122.2 26.3 117.2 26.3 95.6"/><polygon id="_路徑_4" data-name="&lt;路徑&gt;" class="cls-2" points="49.2 65.2 32.2 95 48.2 122.2 41.7 122.2 26.3 95.6 26.3 94.4 42.2 67 43.2 65.2 49.2 65.2"/><polygon id="_路徑_5" data-name="&lt;路徑&gt;" class="cls-3" points="79.5 156.2 79.5 160.2 65 160.2 56 145.2 60 143 67.7 155.7 79.5 156.2"/><polygon id="_路徑_6" data-name="&lt;路徑&gt;" class="cls-3" points="79.5 29.2 79.5 34 68.7 34 60.2 47.5 56 44.7 65.2 29.2 79.5 29.2"/><polygon id="_路徑_7" data-name="&lt;路徑&gt;" class="cls-3" points="141 30.5 150.7 45.2 146 47.5 138.8 34.5 127 34.7 127 30.5 141 30.5"/><polygon id="_路徑_8" data-name="&lt;路徑&gt;" class="cls-3" points="163.2 66.5 179.7 95 164.2 122.2 159.2 122.2 174.2 95 158 66.5 163.2 66.5"/><polygon id="_路徑_9" data-name="&lt;路徑&gt;" class="cls-3" points="150.7 145.7 141.2 161.5 127 161.5 127 156 138.8 155.5 145.7 143 150.7 145.7"/><polygon id="_路徑_10" data-name="&lt;路徑&gt;" class="cls-4" points="51 163.1 60 173.6 58.8 175.3 50.5 166.1 31.3 166.3 31.3 163.1 51 163.1"/><polygon id="_路徑_11" data-name="&lt;路徑&gt;" class="cls-4" points="138.8 174.5 140 177.5 67.7 177.5 67.7 174.5 138.8 174.5"/><polygon id="_路徑_12" data-name="&lt;路徑&gt;" class="cls-4" points="141.2 13.5 138.8 15.7 72 15.7 70.5 13.5 141.2 13.5"/><polygon id="_路徑_13" data-name="&lt;路徑&gt;" class="cls-4" points="60.9 16 49.9 27.5 30.4 27.5 30.4 24.7 49.9 24.7 59.1 14.2 60.9 16"/><polygon id="_路徑_14" data-name="&lt;路徑&gt;" class="cls-4" points="46.7 13.5 59.2 0.5 150.7 0.5 150.7 2.2 146 2.2 144.7 5.5 65 5.2 63.2 2.2 60.2 2.2 48 15.7 26 15.7 26 13.5 46.7 13.5"/><polygon id="_路徑_15" data-name="&lt;路徑&gt;" class="cls-4" points="204 141.2 151.7 189.1 150.7 188 201.7 140.2 201.7 135.7 199.5 135.7 199 56.7 201.7 54.5 201.7 50.2 150.7 2.2 150.7 0.5 152.5 0.5 204 49 204 141.2"/><polygon id="_路徑_16" data-name="&lt;路徑&gt;" class="cls-4" points="48 174.5 61.5 188 63.5 188 63.5 190 60.2 190 47.7 177.5 24.7 177.5 24.7 174.5 48 174.5"/><polygon id="_路徑_17" data-name="&lt;路徑&gt;" class="cls-4" points="150.7 190 63.5 190 63.5 188 64.2 185.5 144.5 185.2 145.5 188 150.7 188 151.7 189.1 150.7 190"/><polygon id="_路徑_18" data-name="&lt;路徑&gt;" class="cls-5" points="49.9 24.7 30.4 24.7 30.4 27.5 49.9 27.5 60.9 16 59.1 14.2 49.9 24.7"/><polygon id="_路徑_19" data-name="&lt;路徑&gt;" class="cls-5" points="60 173.6 51 163.1 31.3 163.1 31.3 166.3 50.5 166.1 58.8 175.3 60 173.6"/><polygon id="_路徑_20" data-name="&lt;路徑&gt;" class="cls-5" points="137.1 36.3 171 95 137.1 153.7 69.3 153.7 35.4 95 69.3 36.3 137.1 36.3"/><polygon id="_路徑_21" data-name="&lt;路徑&gt;" class="cls-6" points="145.7 143 150.7 145.7 141.2 161.5 127 161.5 127 156 138.8 155.5 145.7 143"/><polygon id="_路徑_22" data-name="&lt;路徑&gt;" class="cls-6" points="79.5 156.2 79.5 160.2 65 160.2 56 145.2 60 143 67.7 155.7 79.5 156.2"/><polygon id="_路徑_23" data-name="&lt;路徑&gt;" class="cls-5" points="43.2 65.2 49.2 65.2 32.2 95 48.2 122.2 41.7 122.2 26.3 95.6 26 95 26.3 94.4 42.2 67 43.2 65.2"/><polyline id="_路徑_24" data-name="&lt;路徑&gt;" class="cls-7" points="41.7 122.2 32.2 122.2 26.3 117.2 0 95 26.3 73.9 37.1 65.2 43.2 65.2"/><polygon id="_路徑_25" data-name="&lt;路徑&gt;" class="cls-6" points="159.2 122.2 164.2 122.2 179.7 95 163.2 66.5 158 66.5 174.2 95 159.2 122.2"/><polygon id="_路徑_26" data-name="&lt;路徑&gt;" class="cls-6" points="146 47.5 150.7 45.2 141 30.5 127 30.5 127 34.7 138.8 34.5 146 47.5"/><polygon id="_路徑_27" data-name="&lt;路徑&gt;" class="cls-6" points="79.5 34 68.7 34 60.2 47.5 56 44.7 65.2 29.2 79.5 29.2 79.5 34"/><polygon id="_路徑_28" data-name="&lt;路徑&gt;" class="cls-5" points="140 177.5 67.7 177.5 67.7 174.5 138.8 174.5 140 177.5"/><polygon id="_路徑_29" data-name="&lt;路徑&gt;" class="cls-5" points="138.8 15.7 72 15.7 70.5 13.5 141.2 13.5 138.8 15.7"/><line id="_路徑_30" data-name="&lt;路徑&gt;" class="cls-5" x1="187.2" y1="135.7" x2="148" y2="172.2"/><line id="_路徑_31" data-name="&lt;路徑&gt;" class="cls-5" x1="188.7" y1="127.5" x2="188.7" y2="59"/><line id="_路徑_32" data-name="&lt;路徑&gt;" class="cls-5" x1="185.5" y1="53" x2="148" y2="20.1"/><polygon id="_路徑_33" data-name="&lt;路徑&gt;" class="cls-5" points="150.7 0.5 59.2 0.5 46.7 13.5 26 13.5 26 15.7 48 15.7 60.2 2.2 63.2 2.2 65 5.2 144.7 5.5 146 2.2 150.7 2.2 201.7 50.2 201.7 54.5 199 56.7 199.5 135.7 201.7 135.7 201.7 140.2 150.7 188 145.5 188 144.5 185.2 64.2 185.5 63.5 188 61.5 188 48 174.5 24.7 174.5 24.7 177.5 47.7 177.5 60.2 190 63.5 190 150.7 190 151.7 189.1 204 141.2 204 49 152.5 0.5 150.7 0.5"/><circle id="_路徑_34" data-name="&lt;路徑&gt;" class="cls-5" cx="102.2" cy="94.2" r="49.2"/><path id="_路徑_35" data-name="&lt;路徑&gt;" class="cls-5" d="M58.6,94.2a43.6,43.6,0,1,1,43.6,43.6A43.57,43.57,0,0,1,58.6,94.2Z"/><path id="_路徑_36" data-name="&lt;路徑&gt;" class="cls-5" d="M72.7,94.4a30.1,30.1,0,1,1,30.1,30.1A30.13,30.13,0,0,1,72.7,94.4Z"/></g></g></g></g></svg>