<svg xmlns="http://www.w3.org/2000/svg" viewBox="0 0 204.5 190.5"><defs>
<style>.cls-1,.cls-4{fill:#48b0e5;}.cls-1{opacity:0.5;isolation:isolate;}.cls-2,.cls-3{fill:#5dc0c8;}.cls-2,.cls-6{stroke:#5dc0c8;}.cls-2,.cls-5,.cls-6{stroke-miterlimit:10;}.cls-5,.cls-6,.cls-7{fill:none;}.cls-5{stroke:#48b0e5;}
</style>
</defs>
<title>資產 7</title><g id="圖層_2" data-name="圖層 2">
<g id="圖層_1-2" data-name="圖層 1"><g id="fill">
<g id="_群組_" data-name="&lt;群組&gt;">
<polygon id="_路徑_" data-name="&lt;路徑&gt;" class="cls-1" points="178.5 95 178.2 94.4 178.2 73.9 204.5 95 178.2 117.2 178.2 95.6 178.5 95"/>
<polygon id="_路徑_2" data-name="&lt;路徑&gt;" class="cls-1" points="167.4 65.2 178.2 73.9 178.2 94.4 162.3 67 161.3 65.2 167.4 65.2"/>
<polygon id="_路徑_3" data-name="&lt;路徑&gt;" class="cls-1" points="178.2 117.2 172.3 122.2 162.8 122.2 178.2 95.6 178.2 117.2"/>
<polygon id="_路徑_4" data-name="&lt;路徑&gt;" class="cls-2" points="161.3 65.2 162.3 67 178.2 94.4 178.2 95.6 162.8 122.2 156.3 122.2 172.3 95 155.3 65.2 161.3 65.2"/>
<polygon id="_路徑_5" data-name="&lt;路徑&gt;" class="cls-3" points="136.8 155.7 144.5 143 148.5 145.2 139.5 160.2 125 160.2 125 156.2 136.8 155.7"/>
<polygon id="_路徑_6" data-name="&lt;路徑&gt;" class="cls-3" points="139.3 29.2 148.5 44.7 144.3 47.5 135.8 34 125 34 125 29.2 139.3 29.2"/>
<polygon id="_路徑_7" data-name="&lt;路徑&gt;" class="cls-3" points="77.5 30.5 77.5 34.7 65.7 34.5 58.5 47.5 53.8 45.2 63.5 30.5 77.5 30.5"/>
<polygon id="_路徑_8" data-name="&lt;路徑&gt;" class="cls-3" points="46.5 66.5 30.3 95 45.3 122.2 40.3 122.2 24.8 95 41.3 66.5 46.5 66.5"/>
<polygon id="_路徑_9" data-name="&lt;路徑&gt;" class="cls-3" points="58.8 143 65.7 155.5 77.5 156 77.5 161.5 63.3 161.5 53.8 145.7 58.8 143"/>
<polygon id="_路徑_10" data-name="&lt;路徑&gt;" class="cls-4" points="173.2 163.1 173.2 166.3 154 166.1 145.7 175.3 144.5 173.6 153.5 163.1 173.2 163.1"/>
<polygon id="_路徑_11" data-name="&lt;路徑&gt;" class="cls-4" points="136.8 174.5 136.8 177.5 64.5 177.5 65.7 174.5 136.8 174.5"/>
<polygon id="_路徑_12" data-name="&lt;路徑&gt;" class="cls-4" points="134 13.5 132.5 15.7 65.7 15.7 63.3 13.5 134 13.5"/><polygon id="_路徑_13" data-name="&lt;路徑&gt;" class="cls-4" points="145.4 14.2 154.6 24.7 174.1 24.7 174.1 27.5 154.6 27.5 143.6 16 145.4 14.2"/>
<polygon id="_路徑_14" data-name="&lt;路徑&gt;" class="cls-4" points="178.5 13.5 178.5 15.7 156.5 15.7 144.3 2.2 141.3 2.2 139.5 5.2 59.8 5.5 58.5 2.2 53.8 2.2 53.8 0.5 145.3 0.5 157.8 13.5 178.5 13.5"/><polygon id="_路徑_15" data-name="&lt;路徑&gt;" class="cls-4" points="0.5 49 52 0.5 53.8 0.5 53.8 2.2 2.8 50.2 2.8 54.5 5.5 56.7 5 135.7 2.8 135.7 2.8 140.2 53.8 188 52.8 189.1 0.5 141.2 0.5 49"/>
<polygon id="_路徑_16" data-name="&lt;路徑&gt;" class="cls-4" points="179.8 174.5 179.8 177.5 156.8 177.5 144.3 190 141 190 141 188 143 188 156.5 174.5 179.8 174.5"/>
<polygon id="_路徑_17" data-name="&lt;路徑&gt;" class="cls-4" points="52.8 189.1 53.8 188 59 188 60 185.2 140.3 185.5 141 188 141 190 53.8 190 52.8 189.1"/>
<polygon id="_路徑_18" data-name="&lt;路徑&gt;" class="cls-5" points="145.4 14.2 143.6 16 154.6 27.5 174.1 27.5 174.1 24.7 154.6 24.7 145.4 14.2"/>
<polygon id="_路徑_19" data-name="&lt;路徑&gt;" class="cls-5" points="145.7 175.3 154 166.1 173.2 166.3 173.2 163.1 153.5 163.1 144.5 173.6 145.7 175.3"/>
<polygon id="_路徑_20" data-name="&lt;路徑&gt;" class="cls-5" points="135.2 36.3 169.1 95 135.2 153.7 67.4 153.7 33.5 95 67.4 36.3 135.2 36.3"/>
<polygon id="_路徑_21" data-name="&lt;路徑&gt;" class="cls-6" points="65.7 155.5 77.5 156 77.5 161.5 63.3 161.5 53.8 145.7 58.8 143 65.7 155.5"/>
<polygon id="_路徑_22" data-name="&lt;路徑&gt;" class="cls-6" points="136.8 155.7 144.5 143 148.5 145.2 139.5 160.2 125 160.2 125 156.2 136.8 155.7"/>
<polygon id="_路徑_23" data-name="&lt;路徑&gt;" class="cls-5" points="162.3 67 178.2 94.4 178.5 95 178.2 95.6 162.8 122.2 156.3 122.2 172.3 95 155.3 65.2 161.3 65.2 162.3 67"/>
<polyline id="_路徑_24" data-name="&lt;路徑&gt;" class="cls-7" points="161.3 65.2 167.4 65.2 178.2 73.9 204.5 95 178.2 117.2 172.3 122.2 162.8 122.2"/>
<polygon id="_路徑_25" data-name="&lt;路徑&gt;" class="cls-6" points="30.3 95 46.5 66.5 41.3 66.5 24.8 95 40.3 122.2 45.3 122.2 30.3 95"/>
<polygon id="_路徑_26" data-name="&lt;路徑&gt;" class="cls-6" points="65.7 34.5 77.5 34.7 77.5 30.5 63.5 30.5 53.8 45.2 58.5 47.5 65.7 34.5"/>
<polygon id="_路徑_27" data-name="&lt;路徑&gt;" class="cls-6" points="125 29.2 139.3 29.2 148.5 44.7 144.3 47.5 135.8 34 125 34 125 29.2"/>
<polygon id="_路徑_28" data-name="&lt;路徑&gt;" class="cls-5" points="65.7 174.5 136.8 174.5 136.8 177.5 64.5 177.5 65.7 174.5"/>
<polygon id="_路徑_29" data-name="&lt;路徑&gt;" class="cls-5" points="63.3 13.5 134 13.5 132.5 15.7 65.7 15.7 63.3 13.5"/>
<line id="_路徑_30" data-name="&lt;路徑&gt;" class="cls-5" x1="56.5" y1="172.2" x2="17.3" y2="135.7"/><line id="_路徑_31" data-name="&lt;路徑&gt;" class="cls-5" x1="15.8" y1="59" x2="15.8" y2="127.5"/><line id="_路徑_32" data-name="&lt;路徑&gt;" class="cls-5" x1="56.5" y1="20.1" x2="19" y2="53"/>
<polygon id="_路徑_33" data-name="&lt;路徑&gt;" class="cls-5" points="52 0.5 0.5 49 0.5 141.2 52.8 189.1 53.8 190 141 190 144.3 190 156.8 177.5 179.8 177.5 179.8 174.5 156.5 174.5 143 188 141 188 140.3 185.5 60 185.2 59 188 53.8 188 2.8 140.2 2.8 135.7 5 135.7 5.5 56.7 2.8 54.5 2.8 50.2 53.8 2.2 58.5 2.2 59.8 5.5 139.5 5.2 141.3 2.2 144.3 2.2 156.5 15.7 178.5 15.7 178.5 13.5 157.8 13.5 145.3 0.5 53.8 0.5 52 0.5"/>
<circle id="_路徑_34" data-name="&lt;路徑&gt;" class="cls-5" cx="102.3" cy="94.2" r="49.2"/>
<path id="_路徑_35" data-name="&lt;路徑&gt;" class="cls-5" d="M102.3,137.8a43.6,43.6,0,1,1,43.6-43.6A43.57,43.57,0,0,1,102.3,137.8Z"/>
<path id="_路徑_36" data-name="&lt;路徑&gt;" class="cls-5" d="M101.7,124.5a30.1,30.1,0,1,1,30.1-30.1A30.13,30.13,0,0,1,101.7,124.5Z"/>
</g>
</g>
</g>
</g>
</svg>