<svg xmlns="http://www.w3.org/2000/svg" viewBox="0 0 190.5 204.5"><defs><style>.cls-1,.cls-4{fill:#48b0e5;}.cls-1{opacity:0.5;isolation:isolate;}.cls-2,.cls-3{fill:#5dc0c8;}.cls-2,.cls-6{stroke:#5dc0c8;}.cls-2,.cls-5,.cls-6{stroke-miterlimit:10;}.cls-5,.cls-6,.cls-7{fill:none;}.cls-5{stroke:#48b0e5;}</style></defs><title>資產 8</title><g id="圖層_2" data-name="圖層 2"><g id="圖層_1-2" data-name="圖層 1"><g id="fill"><g id="_群組_" data-name="&lt;群組&gt;"><polygon id="_路徑_" data-name="&lt;路徑&gt;" class="cls-1" points="95.5 178.5 96.1 178.2 116.6 178.2 95.5 204.5 73.3 178.2 94.9 178.2 95.5 178.5"/><polygon id="_路徑_2" data-name="&lt;路徑&gt;" class="cls-1" points="125.3 167.4 116.6 178.2 96.1 178.2 123.5 162.3 125.3 161.3 125.3 167.4"/><polygon id="_路徑_3" data-name="&lt;路徑&gt;" class="cls-1" points="73.3 178.2 68.3 172.3 68.3 162.8 94.9 178.2 73.3 178.2"/><polygon id="_路徑_4" data-name="&lt;路徑&gt;" class="cls-2" points="125.3 161.3 123.5 162.3 96.1 178.2 94.9 178.2 68.3 162.8 68.3 156.3 95.5 172.3 125.3 155.3 125.3 161.3"/><polygon id="_路徑_5" data-name="&lt;路徑&gt;" class="cls-3" points="34.8 136.8 47.5 144.5 45.3 148.5 30.3 139.5 30.3 125 34.3 125 34.8 136.8"/><polygon id="_路徑_6" data-name="&lt;路徑&gt;" class="cls-3" points="161.3 139.3 145.8 148.5 143 144.3 156.5 135.8 156.5 125 161.3 125 161.3 139.3"/><polygon id="_路徑_7" data-name="&lt;路徑&gt;" class="cls-3" points="160 77.5 155.8 77.5 156 65.7 143 58.5 145.3 53.8 160 63.5 160 77.5"/><polygon id="_路徑_8" data-name="&lt;路徑&gt;" class="cls-3" points="124 46.5 95.5 30.3 68.3 45.3 68.3 40.3 95.5 24.8 124 41.3 124 46.5"/><polygon id="_路徑_9" data-name="&lt;路徑&gt;" class="cls-3" points="47.5 58.8 35 65.7 34.5 77.5 29 77.5 29 63.3 44.8 53.8 47.5 58.8"/><polygon id="_路徑_10" data-name="&lt;路徑&gt;" class="cls-4" points="27.4 173.2 24.2 173.2 24.4 154 15.2 145.7 16.9 144.5 27.4 153.5 27.4 173.2"/><polygon id="_路徑_11" data-name="&lt;路徑&gt;" class="cls-4" points="16 136.8 13 136.8 13 64.5 16 65.7 16 136.8"/><polygon id="_路徑_12" data-name="&lt;路徑&gt;" class="cls-4" points="177 134 174.8 132.5 174.8 65.7 177 63.3 177 134"/><polygon id="_路徑_13" data-name="&lt;路徑&gt;" class="cls-4" points="176.3 145.4 165.8 154.6 165.8 174.1 163 174.1 163 154.6 174.5 143.6 176.3 145.4"/><polygon id="_路徑_14" data-name="&lt;路徑&gt;" class="cls-4" points="177 178.5 174.8 178.5 174.8 156.5 188.3 144.3 188.3 141.3 185.3 139.5 185 59.8 188.3 58.5 188.3 53.8 190 53.8 190 145.3 177 157.8 177 178.5"/><polygon id="_路徑_15" data-name="&lt;路徑&gt;" class="cls-4" points="141.5 0.5 190 52 190 53.8 188.3 53.8 140.3 2.8 136 2.8 133.8 5.5 54.8 5 54.8 2.8 50.3 2.8 2.5 53.8 1.4 52.8 49.3 0.5 141.5 0.5"/><polygon id="_路徑_16" data-name="&lt;路徑&gt;" class="cls-4" points="16 179.8 13 179.8 13 156.8 0.5 144.3 0.5 141 2.5 141 2.5 143 16 156.5 16 179.8"/><polygon id="_路徑_17" data-name="&lt;路徑&gt;" class="cls-4" points="1.4 52.8 2.5 53.8 2.5 59 5.3 60 5 140.3 2.5 141 0.5 141 0.5 53.8 1.4 52.8"/><polygon id="_路徑_18" data-name="&lt;路徑&gt;" class="cls-5" points="176.3 145.4 174.5 143.6 163 154.6 163 174.1 165.8 174.1 165.8 154.6 176.3 145.4"/><polygon id="_路徑_19" data-name="&lt;路徑&gt;" class="cls-5" points="15.2 145.7 24.4 154 24.2 173.2 27.4 173.2 27.4 153.5 16.9 144.5 15.2 145.7"/><polygon id="_路徑_20" data-name="&lt;路徑&gt;" class="cls-5" points="154.2 135.2 95.5 169.1 36.8 135.2 36.8 67.4 95.5 33.5 154.2 67.4 154.2 135.2"/><polygon id="_路徑_21" data-name="&lt;路徑&gt;" class="cls-6" points="35 65.7 34.5 77.5 29 77.5 29 63.3 44.8 53.8 47.5 58.8 35 65.7"/><polygon id="_路徑_22" data-name="&lt;路徑&gt;" class="cls-6" points="34.8 136.8 47.5 144.5 45.3 148.5 30.3 139.5 30.3 125 34.3 125 34.8 136.8"/><polygon id="_路徑_23" data-name="&lt;路徑&gt;" class="cls-5" points="123.5 162.3 96.1 178.2 95.5 178.5 94.9 178.2 68.3 162.8 68.3 156.3 95.5 172.3 125.3 155.3 125.3 161.3 123.5 162.3"/><polyline id="_路徑_24" data-name="&lt;路徑&gt;" class="cls-7" points="125.3 161.3 125.3 167.4 116.6 178.2 95.5 204.5 73.3 178.2 68.3 172.3 68.3 162.8"/><polygon id="_路徑_25" data-name="&lt;路徑&gt;" class="cls-6" points="95.5 30.3 124 46.5 124 41.3 95.5 24.8 68.3 40.3 68.3 45.3 95.5 30.3"/><polygon id="_路徑_26" data-name="&lt;路徑&gt;" class="cls-6" points="156 65.7 155.8 77.5 160 77.5 160 63.5 145.3 53.8 143 58.5 156 65.7"/><polygon id="_路徑_27" data-name="&lt;路徑&gt;" class="cls-6" points="161.3 125 161.3 139.3 145.8 148.5 143 144.3 156.5 135.8 156.5 125 161.3 125"/><polygon id="_路徑_28" data-name="&lt;路徑&gt;" class="cls-5" points="16 65.7 16 136.8 13 136.8 13 64.5 16 65.7"/><polygon id="_路徑_29" data-name="&lt;路徑&gt;" class="cls-5" points="177 63.3 177 134 174.8 132.5 174.8 65.7 177 63.3"/><line id="_路徑_30" data-name="&lt;路徑&gt;" class="cls-5" x1="18.3" y1="56.5" x2="54.8" y2="17.3"/><line id="_路徑_31" data-name="&lt;路徑&gt;" class="cls-5" x1="131.5" y1="15.8" x2="63" y2="15.8"/><line id="_路徑_32" data-name="&lt;路徑&gt;" class="cls-5" x1="170.4" y1="56.5" x2="137.5" y2="19"/><polygon id="_路徑_33" data-name="&lt;路徑&gt;" class="cls-5" points="190 52 141.5 0.5 49.3 0.5 1.4 52.8 0.5 53.8 0.5 141 0.5 144.3 13 156.8 13 179.8 16 179.8 16 156.5 2.5 143 2.5 141 5 140.3 5.3 60 2.5 59 2.5 53.8 50.3 2.8 54.8 2.8 54.8 5 133.8 5.5 136 2.8 140.3 2.8 188.3 53.8 188.3 58.5 185 59.8 185.3 139.5 188.3 141.3 188.3 144.3 174.8 156.5 174.8 178.5 177 178.5 177 157.8 190 145.3 190 53.8 190 52"/><circle id="_路徑_34" data-name="&lt;路徑&gt;" class="cls-5" cx="96.3" cy="102.3" r="49.2"/><path id="_路徑_35" data-name="&lt;路徑&gt;" class="cls-5" d="M52.7,102.3a43.6,43.6,0,1,1,43.6,43.6A43.57,43.57,0,0,1,52.7,102.3Z"/><path id="_路徑_36" data-name="&lt;路徑&gt;" class="cls-5" d="M66,101.7a30.1,30.1,0,1,1,30.1,30.1A30.13,30.13,0,0,1,66,101.7Z"/></g></g></g></g></svg>