<svg xmlns="http://www.w3.org/2000/svg" viewBox="0 0 99 85"><defs><style>.cls-1,.cls-2,.cls-3{fill:none;}.cls-1{stroke:#57d3f0;stroke-opacity:0.76;stroke-width:4px;}.cls-2{stroke:#59c4db;}.cls-3{stroke:#57b7f0;}.cls-4{fill:#23aed2;}</style></defs><title>2-2btn</title><g id="圖層_2" data-name="圖層 2"><g id="圖層_1-2" data-name="圖層 1"><g id="射擊館"><g id="主頁內頁_背景故事_" data-name="主頁內頁（背景故事）"><g id="Group-3"><path id="Polygon-3-Copy-2" class="cls-1" d="M96.69,42.5,73.1,2H25.9L2.31,42.5,25.9,83H73.1Z"/><polygon id="Polygon-3-Copy-3" class="cls-2" points="91.2 43.27 70.16 79.59 28.06 79.59 7.02 43.27 28.06 6.96 70.16 6.96 91.2 43.27"/><ellipse id="Oval-6-Copy" class="cls-3" cx="49.5" cy="42.89" rx="33.13" ry="32.84"/><path id="Triangle-6-Copy-2" class="cls-4" d="M50.73,23a1,1,0,0,0-.42-.44.93.93,0,0,0-1.26.44l-3.84,8h9.36Z"/><path id="Triangle-6-Copy-3" class="cls-4" d="M50.78,60.82l3.79-7.5H45.21L49,60.82h0a1,1,0,0,0,1.34.44A.94.94,0,0,0,50.78,60.82Z"/></g></g></g></g></g></svg>