<svg xmlns="http://www.w3.org/2000/svg" viewBox="0 0 108 93"><defs><style>.cls-1,.cls-2,.cls-3{fill:none;}.cls-1,.cls-3{stroke:#61f057;}.cls-1{stroke-opacity:0.76;stroke-width:4px;}.cls-2{stroke:#59db6b;}.cls-4{fill:#1fed81;}</style></defs><title>資產 1</title><g id="圖層_2" data-name="圖層 2"><g id="圖層_1-2" data-name="圖層 1"><g id="冒險館"><g id="主頁內頁_介面介紹_" data-name="主頁內頁（介面介紹）"><g id="Group-3"><path id="Polygon-3-Copy-2" class="cls-1" d="M105.69,46.5,79.85,2H28.15L2.31,46.5,28.15,91h51.7Z"/><polygon id="Polygon-3-Copy-3" class="cls-2" points="99.5 47.34 76.53 87.08 30.61 87.08 7.65 47.34 30.61 7.61 76.53 7.61 99.5 47.34"/><ellipse id="Oval-6-Copy" class="cls-3" cx="54" cy="46.92" rx="36.14" ry="35.93"/><path id="Triangle-6-Copy-2" class="cls-4" d="M55.34,25.1a1,1,0,0,0-.46-.47,1,1,0,0,0-1.37.47l-4.19,8.72H59.53Z"/><path id="Triangle-6-Copy-3" class="cls-4" d="M56.21,64.93l3.32-6.59H49.32l3.32,6.59h0a2,2,0,0,0,3.57,0Z"/></g></g></g></g></g></svg>