<svg xmlns="http://www.w3.org/2000/svg" viewBox="0 0 144.5 41"><defs><style>.cls-1{fill:none;stroke:#e4e4e4;stroke-width:2px;}.cls-2{fill:#e4e4e4;}</style></defs><title>btn</title><g id="圖層_2" data-name="圖層 2"><g id="圖層_1-2" data-name="圖層 1"><g id="會員登入註冊01"><g id="會員登入"><g id="登入box"><g id="登入鈕"><g id="btn"><rect id="_路徑_" data-name="&lt;路徑&gt;" class="cls-1" x="1" y="1" width="142.5" height="39"/><polygon id="_路徑_2" data-name="&lt;路徑&gt;" class="cls-2" points="129.8 3 129.8 6 136.8 6 136.8 13 140.8 13 140.8 3 129.8 3"/><polygon id="_路徑_3" data-name="&lt;路徑&gt;" class="cls-2" points="14.8 38 14.8 34 7.8 34 7.8 28 3.8 28 3.8 38 14.8 38"/><polygon id="_路徑_4" data-name="&lt;路徑&gt;" class="cls-2" points="140.8 27 136.8 27 136.8 33 129.8 33 129.8 37 140.8 37 140.8 27"/><polygon id="_路徑_5" data-name="&lt;路徑&gt;" class="cls-2" points="3.8 13 7.8 13 7.8 6 14.8 6 14.8 3 3.8 3 3.8 13"/></g></g></g></g></g></g></g></svg>