<svg xmlns="http://www.w3.org/2000/svg" viewBox="0 0 144.5 59.2"><defs><style>.cls-1{opacity:0.8;}.cls-2{fill:none;stroke:#d0021b;stroke-width:2px;}.cls-3{fill:#ff1919;}</style></defs><title>紅色按鈕01</title><g id="圖層_2" data-name="圖層 2"><g id="圖層_1-2" data-name="圖層 1"><g id="商品頁" class="cls-1"><g id="商品詳細頁"><g id="細節"><g id="btn"><g id="product_details_btn" data-name="product details btn"><g id="fill"><rect id="_路徑_" data-name="&lt;路徑&gt;" class="cls-2" x="1" y="1" width="142.5" height="57.2"/><polygon id="_路徑_2" data-name="&lt;路徑&gt;" class="cls-3" points="129.8 6.3 129.8 9.3 136.8 9.3 136.8 16.3 140.8 16.3 140.8 6.3 129.8 6.3"/><polygon id="_路徑_3" data-name="&lt;路徑&gt;" class="cls-3" points="14.8 55.3 14.8 51.3 7.8 51.3 7.8 45.3 3.8 45.3 3.8 55.3 14.8 55.3"/><polygon id="_路徑_4" data-name="&lt;路徑&gt;" class="cls-3" points="140.8 45.3 136.8 45.3 136.8 51.3 129.8 51.3 129.8 55.3 140.8 55.3 140.8 45.3"/><polygon id="_路徑_5" data-name="&lt;路徑&gt;" class="cls-3" points="3.8 16.3 7.8 16.3 7.8 9.3 14.8 9.3 14.8 6.3 3.8 6.3 3.8 16.3"/></g></g></g></g></g></g></g></g></svg>